<?xml version="1.0" encoding="utf-8"?>
<!-- Generator: Adobe Illustrator 16.0.4, SVG Export Plug-In . SVG Version: 6.00 Build 0)  -->
<!DOCTYPE svg PUBLIC "-//W3C//DTD SVG 1.1//EN" "http://www.w3.org/Graphics/SVG/1.1/DTD/svg11.dtd">
<svg version="1.1" xmlns="http://www.w3.org/2000/svg" xmlns:xlink="http://www.w3.org/1999/xlink" x="0px" y="0px" width="1150px"
	 height="840px" viewBox="0 0 1150 840" enable-background="new 0 0 1150 840" xml:space="preserve">
<g id="Layer_1">
</g>
<g id="Layer_2">
	<g>
		<g>
			<g>
				<g enable-background="new    ">
					<g>
						<polygon fill="#125A81" points="1126.364,212.264 1113.739,223.602 990.622,279.552 1003.247,268.214 						"/>
					</g>
					<g>
						<polygon fill="#125A81" points="1079.122,310.474 1066.497,321.812 972.751,331.833 985.376,320.496 						"/>
					</g>
					<g>
						<polygon fill="#125A81" points="1069.742,402.877 1057.117,414.214 960.276,455.768 972.901,444.43 						"/>
					</g>
					<g>
						<polygon fill="#125A81" points="586.389,121.081 573.764,132.418 665.694,30.396 678.319,19.059 						"/>
					</g>
					<g>
						<polygon fill="#125A81" points="1029.935,568.194 1017.31,579.531 819.689,572.957 832.314,561.619 						"/>
					</g>
					<g>
						<polygon fill="#125A81" points="391.044,166.078 378.419,177.416 447.423,13.319 460.048,1.981 						"/>
					</g>
					<g>
						<polygon fill="#125A81" points="841.378,716.259 828.753,727.596 690.23,584.214 702.855,572.876 						"/>
					</g>
					<g>
						<polygon fill="#125A81" points="270.469,228.683 257.844,240.02 295.937,137.626 308.562,126.289 						"/>
					</g>
					<g>
						<polygon fill="#125A81" points="619.151,762.178 606.526,773.516 481.273,679.087 493.898,667.75 						"/>
					</g>
					<g>
						<polygon fill="#125A81" points="65.963,269.497 53.338,280.834 20.472,196.65 33.097,185.312 						"/>
					</g>
					<g>
						<polygon fill="#125A81" points="96.492,351.529 83.867,362.867 17.117,273.122 29.742,261.785 						"/>
					</g>
					<g>
						<polygon fill="#125A81" points="34.332,416.569 21.707,427.906 83.867,362.867 96.492,351.529 						"/>
					</g>
					<g>
						<polygon fill="#125A81" points="143.12,493.611 130.495,504.949 21.707,427.906 34.332,416.569 						"/>
					</g>
					<g>
						<polygon fill="#125A81" points="402.299,828.138 389.674,839.476 373.208,669.397 385.833,658.06 						"/>
					</g>
					<g>
						<polygon fill="#125A81" points="235.857,714.937 223.232,726.273 205.545,630.33 218.17,618.992 						"/>
					</g>
					<g>
						<polygon fill="#125A81" points="385.833,658.06 373.208,669.397 223.232,726.273 235.857,714.937 						"/>
					</g>
					<g>
						<polygon fill="#125A81" points="218.17,618.992 205.545,630.33 69.626,635.075 82.251,623.738 						"/>
					</g>
					<g>
						<polygon fill="#298CC3" points="1003.247,268.214 1079.122,310.474 985.376,320.496 1069.742,402.877 972.901,444.43 
							1029.935,568.194 832.314,561.619 841.378,716.259 702.855,572.876 619.151,762.178 493.898,667.75 402.299,828.138 
							385.833,658.06 235.857,714.937 218.17,618.992 82.251,623.738 143.12,493.611 34.332,416.569 96.492,351.529 29.742,261.785 
							65.963,269.497 33.097,185.312 270.469,228.683 308.562,126.289 391.044,166.078 460.048,1.981 586.389,121.081 
							678.319,19.059 704.667,107.974 873.435,1.516 889.353,126.235 1014.54,117.367 971.934,168.261 1126.364,212.264 						"/>
					</g>
					<g>
						<polygon fill="#125A81" points="82.251,623.738 69.626,635.075 130.495,504.949 143.12,493.611 						"/>
					</g>
				</g>
			</g>
		</g>
		<g>
			<g>
				<g enable-background="new    ">
					<g>
						<polygon fill="#B5A527" points="965.592,144.646 959.43,150.181 921.724,180.795 927.886,175.26 						"/>
					</g>
					<g>
						<polygon fill="#B5A527" points="1036.766,212.429 1030.604,217.964 932.867,268.129 939.03,262.594 						"/>
					</g>
					<g>
						<polygon fill="#B5A527" points="1033.771,298.157 1027.608,303.691 919.107,310.475 925.271,304.94 						"/>
					</g>
					<g>
						<polygon fill="#B5A527" points="1013.54,388.575 1007.378,394.11 915.154,423.842 921.316,418.307 						"/>
					</g>
					<g>
						<polygon fill="#B5A527" points="564.711,169.644 558.549,175.179 650.856,71.245 657.019,65.709 						"/>
					</g>
					<g>
						<polygon fill="#B5A527" points="984.018,540.161 977.854,545.696 805.221,535.827 811.383,530.292 						"/>
					</g>
					<g>
						<polygon fill="#B5A527" points="406.076,207.327 399.914,212.862 464.086,68.087 470.249,62.552 						"/>
					</g>
					<g>
						<polygon fill="#B5A527" points="818.872,655.119 812.709,660.653 686.234,534.994 692.396,529.459 						"/>
					</g>
					<g>
						<polygon fill="#B5A527" points="308.197,259.898 302.034,265.433 332.844,179.273 339.006,173.738 						"/>
					</g>
					<g>
						<polygon fill="#B5A527" points="604.991,714.421 598.829,719.956 484.109,635.345 490.271,629.81 						"/>
					</g>
					<g>
						<polygon fill="#B5A527" points="118.813,284.904 112.65,290.438 85.845,219.52 92.008,213.985 						"/>
					</g>
					<g>
						<polygon fill="#B5A527" points="139.409,369.104 133.246,374.639 72.541,290.257 78.703,284.722 						"/>
					</g>
					<g>
						<polygon fill="#B5A527" points="416.072,764.755 409.909,770.29 396.301,627.064 402.464,621.529 						"/>
					</g>
					<g>
						<polygon fill="#B5A527" points="94.458,411.877 88.295,417.412 133.246,374.639 139.409,369.104 						"/>
					</g>
					<g>
						<polygon fill="#B5A527" points="191.641,482.658 185.479,488.193 88.295,417.412 94.458,411.877 						"/>
					</g>
					<g>
						<polygon fill="#B5A527" points="402.464,621.529 396.301,627.064 274.538,674.798 280.701,669.263 						"/>
					</g>
					<g>
						<polygon fill="#B5A527" points="280.701,669.263 274.538,674.798 260.048,594.008 266.211,588.473 						"/>
					</g>
					<g>
						<polygon fill="#B5A527" points="130.951,595.258 124.789,600.792 185.479,488.193 191.641,482.658 						"/>
					</g>
					<g>
						<polygon fill="#B5A527" points="266.211,588.473 260.048,594.008 124.789,600.792 130.951,595.258 						"/>
					</g>
					<g>
						<polygon fill="#F2DD00" points="939.03,262.594 1033.771,298.157 925.271,304.94 1013.54,388.575 921.316,418.307 
							984.018,540.161 811.383,530.292 818.872,655.119 692.396,529.459 604.991,714.421 490.271,629.81 416.072,764.755 
							402.464,621.529 280.701,669.263 266.211,588.473 130.951,595.258 191.641,482.658 94.458,411.877 139.409,369.104 
							78.703,284.722 118.813,284.904 92.008,213.985 308.197,259.898 339.006,173.738 406.076,207.327 470.249,62.552 
							564.711,169.644 657.019,65.709 672.941,151.32 850.436,49.276 862.381,156.98 965.592,144.646 927.886,175.26 
							1036.766,212.429 						"/>
					</g>
				</g>
			</g>
		</g>
		<g>
			<g>
				<g enable-background="new    ">
					<g enable-background="new    ">
						<defs>
							<path id="SVGID_1_" enable-background="new    " d="M875.211,176.122c3.052,0.773,6.103,1.546,9.154,2.32
								c3.149,0.798,6.146,2.424,8.994,4.878l-9.155-2.32C881.357,178.546,878.36,176.92,875.211,176.122z"/>
						</defs>
						<clipPath id="SVGID_2_">
							<use xlink:href="#SVGID_1_"  overflow="visible"/>
						</clipPath>
						<g clip-path="url(#SVGID_2_)" enable-background="new    ">
							<path fill="#8F0507" d="M893.359,183.32l-9.155-2.32c-2.847-2.454-5.844-4.08-8.993-4.878l9.154,2.32
								C887.515,179.24,890.512,180.866,893.359,183.32"/>
						</g>
					</g>
					<g enable-background="new    ">
						<defs>
							<path id="SVGID_3_" enable-background="new    " d="M853.611,292.993c-3.052-0.773-6.104-1.547-9.155-2.32
								c1.927,0.488,3.895,0.694,5.902,0.622c0.539-0.02,1.082-0.059,1.627-0.119c9.931-1.07,19.626-9.659,29.077-25.776l9.155,2.32
								c-9.451,16.117-19.146,24.706-29.077,25.776c-0.545,0.06-1.088,0.099-1.627,0.119
								C857.506,293.687,855.538,293.481,853.611,292.993z"/>
						</defs>
						<clipPath id="SVGID_4_">
							<use xlink:href="#SVGID_3_"  overflow="visible"/>
						</clipPath>
						<g clip-path="url(#SVGID_4_)" enable-background="new    ">
							<path fill="#9E0B0F" d="M853.611,292.993l-9.155-2.32c0.833,0.211,1.673,0.369,2.521,0.475l9.155,2.32
								C855.284,293.362,854.444,293.204,853.611,292.993"/>
							<path fill="#9A090D" d="M856.132,293.468l-9.155-2.32c1.114,0.139,2.242,0.188,3.382,0.146
								c0.539-0.02,1.082-0.059,1.627-0.119c0.052-0.005,0.104-0.011,0.156-0.017l9.155,2.32c-0.053,0.006-0.104,0.012-0.156,0.018
								c-0.545,0.06-1.088,0.099-1.627,0.119C858.373,293.656,857.246,293.607,856.132,293.468"/>
							<path fill="#96080B" d="M861.297,293.478l-9.155-2.32c1.444-0.167,2.883-0.494,4.317-0.979l9.154,2.32
								C864.18,292.985,862.74,293.311,861.297,293.478"/>
							<path fill="#920609" d="M865.613,292.5l-9.154-2.32c1.782-0.603,3.557-1.452,5.324-2.547l9.155,2.32
								C869.171,291.047,867.396,291.896,865.613,292.5"/>
							<path fill="#8F0507" d="M870.938,289.952l-9.155-2.32c6.534-4.048,12.961-11.458,19.279-22.233l9.155,2.32
								C883.899,278.493,877.472,285.903,870.938,289.952"/>
						</g>
					</g>
					<g enable-background="new    ">
						<defs>
							<path id="SVGID_5_" enable-background="new    " d="M882.07,114.28c3.052,0.774,6.103,1.547,9.154,2.32
								c-3.886-0.985-7.979-1.399-12.281-1.243l-9.154-2.32C874.09,112.881,878.184,113.296,882.07,114.28z"/>
						</defs>
						<clipPath id="SVGID_6_">
							<use xlink:href="#SVGID_5_"  overflow="visible"/>
						</clipPath>
						<g clip-path="url(#SVGID_6_)" enable-background="new    ">
							<path fill="#9A090D" d="M878.943,115.357l-9.154-2.32c2.505-0.091,4.939,0.012,7.303,0.308l9.155,2.32
								C883.883,115.369,881.448,115.267,878.943,115.357"/>
							<path fill="#9E0B0F" d="M886.247,115.665l-9.155-2.32c1.696,0.212,3.355,0.524,4.979,0.935l9.154,2.32
								C889.602,116.189,887.942,115.877,886.247,115.665"/>
						</g>
					</g>
					<g enable-background="new    ">
						<defs>
							<path id="SVGID_7_" enable-background="new    " d="M831.964,338.587c-3.052-0.773-6.104-1.547-9.155-2.32
								c-12.298-3.117-22.422-11.882-30.38-26.306c-6.733-11.808-10.84-25.374-12.318-40.689
								c-1.088-11.247-0.808-23.327,0.849-36.238c3.235-26.414,11.854-51.152,25.839-74.214
								c16.795-27.876,36.557-43.054,59.296-45.515c1.247-0.135,2.48-0.225,3.695-0.269l9.154,2.32
								c-1.214,0.044-2.447,0.133-3.694,0.269c-22.739,2.46-42.502,17.638-59.297,45.515c-13.983,23.062-22.603,47.8-25.838,74.213
								c-1.657,12.912-1.937,24.991-0.849,36.238c1.479,15.316,5.584,28.882,12.318,40.689
								C809.542,326.706,819.666,335.471,831.964,338.587z"/>
						</defs>
						<clipPath id="SVGID_8_">
							<use xlink:href="#SVGID_7_"  overflow="visible"/>
						</clipPath>
						<g clip-path="url(#SVGID_8_)" enable-background="new    ">
							<path fill="#8F0507" d="M831.964,338.587l-9.155-2.32c-12.298-3.116-22.422-11.882-30.38-26.306
								c-6.733-11.808-10.84-25.374-12.318-40.689c-1.088-11.247-0.808-23.327,0.849-36.238
								c3.235-26.414,11.854-51.152,25.839-74.214c10.1-16.764,21.273-28.936,33.521-36.511l9.155,2.32
								c-12.249,7.575-23.422,19.747-33.522,36.511c-13.983,23.062-22.603,47.8-25.838,74.213
								c-1.657,12.912-1.937,24.991-0.849,36.238c1.479,15.316,5.584,28.882,12.318,40.689
								C809.542,326.706,819.666,335.471,831.964,338.587"/>
							<path fill="#920609" d="M849.475,124.629l-9.155-2.32c4.232-2.618,8.594-4.687,13.083-6.206l9.155,2.32
								C858.068,119.943,853.707,122.012,849.475,124.629"/>
							<path fill="#96080B" d="M862.558,118.423l-9.155-2.32c3.981-1.348,8.063-2.264,12.247-2.748l9.155,2.32
								C870.621,116.16,866.539,117.075,862.558,118.423"/>
							<path fill="#9A090D" d="M874.805,115.675l-9.155-2.32c0.147-0.017,0.296-0.034,0.444-0.05
								c1.247-0.135,2.48-0.225,3.695-0.269l9.154,2.32c-1.214,0.044-2.447,0.133-3.694,0.269
								C875.101,115.642,874.952,115.658,874.805,115.675"/>
						</g>
					</g>
					<g>
						<path fill="#D61920" d="M878.943,115.357c18.121-0.658,32.559,8.811,43.312,28.396l-28.896,39.566
							c-4.426-3.815-9.214-5.629-14.374-5.442c-0.49,0.018-0.984,0.054-1.481,0.108c-10.134,1.096-19.775,11.059-28.967,29.882
							c-7.572,15.518-12.09,29.72-13.553,42.607c-0.747,6.161-0.893,11.66-0.427,16.509c1.257,12.986,6.785,21.41,16.625,25.236
							c2.694,1.037,5.472,1.499,8.331,1.395c0.539-0.02,1.082-0.059,1.627-0.119c9.931-1.07,19.626-9.66,29.077-25.776
							l12.501,33.623c-16.853,23.373-35.016,36.118-54.498,38.227c-1.281,0.139-2.546,0.23-3.791,0.275
							c-18.066,0.655-32.343-8.525-42.846-27.562c-6.734-11.807-10.84-25.374-12.318-40.689
							c-1.088-11.247-0.809-23.327,0.849-36.238c3.235-26.414,11.854-51.152,25.838-74.213
							c16.795-27.877,36.558-43.054,59.297-45.515C876.496,115.491,877.729,115.401,878.943,115.357z"/>
					</g>
				</g>
				<g enable-background="new    ">
					<g>
						<path fill="#D61920" d="M777.982,101.343c-17.87,78.872-29.111,147.062-33.722,204.589l-45.409,14.514l29.889-207.957
							L777.982,101.343z"/>
					</g>
					<g>
						<polygon fill="#8B0304" points="698.852,320.446 689.696,318.126 719.585,110.169 728.74,112.489 						"/>
					</g>
					<g>
						<polygon fill="#96080B" points="728.74,112.489 719.585,110.169 768.827,99.022 777.982,101.343 						"/>
					</g>
				</g>
				<g enable-background="new    ">
					<g>
						<polygon fill="#8B0304" points="613.189,317.389 604.034,315.069 610.979,186.662 620.135,188.981 						"/>
					</g>
					<g>
						<polygon fill="#8B0304" points="587.916,216.445 578.761,214.125 603.062,114.075 612.216,116.396 						"/>
					</g>
					<g>
						<polygon fill="#96080B" points="612.216,116.396 603.062,114.075 668.87,100 678.025,102.32 						"/>
					</g>
					<g>
						<polygon fill="#8B0304" points="554.681,337.657 545.526,335.337 559.726,154.578 568.881,156.897 						"/>
					</g>
					<g>
						<polygon fill="#97080B" points="526.486,122.729 517.331,120.41 585.81,106.525 594.965,108.845 						"/>
					</g>
					<g enable-background="new    ">
						<defs>
							<path id="SVGID_9_" enable-background="new    " d="M472.633,328.335l-9.155-2.32
								c24.12-67.586,42.071-136.119,53.853-205.605l9.155,2.32C514.704,192.216,496.753,260.749,472.633,328.335z"/>
						</defs>
						<clipPath id="SVGID_10_">
							<use xlink:href="#SVGID_9_"  overflow="visible"/>
						</clipPath>
						<g clip-path="url(#SVGID_10_)" enable-background="new    ">
							<path fill="#8F0507" d="M472.633,328.335l-9.155-2.32c24.12-67.586,42.071-136.119,53.853-205.605l9.155,2.32
								C514.704,192.216,496.753,260.749,472.633,328.335"/>
						</g>
					</g>
					<g>
						<path fill="#D61920" d="M678.025,102.32c-6.179,63.816-8.57,121.253-7.21,172.313c0.271,10.135,0.537,20.171,0.803,30.117
							l-58.429,12.639l6.945-128.407l-33.907,143.144l-31.546,5.532l14.2-180.76l-36.617,161.085l-59.631,10.353
							c24.12-67.586,42.071-136.119,53.853-205.606l68.479-13.884l-7.049,107.6l24.3-100.05L678.025,102.32z"/>
					</g>
				</g>
				<g enable-background="new    ">
					<g enable-background="new    ">
						<defs>
							<path id="SVGID_11_" enable-background="new    " d="M385.821,315.791c-3.052-0.773-6.104-1.546-9.155-2.32
								c1.977,0.501,4.057,0.712,6.24,0.633c1.656-0.06,3.372-0.287,5.147-0.681c10.526-2.324,18.854-10.045,24.985-23.154
								c4.918-10.449,7.618-22.112,8.107-34.963l9.155,2.32c-0.49,12.852-3.189,24.515-8.107,34.963
								c-6.131,13.11-14.459,20.831-24.985,23.155c-1.775,0.394-3.49,0.621-5.146,0.681
								C389.877,316.503,387.797,316.292,385.821,315.791z"/>
						</defs>
						<clipPath id="SVGID_12_">
							<use xlink:href="#SVGID_11_"  overflow="visible"/>
						</clipPath>
						<g clip-path="url(#SVGID_12_)" enable-background="new    ">
							<path fill="#9E0B0F" d="M385.821,315.791l-9.155-2.32c0.828,0.21,1.674,0.369,2.539,0.477l9.155,2.32
								C387.495,316.16,386.648,316.001,385.821,315.791"/>
							<path fill="#9A090D" d="M388.359,316.268l-9.155-2.32c1.199,0.15,2.433,0.202,3.701,0.156
								c0.683-0.024,1.375-0.078,2.078-0.159l9.155,2.32c-0.703,0.081-1.395,0.134-2.078,0.159
								C390.792,316.47,389.558,316.417,388.359,316.268"/>
							<path fill="#96080B" d="M394.138,316.265l-9.155-2.32c1.002-0.116,2.025-0.29,3.069-0.521c1.061-0.234,2.1-0.523,3.116-0.867
								l9.155,2.32c-1.016,0.344-2.055,0.633-3.116,0.867C396.164,315.975,395.141,316.148,394.138,316.265"/>
							<path fill="#920609" d="M400.323,314.876l-9.155-2.32c2.111-0.714,4.125-1.665,6.043-2.852l9.155,2.32
								C404.448,313.211,402.434,314.162,400.323,314.876"/>
							<path fill="#8F0507" d="M406.367,312.024l-9.155-2.32c6.321-3.912,11.597-10.391,15.826-19.435
								c4.918-10.449,7.618-22.112,8.107-34.963l9.155,2.32c-0.49,12.852-3.189,24.515-8.107,34.963
								C417.963,301.632,412.688,308.112,406.367,312.024"/>
						</g>
					</g>
					<g enable-background="new    ">
						<defs>
							<path id="SVGID_13_" enable-background="new    " d="M400.262,195.682c3.052,0.773,6.104,1.546,9.155,2.32
								c5.872,1.488,10.677,7.099,14.422,16.824c4.926,13.456,7.085,27.713,6.461,42.799l-9.155-2.32
								c0.625-15.086-1.534-29.344-6.46-42.799C410.939,202.78,406.134,197.17,400.262,195.682z"/>
						</defs>
						<clipPath id="SVGID_14_">
							<use xlink:href="#SVGID_13_"  overflow="visible"/>
						</clipPath>
						<g clip-path="url(#SVGID_14_)" enable-background="new    ">
							<path fill="#8F0507" d="M430.3,257.625l-9.155-2.32c0.625-15.086-1.534-29.344-6.46-42.799
								c-3.745-9.726-8.55-15.336-14.422-16.824l9.155,2.32c5.872,1.488,10.677,7.099,14.422,16.824
								C428.765,228.281,430.924,242.539,430.3,257.625"/>
						</g>
					</g>
					<g enable-background="new    ">
						<defs>
							<path id="SVGID_15_" enable-background="new    " d="M366.152,368.358c-3.052-0.773-6.104-1.546-9.155-2.32
								c-11.345-2.875-21.232-10.955-29.671-24.236c-6.405-10.137-11.034-22.065-13.861-35.786
								c-2.787-13.524-3.748-28.652-2.883-45.375c1.412-28.407,8.254-55.716,20.524-81.944c15.156-32.233,34.469-50.956,57.95-56.15
								c2.958-0.654,5.838-1.033,8.642-1.134c3.842-0.139,7.538,0.241,11.09,1.141l0,0c0.275,0.07,0.641,0.163,0.916,0.232
								c1.221,0.31,2.441,0.619,3.662,0.928c1.526,0.387,3.051,0.773,4.577,1.16c-3.551-0.9-7.248-1.281-11.09-1.142
								c-2.803,0.102-5.684,0.48-8.641,1.135c-23.481,5.194-42.794,23.917-57.951,56.15c-12.271,26.228-19.112,53.537-20.524,81.944
								c-0.865,16.723,0.096,31.851,2.882,45.375c2.827,13.72,7.456,25.648,13.861,35.786
								C344.919,357.404,354.807,365.483,366.152,368.358z"/>
						</defs>
						<clipPath id="SVGID_16_">
							<use xlink:href="#SVGID_15_"  overflow="visible"/>
						</clipPath>
						<g clip-path="url(#SVGID_16_)" enable-background="new    ">
							<path fill="#8F0507" d="M366.152,368.358l-9.155-2.32c-11.345-2.875-21.232-10.955-29.671-24.236
								c-6.405-10.137-11.034-22.065-13.861-35.786c-2.787-13.524-3.748-28.652-2.883-45.375
								c1.412-28.407,8.254-55.716,20.524-81.944c10.761-22.886,23.618-38.96,38.574-48.219l9.155,2.32
								c-14.956,9.258-27.812,25.333-38.574,48.218c-12.271,26.228-19.112,53.537-20.524,81.944
								c-0.865,16.723,0.096,31.851,2.882,45.375c2.827,13.72,7.456,25.648,13.861,35.786
								C344.919,357.404,354.807,365.483,366.152,368.358"/>
							<path fill="#920609" d="M378.835,132.799l-9.155-2.32c4.167-2.579,8.498-4.63,12.991-6.15l9.155,2.32
								C387.333,128.169,383.002,130.219,378.835,132.799"/>
							<path fill="#96080B" d="M391.827,126.648l-9.155-2.32c2.093-0.708,4.222-1.302,6.385-1.781
								c1.726-0.382,3.426-0.67,5.099-0.863l9.155,2.32c-1.673,0.194-3.373,0.482-5.099,0.864
								C396.048,125.346,393.919,125.939,391.827,126.648"/>
							<path fill="#9A090D" d="M403.311,124.003l-9.155-2.32c1.194-0.139,2.375-0.229,3.542-0.271
								c2.216-0.081,4.383,0.012,6.502,0.278l9.155,2.32c-2.119-0.266-4.287-0.358-6.502-0.278
								C405.686,123.775,404.505,123.865,403.311,124.003"/>
							<path fill="#9E0B0F" d="M413.355,124.01l-9.155-2.32c1.555,0.194,3.084,0.482,4.587,0.863l9.155,2.32
								C416.44,124.493,414.911,124.205,413.355,124.01"/>
						</g>
					</g>
					<g>
						<path fill="#D61920" d="M461.813,186.101c2.746,13.337,3.763,28.256,3.034,44.75c-1.443,28.219-8.402,55.451-20.858,81.714
							c-15.196,32.054-34.442,50.648-57.73,55.8c-3.014,0.667-5.953,1.054-8.809,1.157c-16.19,0.586-29.84-7.882-40.97-25.398
							c-6.405-10.138-11.034-22.066-13.861-35.786c-2.787-13.524-3.747-28.652-2.882-45.375
							c1.412-28.407,8.253-55.716,20.524-81.944c15.156-32.233,34.47-50.956,57.951-56.15c2.958-0.655,5.838-1.033,8.641-1.135
							c16.065-0.582,29.593,7.923,40.583,25.505C454.148,159.912,458.946,172.193,461.813,186.101z M430.3,257.625
							c0.625-15.086-1.535-29.344-6.461-42.799c-4.524-11.75-10.597-17.494-18.228-17.217c-0.952,0.035-1.927,0.162-2.927,0.384
							c-10.333,2.28-19.081,13.183-26.254,32.698c-5.848,15.446-9.124,30.018-9.839,43.722c-0.276,7.232,0.159,13.61,1.298,19.136
							c1.607,7.811,4.802,13.774,9.578,17.901c4.201,3.516,9.067,5.175,14.595,4.975c1.656-0.06,3.372-0.287,5.146-0.681
							c10.526-2.324,18.854-10.045,24.985-23.155C427.111,282.14,429.81,270.477,430.3,257.625"/>
					</g>
				</g>
				<g enable-background="new    ">
					<g enable-background="new    ">
						<defs>
							<path id="SVGID_17_" enable-background="new    " d="M1104.854,389.679c0.138,0.035,0.32,0.081,0.458,0.116
								c1.679,0.426,3.356,0.851,5.035,1.276c1.221,0.309,2.441,0.619,3.662,0.928c-3.635-0.921-7.69-1.606-12.168-2.055
								l-9.154-2.32C1097.164,388.073,1101.22,388.758,1104.854,389.679z"/>
						</defs>
						<clipPath id="SVGID_18_">
							<use xlink:href="#SVGID_17_"  overflow="visible"/>
						</clipPath>
						<g clip-path="url(#SVGID_18_)" enable-background="new    ">
							<path fill="#9A090D" d="M1101.842,389.944l-9.154-2.32c0.847,0.085,1.678,0.178,2.494,0.28l9.155,2.32
								C1103.521,390.122,1102.689,390.029,1101.842,389.944"/>
							<path fill="#9E0B0F" d="M1104.337,390.224l-9.155-2.32c3.502,0.436,6.726,1.028,9.673,1.775l9.155,2.32
								C1111.062,391.252,1107.838,390.661,1104.337,390.224"/>
						</g>
					</g>
					<g enable-background="new    ">
						<defs>
							<path id="SVGID_19_" enable-background="new    " d="M1083.369,455.465l-9.155-2.32c1.134-1.651,1.79-3.249,1.952-4.802
								l9.155,2.32C1085.159,452.215,1084.502,453.813,1083.369,455.465z"/>
						</defs>
						<clipPath id="SVGID_20_">
							<use xlink:href="#SVGID_19_"  overflow="visible"/>
						</clipPath>
						<g clip-path="url(#SVGID_20_)" enable-background="new    ">
							<path fill="#8F0507" d="M1083.369,455.465l-9.155-2.32c1.134-1.651,1.79-3.249,1.952-4.802l9.155,2.32
								C1085.159,452.215,1084.502,453.813,1083.369,455.465"/>
						</g>
					</g>
					<g enable-background="new    ">
						<defs>
							<path id="SVGID_21_" enable-background="new    " d="M1070.993,441.516c3.052,0.773,6.104,1.547,9.155,2.32
								c3.826,0.97,5.553,3.247,5.173,6.827l-9.155-2.32C1076.546,444.763,1074.819,442.485,1070.993,441.516z"/>
						</defs>
						<clipPath id="SVGID_22_">
							<use xlink:href="#SVGID_21_"  overflow="visible"/>
						</clipPath>
						<g clip-path="url(#SVGID_22_)" enable-background="new    ">
							<path fill="#8F0507" d="M1085.321,450.663l-9.155-2.32c0.38-3.58-1.347-5.857-5.173-6.827l9.155,2.32
								C1083.975,444.806,1085.701,447.083,1085.321,450.663"/>
						</g>
					</g>
					<g enable-background="new    ">
						<defs>
							<path id="SVGID_23_" enable-background="new    " d="M1045.309,484.605l-9.155-2.319c7.033-2.827,14.1-6.727,21.191-11.704
								c8.13-5.852,13.747-11.668,16.869-17.438l9.155,2.32c-3.122,5.77-8.739,11.585-16.87,17.438
								C1059.408,477.88,1052.342,481.779,1045.309,484.605z"/>
						</defs>
						<clipPath id="SVGID_24_">
							<use xlink:href="#SVGID_23_"  overflow="visible"/>
						</clipPath>
						<g clip-path="url(#SVGID_24_)" enable-background="new    ">
							<path fill="#920609" d="M1045.309,484.605l-9.155-2.319c5.07-2.038,10.158-4.634,15.26-7.788l9.155,2.32
								C1055.467,479.973,1050.379,482.568,1045.309,484.605"/>
							<path fill="#8F0507" d="M1060.568,476.818l-9.155-2.32c1.976-1.222,3.952-2.526,5.932-3.916
								c8.13-5.852,13.747-11.668,16.869-17.438l9.155,2.32c-3.122,5.77-8.739,11.585-16.87,17.438
								C1064.521,474.291,1062.543,475.597,1060.568,476.818"/>
						</g>
					</g>
					<g>
						<polygon fill="#8B0304" points="1057.173,604.643 1048.018,602.322 1026.01,518.924 1035.164,521.243 						"/>
					</g>
					<g enable-background="new    ">
						<defs>
							<path id="SVGID_25_" enable-background="new    " d="M1026.833,396.268l-9.155-2.32c20.352-4.028,38.141-6.32,53.365-6.872
								c7.906-0.287,15.119-0.104,21.645,0.548l9.154,2.32c-6.525-0.652-13.737-0.835-21.644-0.549
								C1064.973,389.948,1047.184,392.239,1026.833,396.268z"/>
						</defs>
						<clipPath id="SVGID_26_">
							<use xlink:href="#SVGID_25_"  overflow="visible"/>
						</clipPath>
						<g clip-path="url(#SVGID_26_)" enable-background="new    ">
							<path fill="#96080B" d="M1026.833,396.268l-9.155-2.32c11.801-2.336,22.74-4.088,32.818-5.255l9.154,2.32
								C1049.573,392.18,1038.634,393.932,1026.833,396.268"/>
							<path fill="#9A090D" d="M1059.65,391.013l-9.154-2.32c7.301-0.846,14.15-1.385,20.547-1.617
								c7.906-0.287,15.119-0.104,21.645,0.548l9.154,2.32c-6.525-0.652-13.737-0.835-21.644-0.549
								C1073.801,389.628,1066.952,390.167,1059.65,391.013"/>
						</g>
					</g>
					<g>
						<polygon fill="#8B0304" points="980.588,560.786 971.433,558.466 1017.678,393.948 1026.833,396.268 						"/>
					</g>
					<g>
						<path fill="#D61920" d="M1101.842,389.944c25.761,2.583,37.582,12.982,35.475,31.208c-2.96,26.179-21.947,50.852-56.971,74.02
							c1.895,7.639,10.527,31.94,25.881,72.897c-10.862,8.335-27.208,20.521-49.054,36.573l-22.009-83.399
							c-7.87,24.9-13.742,48.027-18.274,69.327l-46.672,8.31c0.825-4.229,4.285-16.937,10.37-38.094l46.245-164.519
							c20.351-4.028,38.14-6.32,53.365-6.872C1088.104,389.109,1095.316,389.292,1101.842,389.944z M1085.321,450.663
							c0.453-4.271-2.091-6.688-7.62-7.242c-1.116-0.11-2.372-0.141-3.764-0.09c-4.099,0.148-9.39,0.993-15.878,2.536
							c-2.413,6.429-4.633,12.877-6.664,19.335l-6.087,19.403c7.033-2.826,14.1-6.726,21.19-11.703
							c8.131-5.853,13.748-11.668,16.87-17.438C1084.502,453.813,1085.159,452.215,1085.321,450.663"/>
					</g>
					<g enable-background="new    ">
						<defs>
							<path id="SVGID_27_" enable-background="new    " d="M970.218,598.88l-9.155-2.32c0.826-4.229,4.285-16.937,10.37-38.094
								l9.155,2.32C974.503,581.943,971.043,594.65,970.218,598.88z"/>
						</defs>
						<clipPath id="SVGID_28_">
							<use xlink:href="#SVGID_27_"  overflow="visible"/>
						</clipPath>
						<g clip-path="url(#SVGID_28_)" enable-background="new    ">
							<path fill="#8F0507" d="M970.218,598.88l-9.155-2.32c0.826-4.229,4.285-16.937,10.37-38.094l9.155,2.32
								C974.503,581.943,971.043,594.65,970.218,598.88"/>
						</g>
					</g>
					<g>
						<polygon fill="#99090C" points="920.752,467.785 911.598,465.466 958.67,463.904 967.825,466.225 						"/>
					</g>
					<g>
						<polygon fill="#9A090D" points="897.277,528.389 888.122,526.068 942.2,527.868 951.354,530.188 						"/>
					</g>
					<g>
						<polygon fill="#9A090D" points="902.605,383.825 893.451,381.504 990.284,384.526 999.439,386.846 						"/>
					</g>
					<g>
						<polygon fill="#8B0304" points="830.88,584.16 821.725,581.84 893.451,381.504 902.605,383.825 						"/>
					</g>
					<g>
						<path fill="#D61920" d="M902.605,383.825l96.834,3.021l-13.554,52.824c-18.812-1.631-36.181-2.629-52.107-2.961
							c-2.541,5.317-4.862,10.556-6.989,15.75l-6.037,15.326l47.073-1.561l-9.86,39.289c-18.168-0.057-33.179,0.135-45.031,0.564
							c-2.61,0.094-5.067,0.201-7.371,0.317c-1.459,3.704-2.821,7.433-4.094,11.166l-4.191,10.827l54.077,1.8l-13.552,52.886
							c-18.532-1.769-40.704-2.185-66.508-1.251c-12.604,0.457-26.074,1.235-40.415,2.337L902.605,383.825z"/>
					</g>
					<g enable-background="new    ">
						<defs>
							<path id="SVGID_29_" enable-background="new    " d="M793.433,421.166c3.052,0.773,6.103,1.547,9.154,2.32
								c4.272,1.083,7.635,3.574,10.091,7.466l-9.154-2.319C801.067,424.741,797.705,422.249,793.433,421.166z"/>
						</defs>
						<clipPath id="SVGID_30_">
							<use xlink:href="#SVGID_29_"  overflow="visible"/>
						</clipPath>
						<g clip-path="url(#SVGID_30_)" enable-background="new    ">
							<path fill="#8F0507" d="M812.678,430.952l-9.154-2.319c-2.456-3.892-5.818-6.384-10.091-7.467l9.154,2.32
								C806.859,424.569,810.222,427.061,812.678,430.952"/>
						</g>
					</g>
					<g enable-background="new    ">
						<defs>
							<path id="SVGID_31_" enable-background="new    " d="M804.447,360.546c3.052,0.773,6.104,1.547,9.155,2.32
								c-3.441-0.872-7.107-1.333-11-1.383c-0.999-0.013-1.993-0.001-2.989,0.035l-9.155-2.32c0.996-0.036,1.99-0.048,2.989-0.035
								C797.34,359.213,801.007,359.674,804.447,360.546z"/>
						</defs>
						<clipPath id="SVGID_32_">
							<use xlink:href="#SVGID_31_"  overflow="visible"/>
						</clipPath>
						<g clip-path="url(#SVGID_32_)" enable-background="new    ">
							<path fill="#9A090D" d="M799.613,361.519l-9.155-2.32c0.996-0.036,1.99-0.048,2.989-0.035
								c1.935,0.025,3.812,0.151,5.636,0.379l9.154,2.32c-1.822-0.228-3.7-0.354-5.635-0.379
								C801.604,361.471,800.609,361.482,799.613,361.519"/>
							<path fill="#9E0B0F" d="M808.237,361.862l-9.154-2.32c1.845,0.23,3.633,0.565,5.364,1.004l9.155,2.32
								C811.871,362.428,810.083,362.093,808.237,361.862"/>
						</g>
					</g>
					<g enable-background="new    ">
						<defs>
							<path id="SVGID_33_" enable-background="new    " d="M754.268,540.364c-0.274-0.069-0.641-0.162-0.915-0.232
								c-0.138-0.034-0.32-0.081-0.458-0.116c-1.373-0.348-2.746-0.695-4.119-1.043c-1.221-0.31-2.441-0.619-3.662-0.929
								c2.039,0.517,4.239,0.789,6.601,0.817c0.47,0.006,0.94,0,1.408-0.018c8.488-0.307,16.459-4.384,23.894-12.239
								c6.271-6.55,11.44-14.867,15.491-24.971l9.155,2.32c-4.051,10.104-9.221,18.421-15.491,24.97
								c-7.435,7.855-15.406,11.933-23.895,12.24c-0.467,0.017-0.938,0.023-1.407,0.017
								C758.507,541.153,756.307,540.881,754.268,540.364z"/>
						</defs>
						<clipPath id="SVGID_34_">
							<use xlink:href="#SVGID_33_"  overflow="visible"/>
						</clipPath>
						<g clip-path="url(#SVGID_34_)" enable-background="new    ">
							<path fill="#9E0B0F" d="M754.268,540.364l-9.154-2.32c1.01,0.256,2.06,0.452,3.149,0.588l9.154,2.32
								C756.328,540.816,755.278,540.62,754.268,540.364"/>
							<path fill="#9A090D" d="M757.417,540.952l-9.154-2.32c1.109,0.139,2.26,0.215,3.451,0.229c0.47,0.006,0.94,0,1.408-0.018
								c0.747-0.026,1.49-0.083,2.23-0.169l9.154,2.32c-0.739,0.086-1.482,0.142-2.23,0.169c-0.467,0.017-0.938,0.023-1.407,0.017
								C759.678,541.167,758.527,541.091,757.417,540.952"/>
							<path fill="#96080B" d="M764.507,540.995l-9.154-2.32c1.989-0.229,3.951-0.672,5.883-1.326l9.154,2.32
								C768.458,540.323,766.497,540.765,764.507,540.995"/>
							<path fill="#920609" d="M770.39,539.669l-9.154-2.32c2.268-0.768,4.495-1.827,6.682-3.18l9.155,2.32
								C774.886,537.841,772.658,538.901,770.39,539.669"/>
							<path fill="#8F0507" d="M777.072,536.489l-9.155-2.32c3.116-1.928,6.149-4.449,9.099-7.564
								c6.271-6.55,11.44-14.867,15.491-24.971l9.155,2.32c-4.051,10.104-9.221,18.421-15.491,24.97
								C783.222,532.04,780.188,534.562,777.072,536.489"/>
						</g>
					</g>
					<g>
						<polygon fill="#97080B" points="772.05,469.755 762.895,467.435 839.629,451.741 848.784,454.061 						"/>
					</g>
					<g>
						<polygon fill="#8B0304" points="762.044,512.521 752.889,510.202 762.895,467.435 772.05,469.755 						"/>
					</g>
					<g enable-background="new    ">
						<defs>
							<path id="SVGID_35_" enable-background="new    " d="M727.739,587.197c-3.052-0.773-6.103-1.547-9.154-2.32
								c-14.467-3.666-24.911-14.495-31.349-32.492c-4.185-11.18-6.129-23.682-5.843-37.534c0.28-13.059,2.581-27.361,6.939-42.915
								c7.266-26.633,19.765-50.953,37.503-72.955c20.554-25.704,42.106-38.966,64.622-39.782l9.155,2.32
								c-22.516,0.816-44.069,14.078-64.622,39.782c-17.739,22.002-30.237,46.323-37.504,72.956
								c-4.357,15.554-6.658,29.855-6.938,42.915c-0.286,13.852,1.658,26.354,5.842,37.534
								C702.828,572.701,713.273,583.531,727.739,587.197z"/>
						</defs>
						<clipPath id="SVGID_36_">
							<use xlink:href="#SVGID_35_"  overflow="visible"/>
						</clipPath>
						<g clip-path="url(#SVGID_36_)" enable-background="new    ">
							<path fill="#8F0507" d="M727.739,587.197l-9.154-2.32c-14.467-3.666-24.911-14.495-31.349-32.492
								c-4.185-11.18-6.129-23.682-5.843-37.534c0.28-13.059,2.581-27.361,6.939-42.915c7.266-26.633,19.765-50.953,37.503-72.955
								c10.227-12.789,20.7-22.498,31.417-29.126l9.155,2.32c-10.717,6.628-21.19,16.337-31.417,29.126
								c-17.739,22.002-30.237,46.323-37.504,72.956c-4.357,15.554-6.658,29.855-6.938,42.915
								c-0.286,13.852,1.658,26.354,5.842,37.534C702.828,572.702,713.273,583.531,727.739,587.197"/>
							<path fill="#920609" d="M766.408,372.174l-9.155-2.32c5.081-3.143,10.216-5.592,15.405-7.35l9.155,2.32
								C776.624,366.582,771.489,369.032,766.408,372.174"/>
							<path fill="#96080B" d="M781.813,364.824l-9.155-2.32c4.298-1.456,8.633-2.436,13.004-2.941l9.155,2.32
								C790.445,362.388,786.111,363.369,781.813,364.824"/>
							<path fill="#9A090D" d="M794.817,361.882l-9.155-2.32c1.594-0.185,3.192-0.306,4.796-0.364l9.155,2.32
								C798.01,361.577,796.411,361.698,794.817,361.882"/>
						</g>
					</g>
					<g>
						<path fill="#D61920" d="M799.613,361.519c0.996-0.036,1.99-0.048,2.989-0.035c20.528,0.264,34.774,11.96,42.737,35.064
							l-32.662,34.405c-3.347-5.303-8.376-8.007-15.098-8.087c-0.452-0.005-0.905-0.001-1.356,0.016
							c-12.553,0.455-24.564,9.454-36.044,27.007c-8.92,13.741-15.676,28.969-20.241,45.682c-1.86,6.605-2.854,12.541-2.961,17.815
							c-0.158,7.982,1.723,14.443,5.643,19.374c4.299,5.519,10.376,8.33,18.249,8.422c0.47,0.007,0.94,0,1.407-0.017
							c8.488-0.308,16.46-4.385,23.895-12.24c6.271-6.549,11.44-14.866,15.491-24.97c-14.269,2.748-27.462,5.6-39.618,8.567
							l10.006-42.767l76.734-15.694c0.116,12.668-2.87,27.147-8.971,43.44c-5.478,14.354-12.183,27.52-20.105,39.498
							c-22.209,33.323-47.857,50.501-76.961,51.555c-1.282,0.047-2.567,0.062-3.862,0.046
							c-20.352-0.271-34.507-11.566-42.494-33.895c-4.184-11.18-6.128-23.683-5.842-37.534c0.28-13.06,2.581-27.361,6.938-42.915
							c7.267-26.633,19.765-50.953,37.504-72.956C755.544,375.597,777.098,362.334,799.613,361.519z"/>
					</g>
				</g>
				<g enable-background="new    ">
					<g>
						<polygon fill="#8B0304" points="610.854,588.201 601.698,585.881 605.839,549.254 614.994,551.574 						"/>
					</g>
					<g>
						<polygon fill="#96080B" points="605.312,515.151 596.157,512.831 610.26,509.847 619.415,512.166 						"/>
					</g>
					<g>
						<polygon fill="#8B0304" points="619.415,512.166 610.26,509.847 622.939,399.254 632.094,401.574 						"/>
					</g>
					<g>
						<polygon fill="#97080B" points="596.857,379.252 587.702,376.932 675.137,360.796 684.292,363.116 						"/>
					</g>
					<g enable-background="new    ">
						<defs>
							<path id="SVGID_37_" enable-background="new    " d="M529.402,591.673l-9.155-2.32
								c27.849-73.513,50.325-144.331,67.455-212.42l9.155,2.32C579.727,447.342,557.25,518.16,529.402,591.673z"/>
						</defs>
						<clipPath id="SVGID_38_">
							<use xlink:href="#SVGID_37_"  overflow="visible"/>
						</clipPath>
						<g clip-path="url(#SVGID_38_)" enable-background="new    ">
							<path fill="#8F0507" d="M529.402,591.673l-9.155-2.32c27.849-73.513,50.325-144.331,67.455-212.42l9.155,2.32
								C579.727,447.342,557.25,518.16,529.402,591.673"/>
						</g>
					</g>
					<g>
						<path fill="#D61920" d="M596.857,379.252l87.435-16.136c-9.683,59.222-13.848,129.188-12.476,209.907l-60.963,15.178
							l4.141-36.627l-19.271,4.07l-5.916,25.827l-60.405,10.201C557.25,518.16,579.727,447.342,596.857,379.252z M619.415,512.166
							l12.679-110.592l-0.293,0.002l-26.488,113.575L619.415,512.166"/>
					</g>
					<g enable-background="new    ">
						<defs>
							<path id="SVGID_39_" enable-background="new    " d="M462.371,598.715l-9.155-2.32c-0.196-0.388-1.455-3.778-3.794-10.178
								l9.155,2.32C460.915,594.937,462.174,598.327,462.371,598.715z"/>
						</defs>
						<clipPath id="SVGID_40_">
							<use xlink:href="#SVGID_39_"  overflow="visible"/>
						</clipPath>
						<g clip-path="url(#SVGID_40_)" enable-background="new    ">
							<path fill="#8F0507" d="M462.371,598.715l-9.155-2.32c-0.196-0.388-1.455-3.778-3.794-10.178l9.155,2.32
								C460.915,594.937,462.174,598.327,462.371,598.715"/>
						</g>
					</g>
					<g>
						<polygon fill="#8B0304" points="477.449,505.789 468.294,503.469 487.3,389.122 496.455,391.442 						"/>
					</g>
					<g>
						<polygon fill="#97080B" points="496.455,391.442 487.3,389.122 536.768,379.075 545.922,381.395 						"/>
					</g>
					<g>
						<polygon fill="#8B0304" points="458.576,588.537 449.421,586.217 434.241,543.131 443.396,545.451 						"/>
					</g>
					<g enable-background="new    ">
						<defs>
							<path id="SVGID_41_" enable-background="new    " d="M443.396,545.451l-9.155-2.32c-2.532-6.986-3.997-11.447-4.385-13.394
								l9.155,2.32C439.399,534.004,440.864,538.465,443.396,545.451z"/>
						</defs>
						<clipPath id="SVGID_42_">
							<use xlink:href="#SVGID_41_"  overflow="visible"/>
						</clipPath>
						<g clip-path="url(#SVGID_42_)" enable-background="new    ">
							<path fill="#8F0507" d="M443.396,545.451l-9.155-2.32c-2.532-6.986-3.997-11.447-4.385-13.394l9.155,2.32
								C439.399,534.004,440.864,538.465,443.396,545.451"/>
						</g>
					</g>
					<g>
						<polygon fill="#96080B" points="420.752,393.366 411.598,391.046 461.352,380.115 470.506,382.436 						"/>
					</g>
					<g>
						<polygon fill="#8B0304" points="383.85,613.845 374.695,611.524 411.598,391.046 420.752,393.366 						"/>
					</g>
					<g>
						<path fill="#D61920" d="M470.506,382.436c-0.361,6.057-0.504,14.642-0.447,25.746c0.131,26.526,1.114,49.819,2.933,69.871
							c1.023,11.492,2.5,20.738,4.457,27.736l19.005-114.347l49.468-10.048c-19.572,78.475-32.28,146.412-38.133,203.822
							l-45.418,13.498c-0.196-0.388-1.456-3.778-3.795-10.178l-15.18-43.086c-2.532-6.986-3.997-11.447-4.385-13.394
							c-3.918,23.065-6.978,45.435-9.171,67.108l-45.989,14.679l36.902-220.479L470.506,382.436z"/>
					</g>
				</g>
				<g enable-background="new    ">
					<g>
						<polygon fill="#8B0304" points="314.352,623.998 305.197,621.678 306.225,584.857 315.38,587.178 						"/>
					</g>
					<g>
						<polygon fill="#95070A" points="302.662,551.754 293.507,549.435 307.321,545.247 316.476,547.567 						"/>
					</g>
					<g>
						<polygon fill="#8B0304" points="316.476,547.567 307.321,545.247 310.634,434.031 319.789,436.352 						"/>
					</g>
					<g>
						<path fill="#D61920" d="M368.596,393.52c-4.666,59.805-2.915,129.827,5.243,210.066l-59.487,20.412l1.029-36.82l-18.863,5.738
							l-3.728,26.224l-59.364,15.407c21.569-75.615,38.018-148.059,49.353-217.359L368.596,393.52z M316.476,547.567l3.313-111.216
							l-0.291,0.037l-16.836,115.365L316.476,547.567"/>
					</g>
					<g enable-background="new    ">
						<defs>
							<path id="SVGID_43_" enable-background="new    " d="M233.425,634.547l-9.155-2.319
								c21.569-75.616,38.018-148.06,49.353-217.36l9.155,2.32C271.443,486.488,254.995,558.932,233.425,634.547z"/>
						</defs>
						<clipPath id="SVGID_44_">
							<use xlink:href="#SVGID_43_"  overflow="visible"/>
						</clipPath>
						<g clip-path="url(#SVGID_44_)" enable-background="new    ">
							<path fill="#8F0507" d="M233.425,634.547l-9.155-2.319c21.569-75.616,38.018-148.06,49.353-217.36l9.155,2.32
								C271.443,486.488,254.995,558.932,233.425,634.547"/>
						</g>
					</g>
					<g>
						<polygon fill="#96070B" points="282.778,417.188 273.624,414.868 359.441,391.2 368.596,393.52 						"/>
					</g>
					<g enable-background="new    ">
						<defs>
							<path id="SVGID_45_" enable-background="new    " d="M259.637,355.854c-3.052-0.773-6.103-1.547-9.155-2.32
								c1.151,0.292,2.344,0.506,3.579,0.645c1.013,0.105,2.02,0.14,3.018,0.104c2.361-0.085,4.68-0.566,6.959-1.445
								c9.359-3.585,16.624-14.371,21.775-32.346l9.155,2.32c-5.151,17.975-12.416,28.761-21.775,32.347
								c-2.278,0.879-4.598,1.359-6.959,1.445c-0.999,0.037-2.004,0.001-3.018-0.103
								C261.981,356.36,260.789,356.145,259.637,355.854z"/>
						</defs>
						<clipPath id="SVGID_46_">
							<use xlink:href="#SVGID_45_"  overflow="visible"/>
						</clipPath>
						<g clip-path="url(#SVGID_46_)" enable-background="new    ">
							<path fill="#9E0B0F" d="M259.637,355.854l-9.155-2.32c0.986,0.25,2.003,0.443,3.051,0.581l9.155,2.32
								C261.641,356.297,260.624,356.104,259.637,355.854"/>
							<path fill="#9A090D" d="M262.688,356.435l-9.155-2.32c0.175,0.023,0.351,0.044,0.528,0.064
								c1.013,0.105,2.02,0.14,3.018,0.104c0.554-0.02,1.105-0.062,1.655-0.125l9.155,2.32c-0.55,0.064-1.101,0.105-1.655,0.125
								c-0.999,0.037-2.004,0.001-3.018-0.103C263.04,356.479,262.864,356.458,262.688,356.435"/>
							<path fill="#96080B" d="M267.89,356.477l-9.155-2.32c1.486-0.172,2.955-0.503,4.408-0.995l9.155,2.32
								C270.844,355.973,269.375,356.305,267.89,356.477"/>
							<path fill="#920609" d="M272.297,355.481l-9.155-2.32c0.299-0.101,0.598-0.209,0.896-0.325
								c1.22-0.467,2.404-1.057,3.553-1.769l9.155,2.32c-1.149,0.712-2.333,1.302-3.554,1.77
								C272.896,355.272,272.597,355.38,272.297,355.481"/>
							<path fill="#8F0507" d="M276.747,353.388l-9.155-2.32c7.664-4.75,13.742-14.945,18.222-30.577l9.155,2.32
								C290.488,338.442,284.411,348.637,276.747,353.388"/>
						</g>
					</g>
					<g enable-background="new    ">
						<defs>
							<path id="SVGID_47_" enable-background="new    " d="M263.088,236.438c3.051,0.773,6.103,1.546,9.155,2.32
								c1.575,0.399,3.164,0.988,4.766,1.766l-9.155-2.32C266.251,237.426,264.663,236.837,263.088,236.438z"/>
						</defs>
						<clipPath id="SVGID_48_">
							<use xlink:href="#SVGID_47_"  overflow="visible"/>
						</clipPath>
						<g clip-path="url(#SVGID_48_)" enable-background="new    ">
							<path fill="#8F0507" d="M277.009,240.524l-9.155-2.32c-1.602-0.778-3.191-1.367-4.766-1.766l9.155,2.32
								C273.818,239.158,275.406,239.746,277.009,240.524"/>
						</g>
					</g>
					<g enable-background="new    ">
						<defs>
							<path id="SVGID_49_" enable-background="new    " d="M259.402,175.566c3.052,0.773,6.103,1.547,9.155,2.32
								c-3.681-0.933-7.415-1.331-11.201-1.193l-9.155-2.32C251.988,174.235,255.721,174.633,259.402,175.566z"/>
						</defs>
						<clipPath id="SVGID_50_">
							<use xlink:href="#SVGID_49_"  overflow="visible"/>
						</clipPath>
						<g clip-path="url(#SVGID_50_)" enable-background="new    ">
							<path fill="#9A090D" d="M257.356,176.692l-9.155-2.32c2.137-0.078,4.257,0.015,6.361,0.279l9.155,2.32
								C261.613,176.708,259.493,176.615,257.356,176.692"/>
							<path fill="#9E0B0F" d="M263.717,176.971l-9.155-2.32c1.624,0.203,3.237,0.508,4.84,0.915l9.155,2.32
								C266.954,177.479,265.34,177.175,263.717,176.971"/>
						</g>
					</g>
					<g enable-background="new    ">
						<defs>
							<path id="SVGID_51_" enable-background="new    " d="M245.911,404.975c-3.052-0.773-6.104-1.546-9.155-2.32
								c-8.968-2.272-17.565-7.73-25.793-16.373c-9.464-9.667-16.823-21.703-22.076-36.109c-3.849-10.581-6.579-22.317-8.197-35.209
								c-3.428-26.325-1.237-52.413,6.581-78.282c9.358-31.223,24.75-50.945,46.176-59.167c5.004-1.919,9.923-2.966,14.755-3.141
								l9.155,2.32c-4.832,0.176-9.751,1.222-14.756,3.141c-21.426,8.222-36.818,27.945-46.175,59.167
								c-7.818,25.869-10.009,51.958-6.581,78.282c1.618,12.893,4.348,24.629,8.197,35.209
								c5.253,14.406,12.611,26.442,22.076,36.109C228.346,397.245,236.943,402.703,245.911,404.975z"/>
						</defs>
						<clipPath id="SVGID_52_">
							<use xlink:href="#SVGID_51_"  overflow="visible"/>
						</clipPath>
						<g clip-path="url(#SVGID_52_)" enable-background="new    ">
							<path fill="#8F0507" d="M245.911,404.975l-9.155-2.32c-8.968-2.273-17.565-7.73-25.793-16.374
								c-9.464-9.667-16.823-21.703-22.076-36.109c-3.849-10.581-6.579-22.317-8.197-35.209
								c-3.428-26.325-1.237-52.413,6.581-78.282c7.809-26.056,19.821-44.103,36.035-54.141l9.155,2.32
								c-16.213,10.038-28.225,28.085-36.034,54.141c-7.818,25.869-10.009,51.958-6.581,78.282
								c1.618,12.893,4.348,24.629,8.197,35.209c5.253,14.406,12.611,26.442,22.076,36.109
								C228.346,397.245,236.943,402.703,245.911,404.975"/>
							<path fill="#920609" d="M232.459,184.86l-9.155-2.32c3.215-1.99,6.596-3.666,10.141-5.026
								c0.668-0.257,1.335-0.498,2.001-0.723l9.155,2.32c-0.666,0.225-1.333,0.466-2.001,0.722
								C239.055,181.194,235.675,182.87,232.459,184.86"/>
							<path fill="#96080B" d="M244.602,179.111l-9.155-2.32c3.205-1.084,6.375-1.808,9.509-2.171l9.155,2.32
								C250.977,177.303,247.807,178.026,244.602,179.111"/>
							<path fill="#9A090D" d="M254.111,176.94l-9.155-2.32c1.086-0.125,2.168-0.208,3.246-0.247l9.155,2.32
								C256.279,176.731,255.197,176.814,254.111,176.94"/>
						</g>
					</g>
					<g>
						<path fill="#D61920" d="M257.356,176.692c13.251-0.48,25.857,5.594,37.825,18.215l-18.172,45.617
							c-3.526-1.712-6.985-2.507-10.382-2.384c-2.132,0.077-4.24,0.516-6.325,1.317c-9.543,3.655-16.417,15.757-20.643,36.28
							c-3.48,16.926-4.323,31.795-2.53,44.618c0.792,6.141,2.033,11.492,3.686,16.045c4.452,12.223,11.916,18.922,22.402,20.099
							c1.014,0.104,2.02,0.14,3.018,0.103c2.361-0.085,4.681-0.566,6.959-1.445c9.359-3.586,16.624-14.372,21.775-32.347
							l20.494,29.232c-10.526,26.903-24.973,43.875-43.333,50.917c-5.109,1.959-10.115,3.027-15.018,3.205
							c-13.066,0.473-25.397-5.381-36.995-17.563c-9.464-9.667-16.823-21.703-22.076-36.109c-3.85-10.581-6.579-22.317-8.197-35.209
							c-3.428-26.325-1.237-52.413,6.581-78.282c9.357-31.223,24.75-50.945,46.175-59.167
							C247.605,177.915,252.524,176.868,257.356,176.692z"/>
					</g>
				</g>
				<g enable-background="new    ">
					<g>
						<polygon fill="#8B0304" points="169.048,649.82 159.893,647.5 153.013,519.198 162.167,521.519 						"/>
					</g>
					<g>
						<polygon fill="#8B0304" points="133.058,552.367 123.903,550.048 137.34,447.99 146.495,450.311 						"/>
					</g>
					<g>
						<polygon fill="#95070A" points="146.495,450.311 137.34,447.99 201.311,426.715 210.465,429.034 						"/>
					</g>
					<g>
						<polygon fill="#8B0304" points="113.01,676.421 103.855,674.101 98.569,493.013 107.724,495.333 						"/>
					</g>
					<g enable-background="new    ">
						<defs>
							<path id="SVGID_53_" enable-background="new    " d="M30.373,676.267l-9.155-2.32
								c16.741-69.792,27.241-139.845,31.503-210.165l9.155,2.32C57.614,536.422,47.113,606.474,30.373,676.267z"/>
						</defs>
						<clipPath id="SVGID_54_">
							<use xlink:href="#SVGID_53_"  overflow="visible"/>
						</clipPath>
						<g clip-path="url(#SVGID_54_)" enable-background="new    ">
							<path fill="#8F0507" d="M30.373,676.267l-9.155-2.32c16.741-69.792,27.241-139.845,31.503-210.165l9.155,2.32
								C57.614,536.422,47.113,606.474,30.373,676.267"/>
						</g>
					</g>
					<g>
						<path fill="#D61920" d="M210.465,429.034c0.707,64.07,4.482,121.365,11.318,171.931c1.356,10.032,2.701,19.967,4.034,29.811
							l-56.77,19.045l-6.88-128.302L143.8,667.437l-30.79,8.984l-5.286-181.088l-19.133,164.04l-58.218,16.894
							c16.74-69.793,27.241-139.845,31.502-210.165l66.641-21.382l4.542,107.647l13.437-102.057L210.465,429.034z"/>
					</g>
					<g>
						<polygon fill="#95070A" points="61.875,466.102 52.721,463.781 119.362,442.4 128.517,444.72 						"/>
					</g>
				</g>
			</g>
		</g>
	</g>
</g>
</svg>