<?xml version="1.0" encoding="UTF-8" standalone="no"?>
<!DOCTYPE svg PUBLIC "-//W3C//DTD SVG 1.1//EN" "http://www.w3.org/Graphics/SVG/1.1/DTD/svg11.dtd">
<svg xmlns="http://www.w3.org/2000/svg" xmlns:xlink="http://www.w3.org/1999/xlink" version="1.1"  viewBox="0 0 595.276 841.89">
<g enable-background="new">
<text fill="#444444" xml:space="preserve" transform="matrix(1 0 -0 1 0 841.89)" font-size="23.9103" font-family="Source Code Pro, sans-serif" font-weight="bold"><tspan y="-791.186" x="35.433 51.835466 69.648639 85.54899 92.38734 106.9248 120.93623 139.01242 153.90854 171.72171 186.0918">CHRISTOPHER</tspan></text>
<text fill="#444444" xml:space="preserve" transform="matrix(1 0 -0 1 0 841.89)" font-size="27.8954" font-family="Source Code Pro, sans-serif" font-weight="bold"><tspan y="-769.88198" x="35.433 52.198137 70.94385 92.228038 108.57474 129.66367">SANTOS</tspan></text>
<text fill="#444444" xml:space="preserve" transform="matrix(1 0 -0 1 0 841.89)" font-size="17.2154" font-family="Source Code Pro, sans-serif"><tspan y="-750.25698" x="35.433 44.987546 55.213495 59.896085 68.968608 79.315059 85.082218 94.46461 103.91586 117.429958 127.81084 137.84741 148.48653 152.23949 162.27606 172.3815 182.48694">FullStackEngineer</tspan></text>
<path transform="matrix(1,0,0,-1,225.914,51.374025)" d="M 0 0 L 17.933 0 L 17.933 17.933 L 0 17.933 Z " fill="#444444"/>
<text fill="#ffffff" xml:space="preserve" transform="matrix(1 0 -0 1 0 841.89)" font-size="11.9552" font-family="Font Awesome 5 Brands"><tspan y="-795.227" x="231.468"></tspan></text>
<text fill="#444444" xml:space="preserve" transform="matrix(1 0 -0 1 0 841.89)" font-size="9.9626" font-family="Source Code Pro, sans-serif"><tspan y="-796.282" x="249.516 256.63926 262.06889 264.77873 267.48857 272.91819 277.76997 283.78739 289.31666 295.2444 298.74128 304.6192 314.40248 320.3302 323.8271 327.16456 332.97276 337.7548 343.83198">Dallas/FortWorth,TX</tspan></text>
<path transform="matrix(1,0,0,-1,225.914,70.30304)" d="M 0 0 L 17.933 0 L 17.933 17.933 L 0 17.933 Z " fill="#444444"/>
<text fill="#ffffff" xml:space="preserve" transform="matrix(1 0 -0 1 0 841.89)" font-size="11.9552" font-family="Font Awesome 5 Brands"><tspan y="-775.876" x="230.188" class="fab"></tspan></text>
<text fill="#444444" xml:space="preserve" transform="matrix(1 0 -0 1 0 841.89)" font-size="9.9626" font-family="Source Code Pro, sans-serif"><tspan y="-776.99697" x="249.516 253.40142 260.08634 265.8746 272.5894 279.2743 285.18214 289.32658 297.87449 303.5432 309.55067 313.6951">+12018194615</tspan></text>
<path transform="matrix(1,0,0,-1,384.933,51.374025)" d="M 0 0 L 17.933 0 L 17.933 17.933 L 0 17.933 Z " fill="#444444"/>
<text fill="#ffffff" xml:space="preserve" transform="matrix(1 0 -0 1 0 841.89)" font-size="11.9552"><tspan y="-795.119" x="388.776" class="fab fa-github"></tspan></text>
<text fill="#444444" xml:space="preserve" transform="matrix(1 0 -0 1 0 841.89)" font-size="9.9626" font-family="Source Code Pro, sans-serif"><tspan y="-796.99" x="408.534 414.6909 416.86274 420.2002 426.0084 431.92619 438.0731 439.95603 445.3757 451.30345 460.45909 466.078 471.5475 477.35569 480.85258 483.0244 487.8762 494.0231 499.45274 505.3705 508.08036 512.9321 518.36178 524.1201 527.32809 533.2558">github.com/chrispaulsantos</tspan></text>
<path transform="matrix(1,0,0,-1,384.933,70.30304)" d="M 0 0 L 17.933 0 L 17.933 17.933 L 0 17.933 Z " fill="#444444"/>
<text fill="#ffffff" xml:space="preserve" transform="matrix(1 0 -0 1 0 841.89)" font-size="11.9552" font-family="Font Awesome 5 Brands"><tspan y="-776.262" x="388.776"></tspan></text>
<text fill="#444444" xml:space="preserve" transform="matrix(1 0 -0 1 0 841.89)" font-size="9.9626" font-family="Source Code Pro, sans-serif"><tspan y="-778.008" x="408.534 414.3422 420.19026 422.9001 425.60993 431.53767 439.87635 445.34584 451.15403 454.6509 456.82276 461.67454 467.82145 473.25108 479.16886 481.8787 486.73048 492.1601 497.9185 501.12644 507.05418 511.90596 513.7889 519.20858 525.1363">hello@chrispaulsantos.com</tspan></text>
<path transform="matrix(1,0,0,-1,35.433,120.42999)" d="M 0 0 L 64.757 0 L 64.757 13.24 L 0 13.24 Z " fill="#444444"/>
<text fill="#ffffff" xml:space="preserve" transform="matrix(1 0 -0 1 0 841.89)" font-size="9.9626" font-family="Source Code Pro, sans-serif" font-weight="bold"><tspan y="-724.518" x="38.422 44.140535 51.612485 57.43064 65.639827 71.69708 77.16655 83.602397 90.43674">FULLSTACK</tspan></text>
<text fill="#444444" xml:space="preserve" transform="matrix(1 0 -0 1 0 841.89)" font-size="9.9626" font-family="Source Code Pro, sans-serif" font-weight="bold"><tspan y="-704.059" x="35.433004 42.96473 49.002065 55.42794 61.39554 63.637125 66.23736">Node.js</tspan></text>
<text fill="#444444" xml:space="preserve" transform="matrix(1 0 -0 1 0 841.89)" font-size="9.9626" font-family="Source Code Pro, sans-serif"><tspan y="-704.059" x="79.399">/</tspan></text>
<text fill="#444444" xml:space="preserve" transform="matrix(1 0 -0 1 0 841.89)" font-size="9.9626" font-family="Source Code Pro, sans-serif" font-weight="bold"><tspan y="-704.059" x="91.085 97.77987 103.79728 110.11357 116.27046 119.428607 125.14713">Angular</tspan></text>
<text fill="#444444" xml:space="preserve" transform="matrix(1 0 -0 1 0 841.89)" font-size="9.9626" font-family="Source Code Pro, sans-serif"><tspan y="-704.059" x="137.213">/</tspan></text>
<text fill="#444444" xml:space="preserve" transform="matrix(1 0 -0 1 0 841.89)" font-size="9.9626" font-family="Source Code Pro, sans-serif" font-weight="bold"><tspan y="-704.059" x="148.9 153.7219 159.30095 164.6409 170.35944 175.31085 180.92977 184.7853 187.32576 193.57231">Javascript</tspan></text>
<text fill="#444444" xml:space="preserve" transform="matrix(1 0 -0 1 0 841.89)" font-size="9.9626" font-family="Source Code Pro, sans-serif"><tspan y="-704.059" x="205.607">/</tspan></text>
<text fill="#444444" xml:space="preserve" transform="matrix(1 0 -0 1 0 841.89)" font-size="9.9626" font-family="Source Code Pro, sans-serif" font-weight="bold"><tspan y="-704.059" x="217.29399 222.6738 228.15323 234.46952 240.4371 245.38852 251.00743 254.86296 257.4034 263.64997">Typescript</tspan><tspan y="-692.104" x="35.433 42.207567 47.926099 52.87751">Bash</tspan></text>
<text fill="#444444" xml:space="preserve" transform="matrix(1 0 -0 1 0 841.89)" font-size="9.9626" font-family="Source Code Pro, sans-serif"><tspan y="-692.104" x="67.104999">/</tspan></text>
<text fill="#444444" xml:space="preserve" transform="matrix(1 0 -0 1 0 841.89)" font-size="9.9626" font-family="Source Code Pro, sans-serif" font-weight="bold"><tspan y="-692.104" x="78.79099 84.997699 90.47713 94.302768 100.320178 106.35751">Python</tspan></text>
<text fill="#444444" xml:space="preserve" transform="matrix(1 0 -0 1 0 841.89)" font-size="9.9626" font-family="Source Code Pro, sans-serif"><tspan y="-692.104" x="120.58499">/</tspan></text>
<text fill="#444444" xml:space="preserve" transform="matrix(1 0 -0 1 0 841.89)" font-size="9.9626" font-family="Source Code Pro, sans-serif" font-weight="bold"><tspan y="-692.104" x="132.27199 137.09389 142.67295 148.0129">Java</tspan></text>
<text fill="#444444" xml:space="preserve" transform="matrix(1 0 -0 1 0 841.89)" font-size="9.9626" font-family="Source Code Pro, sans-serif"><tspan y="-692.104" x="161.941">/</tspan></text>
<text fill="#444444" xml:space="preserve" transform="matrix(1 0 -0 1 0 841.89)" font-size="9.9626" font-family="Source Code Pro, sans-serif" font-weight="bold"><tspan y="-692.104" x="173.62799 180.85088">Go</tspan><tspan y="-680.149" x="35.432985 41.55002 47.587354 52.538766 56.23489 62.551179 66.14768 74.5063 80.61337 88.13514">PostgreSQL</tspan></text>
<text fill="#444444" xml:space="preserve" transform="matrix(1 0 -0 1 0 841.89)" font-size="9.9626" font-family="Source Code Pro, sans-serif"><tspan y="-680.149" x="102.16299">/</tspan></text>
<text fill="#444444" xml:space="preserve" transform="matrix(1 0 -0 1 0 841.89)" font-size="9.9626" font-family="Source Code Pro, sans-serif" font-weight="bold"><tspan y="-680.149" x="113.84999 122.467639 127.94707 134.05414 141.5759">MySQL</tspan></text>
<text fill="#444444" xml:space="preserve" transform="matrix(1 0 -0 1 0 841.89)" font-size="9.9626" font-family="Source Code Pro, sans-serif"><tspan y="-680.149" x="155.60399">/</tspan></text>
<text fill="#444444" xml:space="preserve" transform="matrix(1 0 -0 1 0 841.89)" font-size="9.9626" font-family="Source Code Pro, sans-serif" font-weight="bold"><tspan y="-680.149" x="167.29099 175.8389 181.87624 187.89365 194.20993 200.17754 207.31076">MongoDB</tspan></text>
<path transform="matrix(1,0,0,-1,350.082,120.42999)" d="M 0 0 L 45.42 0 L 45.42 13.24 L 0 13.24 Z " fill="#444444"/>
<text fill="#ffffff" xml:space="preserve" transform="matrix(1 0 -0 1 0 841.89)" font-size="9.9626" font-family="Source Code Pro, sans-serif" font-weight="bold"><tspan y="-724.518" x="353.071 360.20423 366.19175 372.66743 380.19917 386.40586">DEVOPS</tspan></text>
<text fill="#444444" xml:space="preserve" transform="matrix(1 0 -0 1 0 841.89)" font-size="9.9626" font-family="Source Code Pro, sans-serif" font-weight="bold"><tspan y="-704.059" x="350.082 356.16914 366.4904">AWS</tspan></text>
<text fill="#444444" xml:space="preserve" transform="matrix(1 0 -0 1 0 841.89)" font-size="9.9626" font-family="Source Code Pro, sans-serif"><tspan y="-704.059" x="380.807">/</tspan></text>
<text fill="#444444" xml:space="preserve" transform="matrix(1 0 -0 1 0 841.89)" font-size="9.9626" font-family="Source Code Pro, sans-serif" font-weight="bold"><tspan y="-704.059" x="392.49403 399.62724 405.66456 411.28346 416.5736 422.5412">Docker</tspan></text>
<text fill="#444444" xml:space="preserve" transform="matrix(1 0 -0 1 0 841.89)" font-size="9.9626" font-family="Source Code Pro, sans-serif"><tspan y="-704.059" x="434.60603">/</tspan></text>
<text fill="#444444" xml:space="preserve" transform="matrix(1 0 -0 1 0 841.89)" font-size="9.9626" font-family="Source Code Pro, sans-serif" font-weight="bold"><tspan y="-704.059" x="446.29304 451.10496 457.07255 463.08998 468.6491 471.18959 477.207">Jenkins</tspan></text>
<text fill="#444444" xml:space="preserve" transform="matrix(1 0 -0 1 0 841.89)" font-size="9.9626" font-family="Source Code Pro, sans-serif"><tspan y="-704.059" x="490.36805">/</tspan></text>
<text fill="#444444" xml:space="preserve" transform="matrix(1 0 -0 1 0 841.89)" font-size="9.9626" font-family="Source Code Pro, sans-serif" font-weight="bold"><tspan y="-704.059" x="502.05506 508.55067 514.7075 521.0238 526.9914 530.8469 536.8643 542.79208 546.48818 552.45578">Kubernetes</tspan><tspan y="-692.104" x="350.08204 355.15299 358.93879 364.51786 369.98735 372.5278 379.87025 386.7046">TravisCI</tspan></text>
<path transform="matrix(1,0,0,-1,35.433,186.763)" d="M 0 0 L 59.208 0 L 59.208 13.24 L 0 13.24 Z " fill="#444444"/>
<text fill="#ffffff" xml:space="preserve" transform="matrix(1 0 -0 1 0 841.89)" font-size="9.9626" font-family="Source Code Pro, sans-serif" font-weight="bold"><tspan y="-658.186" x="38.422 48.91262 56.33476 66.25751 72.95238 83.961048 86.81035">WHOAMI?</tspan></text>
<text fill="#444444" xml:space="preserve" transform="matrix(1 0 -0 1 0 841.89)" font-size="9.9626" font-family="Source Code Pro, sans-serif"><tspan y="-639.639" x="35.433004 40.952287 46.381906 58.59605 67.07422 73.221149 79.13893 81.310779 84.0206 90.21734 96.065387 99.10397 105.490009 114.2272 122.68545 128.83237 134.26198 139.11377 143.96556 146.1374 152.06516 160.9219 166.7301 172.15972 180.07003 185.49964 188.09987 196.06995 201.37004 206.65023 214.55057 220.6975 226.54555 232.3936 241.26032 244.46826 253.44457 259.5915 265.50929 267.68113 270.39097 279.64625 285.07588 290.76454 296.16426 299.5017 305.3099 307.48176 313.28996 322.4954 327.92503 333.73323 342.9885 348.69709 353.82783 359.67588 363.17277 368.57249 371.90995 377.71815 379.88999 385.69819 391.85508 398.2411 408.66197 414.47016 420.3182 429.17497 434.70423 442.67433 448.10395 456.00428 461.22468 467.1524 473.0702 478.8784 485.03529 490.88334 493.92195 499.35154 501.52339 507.9094 515.87948 521.3091 529.2194 534.81838 540.6664 546.82327 552.751 557.6028">Iamabuilder.Mypassionhasalwaysbeentobuildanythingandeverything.WhenIwasyounger,itwasLegos,</tspan><tspan y="-627.68399" x="35.433004 40.862619 46.670816 55.965925 61.77412 67.51257 78.71053 80.88238 87.318218 89.49006 97.44021 102.909679 108.82746 113.679248 116.8872 122.81495 135.05899 137.76882 139.94066 146.09755 151.85593 158.29177 163.31291 168.33406 171.67154 177.58933 180.82717 186.67522 194.62538 197.654 203.58176 210.177 219.21308 227.71118 233.51938 239.44713 245.36492 250.2167 256.06477 261.5442 267.6911 271.188 273.35984 279.11824 282.32618 288.17424 297.46934 302.9388 305.11067 308.3485 313.818 319.73579 321.90763 328.3335 334.4804 340.40815 345.83778 349.07563 355.27238 363.2225 366.25114 372.17887 378.7741 387.8102 396.3083 401.43904 407.28709 413.44398 419.25218 422.58964 428.01927 434.16618 436.876 445.82243 451.9793 457.40895 460.6468 466.84355 472.6916 481.59815 486.44993 492.59684 496.09373 498.26557 504.07377 509.35395 512.0638 517.9118 524.5071 529.2593 534.5394 539.39126 542.5992 548.4472 557.60287">andnowitiscustomlightfxturesformyhouse,printedcircuitboardsformyvegetablegardensprinklersystem,</tspan><tspan y="-615.72897" x="35.433004 40.862619 46.670816 56.254838 59.542497 65.46028 68.170108 74.26721 79.118999 82.45647 87.886089 93.35555 102.02301 106.874797 112.72284 116.0105 119.34797 127.31805 132.74767 135.9855 145.22084 148.24947 154.17722 161.06137 170.217 175.6466 181.4548 186.88442 193.0413 195.21315 201.02135 210.56552 219.6016 228.38861 233.80826 239.73601 248.89163 251.06348 259.92027 265.33995 271.26768 273.9775 276.68736 282.5354 288.00489 291.34236 293.5142 299.44194 305.25013 312.63243 318.49046 323.92008 336.463 345.27995 351.42686 357.2749 360.7718 363.8004 369.64848 375.11796 378.4554 380.62727 386.555 392.3632 394.53504 399.3868 402.72428 408.56236 413.99198 419.80018 429.38423 435.24226 441.38917 447.30696 454.0317 463.0678 471.85484 477.66304 483.51109 488.9407 492.4376 499.16236 504.59199 510.40019 519.9842 524.836 530.76376 536.6815 542.7786 544.9505 550.70889 553.9168">andfullstacksoftwareformanagingmycomiccollection.Iamaperfectionist,andIputmyheartandsoulinto</tspan><tspan y="-603.7739" x="35.433004 41.14157 46.272314 52.120359 55.61723 61.01696 64.35443 70.16263 72.33447 78.14267 86.84003 91.85122 97.998149 103.91593 106.087779 108.7976 117.534809 120.06531 125.285709 131.13376 135.98555 140.76761 146.47618 151.60694 157.45499 165.80365 170.65544 173.99292 176.16477 178.87459 184.12488 189.72386 195.57192 201.7288 207.65656 212.50835 215.17833">everythingIbuild(yes,evenstillLegos).</tspan></text>
<path transform="matrix(1,0,0,-1,35.433,267.143)" d="M 0 0 L 66.481 0 L 66.481 13.24 L 0 13.24 Z " fill="#444444"/>
<text fill="#ffffff" xml:space="preserve" transform="matrix(1 0 -0 1 0 841.89)" font-size="9.9626" font-family="Source Code Pro, sans-serif" font-weight="bold"><tspan y="-577.806" x="38.422 44.409524 50.845365 57.052064 63.039587 69.66471 72.514019 78.50154 86.103008 92.93735">EXPERIENCE</tspan></text>
<text fill="#444444" xml:space="preserve" transform="matrix(1 0 -0 1 0 841.89)" font-size="9.9626" font-family="Source Code Pro, sans-serif"><tspan y="-557.875" x="35.433004 42.24742 47.91614 53.93355 59.721826 66.53624 72.32451">04/2020</tspan></text>
<text fill="#444444" xml:space="preserve" transform="matrix(1 0 -0 1 0 841.89)" font-size="7.9701" font-family="Source Code Pro, sans-serif"><tspan y="-548.41" x="35.433004 40.390405 42.980688 47.659135 51.540575 56.21902 60.825738">Present</tspan></text>
<text fill="#444444" xml:space="preserve" transform="matrix(1 0 -0 1 0 841.89)" font-size="9.9626" font-family="Source Code Pro, sans-serif" font-weight="bold"><tspan y="-557.875" x="127.20601 133.31308 139.27072 142.95688 146.78252 155.01163 160.73017 164.32666 172.68527 179.8185 185.6466 190.93675 196.90435 200.06249 206.09983 212.4161 221.69129 227.65888 233.62647 239.84313 245.77088 251.78829 258.10459 260.64506 266.66249 272.63008 278.59767 284.8442">SoftwareDevelopmentEngineerI</tspan></text>
<text fill="#444444" xml:space="preserve" transform="matrix(1 0 -0 1 0 841.89)" font-size="7.9701" font-family="Source Code Pro, sans-serif" font-weight="bold"><tspan y="-557.875" x="529.03 534.3859 541.8061 546.3809 550.1986 555.0285">Amazon</tspan><tspan y="-545.919" x="522.12808 527.83468 532.4095 534.93606 537.4626 542.0374 545.99856 549.76046 554.6939">Dallas,TX</tspan></text>
<text fill="#444444" xml:space="preserve" transform="matrix(1 0 -0 1 0 841.89)" font-size="9.9626" font-family="CMSY10" font-style="italic"><tspan y="-533.964" x="127.206058">&#x2022;</tspan></text>
<text fill="#444444" xml:space="preserve" transform="matrix(1 0 -0 1 0 841.89)" font-size="9.9626" font-family="Source Code Pro, sans-serif"><tspan y="-533.964" x="140.15805 145.68729 151.60507 154.3149 159.56519 164.41698 167.75446 173.18407 178.65354 186.47418 192.32224 198.13043 204.28733 206.45917 212.26737 218.11542 223.96347 230.00081 233.02944 238.95719 244.99452 247.16637 252.92475 256.1327 261.98075 265.47764 271.28584 276.71546 281.96577 286.81755 292.24717 294.957 300.80506 308.1973 314.39405 319.7838 323.12129 331.09138 336.521 342.6679 348.81483 351.52467 353.6965 359.166 364.55577 367.89323 370.06507 375.9928 381.801">Fullstackengineerforinternalsalesdataapplications</tspan></text>
<text fill="#444444" xml:space="preserve" transform="matrix(1 0 -0 1 0 841.89)" font-size="9.9626" font-family="CMSY10" font-style="italic"><tspan y="-522.009" x="127.206058">&#x2022;</tspan></text>
<text fill="#444444" xml:space="preserve" transform="matrix(1 0 -0 1 0 841.89)" font-size="9.9626" font-family="Source Code Pro, sans-serif"><tspan y="-522.009" x="140.15805 146.79314 152.71092 154.88277 157.59259 163.47052 171.4406 177.63733 183.02709 186.36457 194.33464 202.30472 207.73433 210.97217 216.82022 222.62842 228.55617 234.47396 239.32575 247.71427 253.14388 260.53614 268.50624 273.358 279.20606 282.70295 288.013 290.18486 295.60453 303.99305 307.201 315.6692 317.84104 323.64924 329.1187 332.35658 338.20463 343.63426 348.48603 356.87455 361.72633 367.57438 373.04386 378.96165 382.45854 384.63038 387.96784 395.90803 401.33766 407.14585 415.88307 419.1209 424.96897 431.1657 437.0835 442.50318 450.8917 456.36119 462.27897 467.13075 470.33869 476.26643 485.42207 491.2701 497.30747 503.45439 508.884 511.05586">Builtadatawarehouseasaservicetoincreasesecurityandreducecustomerpain</tspan><tspan y="-489.72999" x="35.433053 42.24747 48.10548 54.12289 59.911165 66.62595 70.77039">09/2018</tspan></text>
<text fill="#444444" xml:space="preserve" transform="matrix(1 0 -0 1 0 841.89)" font-size="7.9701" font-family="Source Code Pro, sans-serif"><tspan y="-480.266" x="35.433053 40.390455 42.980737 47.659185 51.540624 56.21907 60.825788">Present</tspan></text>
<text fill="#444444" xml:space="preserve" transform="matrix(1 0 -0 1 0 841.89)" font-size="9.9626" font-family="Source Code Pro, sans-serif" font-weight="bold"><tspan y="-489.72999" x="127.206058 134.0404 140.05782 142.59828 148.51605 154.59323 159.62435 165.59194 171.21085 177.22826 183.24567 189.283 192.44115 198.47849 204.79477 212.66522 220.19695 228.47586 234.04496 240.01255 246.2591 255.604 260.98384 267.02116 273.17805 279.19548 285.62135 291.58894">ChiefTechnologyOfficer/Founder</tspan></text>
<text fill="#444444" xml:space="preserve" transform="matrix(1 0 -0 1 0 841.89)" font-size="7.9701" font-family="Source Code Pro, sans-serif" font-weight="bold"><tspan y="-489.72999" x="495.94606 500.7839 503.7408 508.5707 511.65516 516.0387 518.9956 523.7697 526.29629 528.8228 533.5969 536.68136 540.64248 544.40438 549.0589 553.71347 558.0492">Storytellers,LLP.</tspan><tspan y="-477.775" x="515.84 521.8654 526.52798 535.1277 538.97726 543.75137 546.83578 550.7969 555.4594">NewJersey</tspan></text>
<text fill="#444444" xml:space="preserve" transform="matrix(1 0 -0 1 0 841.89)" font-size="9.9626" font-family="CMSY10" font-style="italic"><tspan y="-465.82" x="127.206027">&#x2022;</tspan></text>
<text fill="#444444" xml:space="preserve" transform="matrix(1 0 -0 1 0 841.89)" font-size="9.9626" font-family="Source Code Pro, sans-serif"><tspan y="-465.82" x="140.15802 145.68726 151.60504 154.31487 159.56516 164.41695 167.75443 173.18404 178.6535 186.47415 192.3222 198.1304 204.2873 206.45914 212.26734 218.11539 223.96344 230.00078 233.0294 238.95716 244.99449 247.16634 252.92472 256.13267 261.9807 265.4776 271.2858 276.71543 281.96574 287.39537 293.20356 301.94078 307.59953 312.62068 315.8286 321.67668 325.17356 330.98176 336.41139 341.66169 347.8086 351.04646 356.97419 359.21577 365.0638 370.5333 373.87077">Fullstackengineerforinternalandexternalprojects</tspan></text>
<text fill="#444444" xml:space="preserve" transform="matrix(1 0 -0 1 0 841.89)" font-size="9.9626" font-family="CMSY10" font-style="italic"><tspan y="-453.86503" x="127.206027">&#x2022;</tspan></text>
<text fill="#444444" xml:space="preserve" transform="matrix(1 0 -0 1 0 841.89)" font-size="9.9626" font-family="Source Code Pro, sans-serif"><tspan y="-453.86503" x="140.15802 147.28128 152.98986 158.1206 163.96866 166.67848 172.60623 178.75316 186.14542 191.57503 197.38323 206.12042 209.32837 215.17642 220.02822 223.36569 230.75795 239.91358 245.84133 251.98825 254.1601 256.86994 265.25846 270.68809 276.49629 285.2335 288.47135 294.3194 299.17118 305.31809 311.24583 317.05403 321.9058 324.07765 329.20838 337.5969 345.50718 351.35523 360.0426 365.47224 371.61915 377.76606 380.4759 382.64775 388.11723 393.507 396.84446 399.0163 404.94404 410.75224">Developsandtestsmobileandresponsivewebapplications</tspan></text>
<text fill="#444444" xml:space="preserve" transform="matrix(1 0 -0 1 0 841.89)" font-size="9.9626" font-family="CMSY10" font-style="italic"><tspan y="-441.90904" x="127.206027">&#x2022;</tspan></text>
<text fill="#444444" xml:space="preserve" transform="matrix(1 0 -0 1 0 841.89)" font-size="9.9626" font-family="Source Code Pro, sans-serif"><tspan y="-441.90904" x="140.15802 147.28128 153.12934 159.27626 161.98609 167.73451 173.0147 180.40695 186.55388 189.79172 195.71947 201.9162 207.83399 213.30345 216.64093 224.03319 229.96094 238.3096 243.77907 246.48889 252.41664 258.3344 267.07164 273.21855 275.92839 281.31816 284.6556 287.68424 293.61198 297.10887 306.2645">Deploysproductsoncloudplatforms</tspan></text>
<text fill="#444444" xml:space="preserve" transform="matrix(1 0 -0 1 0 841.89)" font-size="9.9626" font-family="CMSY10" font-style="italic"><tspan y="-429.95405" x="127.206027">&#x2022;</tspan></text>
<text fill="#444444" xml:space="preserve" transform="matrix(1 0 -0 1 0 841.89)" font-size="9.9626" font-family="Source Code Pro, sans-serif"><tspan y="-429.95405" x="140.15802 146.77318 152.69097 155.89893 161.82668 170.9823 176.37206 179.58002 185.42807 192.82033 198.96726 204.88504 207.05689 209.76671 218.5039 223.93352 229.74172 238.47891 244.67565 250.5237 256.67063 259.38047 265.12889 270.5286 279.68424 285.5323 291.29069 297.1686 303.31553 306.55339 312.4811 317.9008 323.74885 328.60063">Automatesbuildanddeploymentprocess</tspan></text>
<text fill="#444444" xml:space="preserve" transform="matrix(1 0 -0 1 0 841.89)" font-size="9.9626" font-family="CMSY10" font-style="italic"><tspan y="-417.99906" x="127.206027">&#x2022;</tspan></text>
<text fill="#444444" xml:space="preserve" transform="matrix(1 0 -0 1 0 841.89)" font-size="9.9626" font-family="Source Code Pro, sans-serif"><tspan y="-417.99906" x="140.15802 146.51416 152.36222 157.214 163.36093 169.28868 175.09688 179.94867 182.12052 188.26744 190.97727 199.36579 202.39441 208.32216 214.3595 219.77915 225.7069 234.86252 244.01815 249.93593 255.74413 257.916 263.38548 268.77525 272.1127 274.28456 280.09275 288.7901 296.8897 299.06156 302.39903 310.74769 315.59947 318.93693 324.36656 329.37776 335.2258 341.034 346.96174 349.67158 355.86833 361.71638 365.21327 372.6055 378.03514 383.84333 392.58055 398.72746 404.58546 407.7934 413.64146 419.39985 422.7373 424.90916 430.33879 435.58909 437.76094 443.4496 448.58033 454.42839 459.28016 462.4881 468.41584 471.91273">Responsibleforcommunicatingwithstakeholdersandpotentialinvestors</tspan><tspan y="-395.45405" x="35.43302 41.97845 46.36199 52.379404 58.16767 64.88246 69.0269">07/2019</tspan><tspan y="-383.49906" x="35.43302 42.24744 47.91616 53.93357 59.72184 66.536258 72.324527">04/2020</tspan></text>
<text fill="#444444" xml:space="preserve" transform="matrix(1 0 -0 1 0 841.89)" font-size="9.9626" font-family="Source Code Pro, sans-serif" font-weight="bold"><tspan y="-395.45405" x="127.206027 133.3131 139.27074 142.9569 146.78253 155.01165 160.73018 164.32668 172.68529 178.61304 184.63045 190.94673 193.4872 199.50461 205.4722 211.43979">SoftwareEngineer</tspan></text>
<text fill="#444444" xml:space="preserve" transform="matrix(1 0 -0 1 0 841.89)" font-size="7.9701" font-family="Source Code Pro, sans-serif" font-weight="bold"><tspan y="-395.45405" x="482.38905 486.96388 488.99626 494.13697 498.91105 501.43757 503.46995 506.53047 512.82687 515.10629 519.8246 524.05679 528.8309 532.792 535.85256 543.2727 548.0468 552.8209 555.8815">FidelityInvestments</tspan><tspan y="-383.49906" x="510.21305 518.09548 522.86959 526.8307 529.89126 532.4178 536.9926 541.22476 545.99887 549.76077 554.6942">Westlake,TX</tspan></text>
<text fill="#444444" xml:space="preserve" transform="matrix(1 0 -0 1 0 841.89)" font-size="9.9626" font-family="CMSY10" font-style="italic"><tspan y="-371.54307" x="127.206058">&#x2022;</tspan></text>
<text fill="#444444" xml:space="preserve" transform="matrix(1 0 -0 1 0 841.89)" font-size="9.9626" font-family="Source Code Pro, sans-serif"><tspan y="-371.54307" x="140.15805 145.68729 151.60507 154.3149 159.56519 164.41698 167.75446 173.18407 178.65354 186.47418 192.32224 198.13043 204.28733 206.45917 212.26737 218.11542 223.96347 230.00081 233.23865 239.0867 243.93849 250.08542 256.01316 261.82136 266.67314 268.84498 274.99189 277.70173 286.09025 289.11888 295.0466 301.08396 307.2807 312.9893 318.12004 323.96809 326.67793 332.60566 338.75257 340.9244 346.7326 355.42997 364.5856 370.43367 376.6304 378.80226 384.72004 396.41615 399.62409 408.0923 410.80213 416.23176 419.4696 425.6265 431.47456 435.67878 440.53056 446.00004 451.42967 454.1395 462.528 467.95765 474.10456 480.25148 482.9613 485.13316 490.60264 495.9924 499.32987 501.5017 507.42945 513.2376">Fullstackengineerresponsiblefordevelopingmediumtolarge-scaleapplications</tspan></text>
<text fill="#444444" xml:space="preserve" transform="matrix(1 0 -0 1 0 841.89)" font-size="9.9626" font-family="CMSY10" font-style="italic"><tspan y="-359.58808" x="127.206058">&#x2022;</tspan></text>
<text fill="#444444" xml:space="preserve" transform="matrix(1 0 -0 1 0 841.89)" font-size="9.9626" font-family="Source Code Pro, sans-serif"><tspan y="-359.58808" x="140.15805 146.51419 152.36225 157.21404 163.36096 169.28871 175.09691 179.9487 182.12055 188.26747 190.9773 199.36582 202.39444 208.32219 214.35953 223.51515 228.94477 234.22495 236.39679 242.20499 250.90235 256.33198 259.56983 265.0393 270.8475 273.01936 276.2273 282.07536 287.54484 290.8823 296.80009 300.22724 305.65687 310.90718 317.1039 322.95198 328.42146 330.5933 335.44508 337.6169 343.54466 349.35285 356.7451 359.7737 365.70146 371.7388 377.8857 381.12358 387.0513 389.29289 395.14094 400.6104 403.94789">Responsibleformakingarchitecturaldecisionsforprojects</tspan></text>
<text fill="#444444" xml:space="preserve" transform="matrix(1 0 -0 1 0 841.89)" font-size="9.9626" font-family="CMSY10" font-style="italic"><tspan y="-347.6331" x="127.206058">&#x2022;</tspan></text>
<text fill="#444444" xml:space="preserve" transform="matrix(1 0 -0 1 0 841.89)" font-size="9.9626" font-family="Source Code Pro, sans-serif"><tspan y="-347.6331" x="140.15805 146.9924 152.92015 162.07578 171.2314 177.14919 182.95738 185.12923 190.5987 195.98845 199.19641 205.04447 212.43672 220.53632 222.70816 226.04563 234.39429 239.86376 245.78154 250.63333 253.84128 259.769 268.92466 274.7727 278.2696 285.66184 291.09147 296.89967 305.63688 311.05656 316.98429 322.91203 326.14988 332.34663 334.51847 340.32667 345.71644 348.92439 354.77244 362.16468 368.31159 371.54945 377.47718 383.67393 389.5917 395.0612 400.93913 407.13587 412.98393 415.69377 417.8656 422.99635 428.8444 432.34129">Communicateswithcustomersandcoordinatesproductdelivery</tspan></text>
<text fill="#444444" xml:space="preserve" transform="matrix(1 0 -0 1 0 841.89)" font-size="9.9626" font-family="CMSY10" font-style="italic"><tspan y="-335.6781" x="127.206058">&#x2022;</tspan></text>
<text fill="#444444" xml:space="preserve" transform="matrix(1 0 -0 1 0 841.89)" font-size="9.9626" font-family="Source Code Pro, sans-serif"><tspan y="-335.6781" x="140.15805 146.9924 152.92015 155.62998 158.3398 163.76941 169.91634 175.84409 179.27123 184.66098 187.86893 193.71698 201.10924 209.20883 211.38068 214.71814 223.0668 226.27475 232.1228 237.55242 249.2485 258.40415 264.2522 273.40785 279.55476 285.4028 288.8997 296.29194 301.72157 307.52976 316.26698 321.73646 327.65425 332.506 335.71397 341.6417 350.79734 356.6454 360.14228 367.53453 369.70637 378.05503 386.02513 392.22187 397.62159 403.42979 408.8594 418.01506 420.1869 425.65638 430.43843 433.64637 439.076 443.92778 447.17558 451.3798 457.5267 462.95634 468.376 474.22407 482.96128 488.80934 494.498 499.80805 501.9799 505.21775 511.14549 516.9537 526.1093 531.95736 537.7157">Collaborateswithteammembersandcustomersinadynamic,fast-pacedenvironment</tspan><tspan y="-303.3991" x="35.433053 42.147848 46.29229 52.3097 58.09797 64.81276 68.9572">01/2018</tspan><tspan y="-291.44413" x="35.433053 41.97848 46.362024 52.379434 58.1677 64.88249 69.02693">07/2019</tspan></text>
<text fill="#444444" xml:space="preserve" transform="matrix(1 0 -0 1 0 841.89)" font-size="9.9626" font-family="Source Code Pro, sans-serif" font-weight="bold"><tspan y="-303.3991" x="127.206058 133.84116 138.79257 143.74399 149.78133 155.40024 157.9407 163.61939 167.3155 175.67412 181.78119 187.73883 191.42499 195.25063 203.47974 209.19828 212.79477 221.15338 227.08113 233.09854 239.41483 241.95529 247.9727 253.94029 259.9079">AssociateSoftwareEngineer</tspan></text>
<text fill="#444444" xml:space="preserve" transform="matrix(1 0 -0 1 0 841.89)" font-size="7.9701" font-family="Source Code Pro, sans-serif" font-weight="bold"><tspan y="-303.3991" x="482.38908 486.9639 488.99629 494.137 498.91108 501.4376 503.46998 506.5305 512.82687 515.10629 519.8246 524.05679 528.8309 532.792 535.85256 543.2727 548.0468 552.8209 555.8815">FidelityInvestments</tspan><tspan y="-291.44413" x="510.21308 518.0955 522.8696 526.83078 529.8913 532.41787 536.9927 541.2248 545.9989 549.7608 554.6943">Westlake,TX</tspan></text>
<text fill="#444444" xml:space="preserve" transform="matrix(1 0 -0 1 0 841.89)" font-size="9.9626" font-family="CMSY10" font-style="italic"><tspan y="-279.48915" x="127.206089">&#x2022;</tspan></text>
<text fill="#444444" xml:space="preserve" transform="matrix(1 0 -0 1 0 841.89)" font-size="9.9626" font-family="Source Code Pro, sans-serif"><tspan y="-279.48915" x="140.15808 147.28134 152.98992 158.12067 163.96872 166.67855 172.6063 178.75322 186.14548 192.2924 195.53025 201.458 207.65473 213.57251 219.04198 222.37946 229.77172 235.6895 240.54129 242.71314 248.52133 257.2187 260.55616 266.36436 274.75288 281.33815 287.49504 289.66688 292.3767 300.76524 303.47508 305.6469 308.67555 317.06407 322.4638 327.6842 333.1537 335.86354">DevelopsproductsusingtheAgilelifecycle</tspan></text>
<text fill="#444444" xml:space="preserve" transform="matrix(1 0 -0 1 0 841.89)" font-size="9.9626" font-family="CMSY10" font-style="italic"><tspan y="-267.53315" x="127.206089">&#x2022;</tspan></text>
<text fill="#444444" xml:space="preserve" transform="matrix(1 0 -0 1 0 841.89)" font-size="9.9626" font-family="Source Code Pro, sans-serif"><tspan y="-267.53315" x="140.15808 149.94136 155.86911 159.36598 164.64617 172.03842 180.13802 182.30986 185.64734 193.996 196.16785 201.92623 205.13419 210.98224 214.47911 220.28731 225.71692 230.96721 236.43668 239.1465 245.07425 250.99204 259.72926 265.87617 268.586 273.97578 277.31324 280.34187 286.2696 289.76649 301.4626 304.67054 313.13874 319.33549 325.18354 331.33045 334.04029 339.7887 347.72889 353.1585 359.30543 365.45234 368.16218 370.334 375.8035 381.19328 384.53074 386.70259 392.6303 398.4385">Workswithinternalcloudplatformtodeployapplications</tspan></text>
<text fill="#444444" xml:space="preserve" transform="matrix(1 0 -0 1 0 841.89)" font-size="9.9626" font-family="CMSY10" font-style="italic"><tspan y="-255.57814" x="127.206089">&#x2022;</tspan></text>
<text fill="#444444" xml:space="preserve" transform="matrix(1 0 -0 1 0 841.89)" font-size="9.9626" font-family="Source Code Pro, sans-serif"><tspan y="-255.57814" x="140.15808 147.28134 152.98992 158.12067 163.96872 166.67855 172.6063 178.75322 184.60128 193.28865 196.57631 200.00345 205.43306 214.58869 220.29726 228.20757 234.13532 237.63219 245.39305 248.60102 257.0194 262.44905 268.36683 271.57478 277.5025 286.65815 292.0479 295.25587 303.5846 309.05409 312.29194 318.13999 323.52976 326.86723 329.03907 334.9668 343.26567 349.11369 354.88203 361.02894 366.95668 369.1285 371.83836 377.6864 381.1833 387.3302 390.04005 395.4298 398.63777 406.97648 412.39616 418.32389 424.52064 432.84938 435.878 441.80574 447.79328 452.64506 458.4931 461.99 467.12074 472.96879 476.03727 480.2415 485.09327 487.2651 493.46186 501.7906 507.2202 513.3671 519.51406 522.2239 524.39578 529.86526 535.255 538.59249 540.76437 546.6921 552.50027">Developedframeworktoautomatecreationofboilerplatecodeforserver-sideapplications</tspan></text>
<path transform="matrix(1,0,0,-1,35.433,611.786)" d="M 0 0 L 63.452 0 L 63.452 13.24 L 0 13.24 Z " fill="#444444"/>
<text fill="#ffffff" xml:space="preserve" transform="matrix(1 0 -0 1 0 841.89)" font-size="9.9626" font-family="Source Code Pro, sans-serif" font-weight="bold"><tspan y="-233.163" x="38.422 44.409524 51.542745 59.014696 65.74941 71.7469 77.91375 80.763057 88.29478">EDUCATION</tspan></text>
<text fill="#444444" xml:space="preserve" transform="matrix(1 0 -0 1 0 841.89)" font-size="9.9626" font-family="Source Code Pro, sans-serif"><tspan y="-213.232" x="35.433004 41.221277 47.93607 52.080514 60.62842 68.84757 74.63584 81.45026 87.238529">2019&#x2013;2021</tspan></text>
<text fill="#444444" xml:space="preserve" transform="matrix(1 0 -0 1 0 841.89)" font-size="9.9626" font-family="Source Code Pro, sans-serif" font-weight="bold"><tspan y="-213.232" x="127.20601 135.77384 141.49237 146.44379 150.13991 156.1075 162.35405 168.31169 174.38887 180.49594 186.11486 188.65532 194.62291 200.64032 206.20941 214.56803 222.96649 229.07357 235.0312 238.71736 242.543 250.77211 256.49064 260.08714 268.44575 275.57896 281.40708 286.69725 292.66484 295.82298 301.8603 308.17658 317.45176 323.41935 329.38697">MasterofScience&#x2013;SoftwareDevelopment</tspan></text>
<text fill="#444444" xml:space="preserve" transform="matrix(1 0 -0 1 0 841.89)" font-size="7.9701" font-family="Source Code Pro, sans-serif" font-weight="bold"><tspan y="-213.232" x="492.766 498.18568 503.01557 506.9767 509.93363 514.7635 521.4903 527.4679 532.28189 534.3142 538.5464 543.3205 546.4049 550.366 552.3984 555.4589">BostonUniversity</tspan></text>
<text fill="#444444" xml:space="preserve" transform="matrix(1 0 -0 1 0 841.89)" font-size="9.9626" font-family="Source Code Pro, sans-serif"><tspan y="-180.953" x="35.432985 41.221254 47.936048 52.08049 60.43911 68.65826 74.446529 81.161319 85.305759">2013&#x2013;2017</tspan></text>
<text fill="#444444" xml:space="preserve" transform="matrix(1 0 -0 1 0 841.89)" font-size="9.9626" font-family="Source Code Pro, sans-serif" font-weight="bold"><tspan y="-180.953" x="127.205989 133.98056 139.6991 145.31801 151.33542 157.30301 160.46115 166.49849 172.74504 178.70269 184.77986 190.88694 196.50585 199.04631 205.0139 211.03131 216.6004 224.95902 233.35749 239.345 242.50315 248.47074 254.08965 257.91529 261.7708 264.31129 269.93019 275.6487 281.19789 287.1256 293.14305 299.45933 301.9998 308.0172 313.9848 319.9524 323.80793 326.3484 332.3658 338.6821 343.38444 352.00209 354.54255 360.55998 366.5973 372.84385 375.3843 383.79277 392.3606 398.03929 401.86494 407.88236 413.84996 423.12513 428.8038 432.62947 435.16993 440.78883">BachelorofScience&#x2013;ElectricalEngineering,MinorinMathematics</tspan></text>
<text fill="#444444" xml:space="preserve" transform="matrix(1 0 -0 1 0 841.89)" font-size="7.9701" font-family="Source Code Pro, sans-serif" font-weight="bold"><tspan y="-180.953" x="486.9 492.87757 497.6915 499.72389 503.956 508.73008 511.8145 515.77566 517.808 520.8685 527.1649 531.931 536.7928 543.6471 548.2219 550.2543 555.06826">UniversityofMaine</tspan></text>
<path transform="matrix(1,0,0,-1,35.433,693.41506)" d="M 0 0 L 71.502 0 L 71.502 13.24 L 0 13.24 Z " fill="#444444"/>
<text fill="#ffffff" xml:space="preserve" transform="matrix(1 0 -0 1 0 841.89)" font-size="9.9626" font-family="Source Code Pro, sans-serif" font-weight="bold"><tspan y="-151.534" x="38.422 41.271306 48.87277 55.03962 61.02714 67.65227 75.25373 81.3608 88.782939 91.63224 97.83894">INTERNSHIPS</tspan></text>
<text fill="#444444" xml:space="preserve" transform="matrix(1 0 -0 1 0 841.89)" font-size="9.9626" font-family="Source Code Pro, sans-serif"><tspan y="-131.603" x="35.433004 41.221277 47.93607 52.080514 57.61972 62.401769 68.19004 74.90483 79.04927 85.05672 89.83877 95.62704 102.34183 106.48627">2015,2016,2017</tspan></text>
<text fill="#444444" xml:space="preserve" transform="matrix(1 0 -0 1 0 841.89)" font-size="9.9626" font-family="Source Code Pro, sans-serif" font-weight="bold"><tspan y="-131.603" x="127.20601 133.31308 139.27072 142.95688 146.78252 155.01163 160.73017 164.32666 172.68527 178.61302 184.63043 190.94672 193.48719 199.5046 205.47219 211.43978 215.2953 217.83577 223.85318 232.56049 235.40979 241.37738 245.0735 251.04109 254.89662">SoftwareEngineeringIntern</tspan></text>
<text fill="#444444" xml:space="preserve" transform="matrix(1 0 -0 1 0 841.89)" font-size="7.9701" font-family="Source Code Pro, sans-serif" font-weight="bold"><tspan y="-131.603" x="482.38905 486.96388 488.99626 494.13697 498.91105 501.43757 503.46995 506.53047 512.82687 515.10629 519.8246 524.05679 528.8309 532.792 535.85256 543.2727 548.0468 552.8209 555.8815">FidelityInvestments</tspan></text>
<path transform="matrix(1,0,0,-1,35.433,741.54507)" d="M 0 0 L 101.37 0 L 101.37 13.24 L 0 13.24 Z " fill="#444444"/>
<text fill="#ffffff" xml:space="preserve" transform="matrix(1 0 -0 1 0 841.89)" font-size="9.9626" font-family="Source Code Pro, sans-serif" font-weight="bold"><tspan y="-103.404" x="38.422 44.409524 50.845365 57.012216 63.527757 69.9636 76.79794 84.2699 90.89503 97.52016 100.36946 107.203807 114.67575 120.49391 127.18878">EXTRACURRICULAR</tspan></text>
<text fill="#444444" xml:space="preserve" transform="matrix(1 0 -0 1 0 841.89)" font-size="9.9626" font-family="Source Code Pro, sans-serif" font-weight="bold"><tspan y="-82.945" x="35.433004 42.655889 48.623487 54.640897 60.608495 64.39428 70.11281 79.567317 86.40166 92.438999 98.40659 102.23223 106.01802 111.73655 117.35545 121.051578 127.08891">GeneralContractor</tspan></text>
<text fill="#444444" xml:space="preserve" transform="matrix(1 0 -0 1 0 841.89)" font-size="9.9626" font-family="Source Code Pro, sans-serif"><tspan y="-82.945" x="137.626 148.51514 154.56244 160.48023 166.62715 172.4752 175.97208 181.28214 183.45398 188.30577 194.15383 205.69052 211.12014 216.92833 229.80997 235.46874 240.2707 246.11876 251.58823 257.506 260.71397 266.562">-Supervisesandexecutes</tspan><tspan y="-70.989" x="35.433008 41.28105 43.99088 49.838926 55.30839 58.645864 62.142736 64.31458 69.78405 75.21367 77.92349 82.70554 88.85247 91.562297 97.48008 106.63571 112.78264 114.95448 120.76268 126.91957 131.70163 135.0391 137.21094 139.92076 142.0926 147.9008 154.0577 158.83975 164.30922 169.73883 173.2357 179.38263 185.23069 190.98906 194.32654 197.82341 202.74494 207.527 212.9566 218.7648 227.502 233.64893 239.07854 241.25038 247.00876 250.34622 252.51807 258.32627">electrical,plumbing,tiling,carpentry,andpainting</tspan></text>
<text fill="#444444" xml:space="preserve" transform="matrix(1 0 -0 1 0 841.89)" font-size="9.9626" font-family="Source Code Pro, sans-serif" font-weight="bold"><tspan y="-59.033998" x="35.433008 43.98092 49.948518 55.916116 59.61224 65.649578">Mentor</tspan></text>
<text fill="#444444" xml:space="preserve" transform="matrix(1 0 -0 1 0 841.89)" font-size="9.9626" font-family="Source Code Pro, sans-serif"><tspan y="-59.033998" x="72.79301 80.28488 87.119228 92.54884 95.78669 101.634738 107.48278 114.26731 119.69693 125.50513 134.98952 138.19748 144.04553 149.515 155.3232 161.1314 163.30324 168.7727 174.20232 180.1998 189.35543 195.20348 200.96186 204.1698 210.09755 216.88208 219.9107 225.83846 232.62299 235.83094 241.67899 247.14846 252.95665 258.76484 264.69258 267.2131">-Careerandtechnicalmentorfortechnol-</tspan><tspan y="-47.078996" x="35.433008 41.360754 47.51764 55.457834 57.62968 63.388067 66.59602 72.44407 75.94094 81.74914">ogyinterns</tspan></text>
<path transform="matrix(1,0,0,-1,297.638,741.54507)" d="M 0 0 L 61.689 0 L 61.689 13.24 L 0 13.24 Z " fill="#444444"/>
<text fill="#ffffff" xml:space="preserve" transform="matrix(1 0 -0 1 0 841.89)" font-size="9.9626" font-family="Source Code Pro, sans-serif" font-weight="bold"><tspan y="-103.404" x="300.627 306.8337 314.36546 320.88099 327.04783 332.60697 340.1387 345.95686 348.80616">PORTFOLIO</tspan></text>
<text fill="#444444" xml:space="preserve" transform="matrix(1 0 -0 1 0 841.89)" font-size="9.9626" font-family="Source Code Pro, sans-serif" font-weight="bold"><tspan y="-82.945" x="297.638 303.6853 307.38145 313.41877 317.2743 322.75373 326.44987 332.41746 335.5756 338.73374 344.70133 348.55686 355.8993 362.00639 368.0437 373.6626 376.20307 381.9216">StorytellersSocial</tspan></text>
<text fill="#444444" xml:space="preserve" transform="matrix(1 0 -0 1 0 841.89)" font-size="9.9626" font-family="Source Code Pro, sans-serif"><tspan y="-82.945" x="387.65 394.39469 400.15309 403.49055 406.828 412.9749 417.8267 419.69966 423.25633 428.95494 433.8067 437.01466 442.94239 446.43928 451.839 455.04695 460.895 463.60484 466.31468 472.16273 475.6596 480.51139 485.36317 491.2909 496.76039 498.93223 504.36186 507.0717 508.95463 514.37429 520.302">-https://storytellerssocial.com</tspan></text>
<text fill="#444444" xml:space="preserve" transform="matrix(1 0 -0 1 0 841.89)" font-size="9.9626" font-family="Source Code Pro, sans-serif" font-weight="bold"><tspan y="-70.989" x="297.638 302.92814 309.24443 312.8409 318.8085 323.75993 328.71134">xpresso</tspan></text>
<text fill="#444444" xml:space="preserve" transform="matrix(1 0 -0 1 0 841.89)" font-size="9.9626" font-family="Source Code Pro, sans-serif"><tspan y="-70.989" x="337.289 344.0337 349.79209 353.12956 356.467 362.61393 367.4657 369.33866 372.89533 378.67366 384.48185 390.62876 399.7844 402.02598 406.87776 408.76069 414.18037 420.1081 429.26374 435.04206 441.18898 446.6186 452.08808 457.29853 462.72816 468.88505 474.7331 480.75053 485.77168 491.91859 495.15644 501.0045 505.85627 510.70805">-https://npmjs.com/package/xpresso</tspan></text>
<text fill="#444444" xml:space="preserve" transform="matrix(1 0 -0 1 0 841.89)" font-size="9.9626" font-family="Source Code Pro, sans-serif" font-weight="bold"><tspan y="-59.033998" x="297.638 300.79615 306.83348 313.14976 319.11735 322.90315 328.58183 332.27796 338.31529">logerator</tspan></text>
<text fill="#444444" xml:space="preserve" transform="matrix(1 0 -0 1 0 841.89)" font-size="9.9626" font-family="Source Code Pro, sans-serif"><tspan y="-59.033998" x="344.711 351.4557 357.21409 360.55155 363.889 370.03593 374.8877 376.76066 380.31733 386.09565 391.90385 398.05076 407.2064 409.44798 414.29975 416.18269 421.60237 427.5301 436.68574 442.46406 448.61097 454.0406 459.51008 464.72053 470.15016 476.30705 482.1551 488.17253 490.88236 496.8101 502.96699 508.81504 512.2421 517.6319 520.83987 526.7676">-https://npmjs.com/package/logerator</tspan></text>
<text fill="#444444" xml:space="preserve" transform="matrix(1 0 -0 1 0 841.89)" font-size="9.9626" font-family="Source Code Pro, sans-serif" font-weight="bold"><tspan y="-47.078996" x="297.638 303.6853 307.51097 313.2295 319.47605 329.46855 335.18708 339.0426 346.38505 353.2194 359.2567 368.5319 371.07237 376.69126">StarWarsComics</tspan></text>
<text fill="#444444" xml:space="preserve" transform="matrix(1 0 -0 1 0 841.89)" font-size="9.9626" font-family="Source Code Pro, sans-serif"><tspan y="-47.078996" x="384.18299 390.92768 396.68608 400.02354 403.361 409.5079 414.35969 416.23265 419.7893 425.4879 430.3397 433.67716 439.10679 442.60368 450.57374 456.00337 459.50025 464.35203 469.7717 475.69944 484.85508 487.02693 492.4964 497.34819 499.2311 504.6508">-https://starwarscomics.co</tspan></text>
</g>
</svg>
