<?xml version="1.0" standalone="no"?>
<!DOCTYPE svg PUBLIC "-//W3C//DTD SVG 20010904//EN"
 "http://www.w3.org/TR/2001/REC-SVG-20010904/DTD/svg10.dtd">
<svg version="1.0" xmlns="http://www.w3.org/2000/svg"
 width="1632.000000pt" height="1632.000000pt" viewBox="0 0 1632.000000 1632.000000"
 preserveAspectRatio="xMidYMid meet">
<metadata>
Created by potrace 1.14, written by Peter Selinger 2001-2017
</metadata>
<g transform="translate(0.000000,1632.000000) scale(0.100000,-0.100000)"
fill="#000000" stroke="none">
<path d="M309 11205 c-1 -39 -1 -4235 0 -4257 1 -16 54 -17 761 -17 l760 0 0
2149 c0 1183 -3 2150 -7 2151 -5 0 -347 1 -761 2 l-752 2 -1 -30z"/>
<path d="M8047 11230 c-25 -5 229 -261 3101 -3137 l3128 -3133 927 0 927 0 0
3135 c0 2979 -1 3135 -17 3136 -102 4 -1496 0 -1500 -5 -3 -3 -6 -1007 -6
-2231 0 -1224 -2 -2225 -4 -2225 -3 0 -660 657 -1461 1460 -2751 2757 -2995
3000 -3011 3001 -95 3 -2064 3 -2084 -1z"/>
<path d="M2853 9262 l-483 -2 0 -43 c-1 -56 -1 -2202 0 -2249 l0 -37 760 0
c709 0 760 1 760 17 3 151 0 2305 -3 2308 -7 7 -458 10 -1034 6z"/>
<path d="M4803 9262 l-373 -2 0 -23 c-1 -12 -2 -979 -3 -2150 l-2 -2127 763 0
762 0 0 38 c4 257 1 4255 -3 4258 -6 6 -671 10 -1144 6z"/>
<path d="M7269 8133 c-6 -16 -26 -71 -45 -123 -20 -52 -44 -117 -54 -145 -10
-27 -53 -144 -95 -260 -43 -115 -90 -244 -105 -285 -16 -41 -65 -176 -110
-300 -44 -124 -85 -236 -91 -249 -5 -13 -8 -25 -6 -27 5 -5 135 -54 177 -66
19 -6 40 -13 45 -16 6 -4 15 -7 20 -9 15 -3 360 -130 420 -154 11 -4 49 -18
85 -30 36 -12 70 -26 75 -29 6 -4 21 -10 35 -13 14 -3 198 -69 410 -147 212
-77 421 -154 465 -169 44 -16 112 -41 150 -56 39 -15 88 -33 110 -40 22 -7 78
-27 125 -45 123 -45 200 -73 330 -119 63 -23 124 -45 135 -50 11 -6 54 -22 95
-36 41 -14 82 -28 90 -32 8 -3 20 -7 25 -9 17 -4 318 -114 345 -126 14 -6 33
-14 42 -19 10 -5 26 -9 36 -9 10 0 23 -5 30 -12 7 -7 12 -9 12 -6 0 4 25 -4
55 -17 30 -14 56 -25 58 -24 3 1 38 -11 77 -26 19 -8 69 -26 110 -40 41 -14
98 -34 125 -45 28 -10 75 -28 105 -38 30 -11 64 -24 75 -28 11 -4 22 -8 25 -9
3 -1 14 -5 25 -9 25 -10 99 -37 195 -71 41 -15 91 -33 110 -41 19 -7 87 -32
150 -54 155 -56 221 -80 245 -90 92 -38 271 -97 276 -92 6 7 48 120 216 582
41 113 78 214 83 225 5 11 20 52 34 90 13 39 38 108 56 155 17 47 51 139 75
205 24 66 46 127 50 137 6 15 -6 23 -50 34 -5 2 -46 16 -90 33 -44 16 -114 41
-155 56 -41 14 -84 30 -95 35 -11 4 -42 16 -70 25 -27 10 -63 23 -80 30 -16 6
-52 20 -80 29 -27 10 -86 31 -130 48 -44 16 -84 31 -90 32 -5 2 -23 8 -38 14
-16 7 -30 12 -33 12 -2 0 -66 23 -141 51 -76 27 -187 68 -248 90 -60 22 -117
43 -125 46 -8 3 -19 7 -25 9 -5 1 -53 19 -105 39 -52 20 -102 38 -110 40 -8 2
-16 4 -17 5 -2 2 -6 3 -10 5 -5 1 -15 5 -23 8 -8 3 -42 16 -75 27 -33 12 -69
25 -80 30 -62 25 -103 38 -109 33 -3 -4 -6 -1 -6 5 0 7 -5 12 -12 12 -10 0
-808 287 -898 323 -14 6 -29 11 -35 12 -11 3 -226 81 -260 95 -11 4 -36 13
-55 20 -19 7 -44 16 -55 20 -11 5 -72 27 -135 50 -63 23 -151 55 -195 72 -44
16 -87 31 -95 33 -15 4 -139 49 -175 64 -22 9 -62 24 -345 126 -231 83 -288
104 -320 117 -14 6 -61 23 -105 38 -44 16 -110 40 -148 54 l-67 26 -11 -27z"/>
</g>
</svg>
