<?xml version="1.0" encoding="UTF-8"?>
<svg width="188px" height="200px" viewBox="0 0 188 200" version="1.1" xmlns="http://www.w3.org/2000/svg" xmlns:xlink="http://www.w3.org/1999/xlink">
    <!-- Generator: Sketch 52.6 (67491) - http://www.bohemiancoding.com/sketch -->
    <title>angular</title>
    <desc>Created with Sketch.</desc>
    <g id="Page-1" stroke="none" stroke-width="1" fill="none" fill-rule="evenodd">
        <g id="angular">
            <path d="M94,0 L187.1,33.2 L172.9,156.3 L94,200 L15.1,156.3 L0.9,33.2 L94,0 Z M94,22.1 L35.8,152.6 L57.5,152.6 L69.2,123.4 L118.6,123.4 L130.3,152.6 L152,152.6 L94,22.1 Z M111,105.4 L77,105.4 L94,64.5 L111,105.4 Z" id="Combined-Shape" fill="#555555"></path>
            <path d="M94,123.4 L118.6,123.4 L130.3,152.6 L152,152.6 L94,22.1 L94,0 L187.1,33.2 L172.9,156.3 L94,200 L94,123.4 Z M94,105.4 L94,64.5 L111,105.4 L94,105.4 Z" id="Combined-Shape" fill="#444444"></path>
        </g>
    </g>
</svg>