<?xml version="1.0" encoding="UTF-8"?>
<svg width="500px" height="225px" viewBox="0 0 500 225" version="1.1" xmlns="http://www.w3.org/2000/svg" xmlns:xlink="http://www.w3.org/1999/xlink">
    <!-- Generator: Sketch 52.6 (67491) - http://www.bohemiancoding.com/sketch -->
    <title>bu</title>
    <desc>Created with Sketch.</desc>
    <g id="Page-1" stroke="none" stroke-width="1" fill="none" fill-rule="evenodd">
        <g id="bu" transform="translate(-2.000000, -2.000000)" fill="#444444">
            <g id="g10" transform="translate(253.826665, 116.669487) scale(-1, 1) rotate(-180.000000) translate(-253.826665, -116.669487) translate(0.493338, 0.669490)">
                <g id="g1869" transform="translate(0.715474, 0.604369)">
                    <path d="M0.791187382,6.0556265 L500.791182,6.0556265 L500.791182,230.065118 L0.791187382,230.065118 L0.791187382,6.0556265 Z M90.311666,143.691192 C90.30558,150.96403 84.7611823,158.431622 73.6541286,158.437708 L63.508672,158.437708 L63.508672,138.231999 C63.5573604,131.020022 66.2169672,128.616029 74.226218,128.573427 C86.769581,128.591685 90.2873218,136.284461 90.311666,143.691192 Z M73.7515055,160.653032 C82.9049349,160.683463 87.3173261,164.195117 87.3416703,171.565332 C87.3173261,178.180876 83.446594,184.175642 71.7370207,184.1939 C69.6981917,184.1939 65.9187505,184.017404 63.508672,183.920027 L63.508672,160.653032 L73.7515055,160.653032 Z M85.6801768,160.044427 C94.5049592,157.311787 99.7146238,151.444828 99.7146238,143.983323 C99.6902795,136.333149 94.3528077,125.603431 78.8272769,125.585173 L43.576836,125.585173 L43.576836,127.800498 L45.9747424,127.800498 C53.8135835,127.861358 55.1038276,129.461991 55.1646881,135.456757 L55.1646881,175.204794 C55.1038276,180.670073 54.610857,183.280991 47.9892272,183.335766 L44.43497,183.335766 L44.43497,185.551091 L44.6297238,185.551091 C47.3075888,185.648467 53.9170465,186.031889 56.6922884,186.129266 C61.9688996,186.317934 69.2417375,186.415311 71.0675545,186.415311 C79.5150013,186.409225 86.9095603,185.185927 90.4333872,182.648041 C94.3954101,179.848455 96.3672925,176.50721 96.3612065,171.851377 C96.3551204,166.39827 91.9670735,161.346843 85.6801768,160.044427 Z M145.074005,184.195117 C128.367779,184.170773 121.715719,168.63307 121.709633,157.197369 C121.715719,139.377395 133.790456,126.846204 149.096888,126.840118 C164.561559,126.870548 171.96829,140.497229 171.980462,154.038706 C171.96829,171.767389 160.763859,184.189031 145.074005,184.195117 Z M147.563202,186.988617 C165.74834,186.958187 181.371248,174.566975 181.377334,157.197369 C181.340817,137.73416 165.760512,124.08922 147.082404,124.052704 C128.233886,124.083134 112.312761,136.188301 112.306675,154.227373 C112.343192,173.392366 127.077535,186.952101 147.563202,186.988617 Z M197.937494,125.584564 L196.136021,125.584564 L194.066762,140.538006 L196.269915,140.538006 L196.306431,140.385855 C198.302658,131.938408 204.918201,127.039132 212.300588,127.033046 C218.654431,127.045218 225.312578,130.709024 225.318664,138.134014 C225.452557,151.669404 194.675368,155.917471 194.577991,172.903656 C194.584077,180.985939 201.978636,186.974619 211.825876,186.986791 C219.908159,186.986791 221.618341,184.576713 224.850037,184.588885 C225.580364,184.607143 225.835978,184.728864 226.414154,185.477449 L226.468928,185.550482 L228.282573,185.550482 L229.956239,172.994947 L227.972184,172.994947 L227.923496,173.116668 C225.263889,179.945224 219.202177,184.296754 212.690096,184.296754 C206.433629,184.284582 202.161218,180.730325 202.161218,175.49023 C202.021238,162.15568 232.8106,158.467529 232.895804,140.623211 C232.895804,131.104618 224.442271,124.069136 213.164808,124.050878 C207.857767,124.050878 201.083986,126.649624 199.854602,126.637452 C199.069501,126.637452 198.454809,126.205342 198.101818,125.669769 L198.047043,125.584564 L197.937494,125.584564 Z M244.843342,171.083925 L244.672933,171.083925 L242.731481,171.083925 L244.301683,186.986791 L246.46832,186.986791 L246.49875,186.828554 C246.583955,186.329497 246.894344,186.013022 247.42383,185.830441 C247.96549,185.647859 248.622784,185.556568 249.273992,185.556568 L295.339355,185.556568 C296.678288,185.550482 297.974618,185.866957 298.108511,186.828554 L298.132856,186.986791 L300.305578,186.986791 L301.87578,171.083925 L299.763919,171.083925 L299.739575,171.248248 C298.278921,179.683523 296.647858,181.698008 292.941449,181.71018 L276.478666,181.71018 L276.478666,134.591929 C276.527354,129.473555 278.036696,127.854664 283.84888,127.799889 L287.585719,127.799889 L287.585719,125.584564 L257.021542,125.584564 L257.021542,127.799889 L260.758381,127.799889 C266.570565,127.854664 268.079907,129.473555 268.128596,134.591929 L268.128596,181.71018 L251.665812,181.71018 C247.959403,181.698008 246.32834,179.683523 244.873773,171.248248 L244.843342,171.083925 Z M345.40265,126.844378 C360.873406,126.868722 368.274051,140.495404 368.286223,154.03688 C368.274051,171.771649 357.069621,184.193291 341.379766,184.199377 C324.679627,184.168947 318.027567,168.631244 318.021481,157.195543 C318.027567,139.375569 330.096217,126.844378 345.40265,126.844378 Z M343.87505,186.992877 C362.060187,186.956361 377.683095,174.565149 377.689181,157.195543 C377.652665,137.73842 362.066273,124.087395 343.394251,124.050878 C324.539647,124.087395 308.624609,136.186475 308.618523,154.225548 C308.655039,173.396627 323.37721,186.956361 343.87505,186.992877 Z M409.763918,127.599049 L409.763918,125.584564 L387.154217,125.584564 L387.154217,127.799889 L387.732392,127.799889 C393.635867,127.842492 395.346049,129.686567 395.382565,134.013753 L395.382565,181.034628 C393.234187,182.501367 390.811937,183.23778 387.531552,183.335157 L387.342884,183.341243 L387.342884,185.550482 L402.655403,185.550482 L447.485298,138.821738 L447.485298,176.439655 C447.430523,182.221409 445.975955,183.079543 438.295352,183.335157 L438.100598,183.341243 L438.100598,185.550482 L460.905053,185.550482 L460.905053,183.329071 L460.710299,183.329071 C453.510494,183.280383 452.232422,182.184893 452.195906,178.551517 L452.195906,124.909012 L449.420664,124.909012 L400.093173,176.52486 L400.093173,135.930861 C400.154034,129.071875 401.432106,127.866836 409.569164,127.799889 L409.763918,127.799889 L409.763918,127.599049 Z M77.2272526,91.6803594 L92.2963292,91.6803594 L92.497169,91.6803594 L92.497169,90.0797264 L92.3024152,90.0736404 C88.1212942,89.9762635 86.7823617,88.4547493 86.7336733,84.4501239 L86.7336733,67.3665625 C86.7215011,59.4303445 81.6335577,50.9220371 67.8060367,50.8976929 C55.6400092,50.9220371 49.3348543,57.9027442 49.3165962,67.0500876 L49.3165962,85.5273559 C49.2557356,89.5258953 48.3732574,89.9519192 44.0704152,90.0736404 L43.8695754,90.0797264 L43.8695754,91.6803594 L60.5331988,91.6803594 L60.5331988,90.0736404 L59.7663557,90.0736404 C56.3094754,90.0249519 55.0131453,89.2520227 54.9705429,85.6490771 L54.9705429,68.060373 C54.9888011,59.6007541 59.8454744,54.6101875 69.1936576,54.5919293 C76.308258,54.6162736 83.4106863,57.4767202 83.4289444,68.1212336 L83.4289444,82.8677491 C83.3619978,88.9477199 82.637757,89.7632515 77.4159203,90.0736404 L77.2272526,90.0918985 L77.2272526,91.6803594 Z M132.262855,90.2744802 L132.262855,91.6803594 L147.465825,91.6803594 L147.465825,90.0736404 L147.271071,90.0736404 C142.505689,90.0249519 141.751018,89.3493996 141.708416,86.9819235 L141.708416,51.4697822 L139.779136,51.4697822 L107.279592,85.4786675 L107.279592,58.8217388 C107.340453,54.2997986 108.095124,53.5816439 113.475198,53.5146973 L113.669952,53.5146973 L113.669952,51.9140643 L98.5887033,51.9140643 L98.5887033,53.5146973 L99.0390715,53.5146973 C102.934148,53.5572997 103.999208,54.7136505 104.035724,57.555839 L104.035724,88.5886425 C102.629845,89.5380674 101.053556,90.0188659 98.9112643,90.0797264 L98.7165105,90.0858125 L98.7165105,91.6742733 L108.941086,91.6742733 L138.464547,60.9031702 L138.464547,85.5943026 C138.409773,89.3859159 137.533381,89.8849726 132.457609,90.0797264 L132.262855,90.0858125 L132.262855,90.2744802 Z M156.095854,90.2744802 L156.095854,91.6803594 L171.870913,91.6803594 L171.870913,90.0797264 L171.670073,90.0797264 C167.70805,90.0188659 166.551699,89.3433135 166.496925,85.1500204 L166.496925,58.31051 C166.551699,54.6162736 167.342887,53.5694718 171.670073,53.5146973 L171.870913,53.5146973 L171.870913,51.9079783 L156.095854,51.9079783 L156.095854,53.5025252 L156.284522,53.5146973 C160.167426,53.7581395 160.782118,54.5310688 160.842978,58.7547922 L160.842978,85.7160237 C160.79429,89.0816131 159.808348,89.8423702 156.284522,90.0797264 L156.095854,90.0918985 L156.095854,90.2744802 Z M205.702694,90.2744802 L205.702694,91.6803594 L220.783943,91.6803594 L220.783943,90.0797264 L220.583103,90.0797264 C217.369665,90.0614682 215.781204,88.6555891 214.247518,84.7605128 L201.162496,50.9037789 L197.723874,50.9037789 L183.945041,85.2656555 C182.320064,89.2520227 181.747975,90.0432101 177.925931,90.0797264 L177.725091,90.0797264 L177.725091,91.6803594 L195.526807,91.6803594 L195.526807,90.0797264 L195.332053,90.0797264 C190.749252,89.9701774 189.087759,89.1303016 189.118189,87.572271 C189.118189,87.1279889 189.245996,86.5985019 189.501611,85.9777241 L200.706041,58.097498 L210.522851,83.7684855 C211.216661,85.5273559 211.587911,86.7871697 211.587911,87.6148734 C211.581825,89.3372275 210.218548,90.0553822 205.897448,90.0736404 L205.702694,90.0736404 L205.702694,90.2744802 Z M257.300892,61.73696 L257.453043,61.73696 L258.810234,61.73696 L257.757346,51.9079783 L223.772805,51.9079783 L223.772805,53.5086112 L225.738602,53.5086112 C230.777857,53.5694718 231.435151,54.7379947 231.489925,58.5052638 L231.489925,85.2047949 C231.441237,88.7347079 230.814373,90.0249519 226.633252,90.0736404 L225.038705,90.0736404 L225.038705,91.6803594 L255.803722,91.6803594 L256.333209,82.4782415 L254.811695,82.4782415 L254.787351,82.6486511 C253.935303,88.0165532 252.474649,88.9781501 250.295841,88.9964083 L237.143872,88.9964083 L237.143872,73.8299548 L248.27527,73.8299548 C250.460164,73.8603851 251.397417,74.7367773 251.744322,78.3944974 L251.76258,78.570993 L253.344955,78.570993 L253.344955,66.1554372 L251.76258,66.1554372 L251.744322,66.3258468 C251.184405,70.7990985 250.198464,71.1034014 247.64232,71.1520898 L237.143872,71.1520898 L237.143872,57.8723139 C237.19256,55.0118672 238.044608,54.6406178 240.363396,54.5858433 L250.113259,54.5919293 C254.46479,54.6162736 255.645485,56.1560459 257.25829,61.5908946 L257.300892,61.73696 Z M319.536909,84.9552666 C319.396929,76.2400333 339.754789,73.7751803 339.84608,61.9195417 C339.84608,55.5839566 334.222564,50.915951 326.736714,50.8976929 C323.218973,50.9037789 318.715291,52.626133 317.942362,52.6078748 C317.449391,52.6078748 317.06597,52.3340023 316.840785,51.9992691 L316.779925,51.9079783 L315.42882,51.9079783 L314.047285,61.9256277 L315.62966,61.9256277 L315.666177,61.7734763 C316.980765,56.2290786 321.320123,53.0095546 326.170711,53.0095546 C330.351832,53.0156406 334.697276,55.419633 334.703362,60.2702203 C334.837255,69.1254329 314.485482,71.9493633 314.388105,83.2450847 C314.394191,88.637331 319.323897,92.6176121 325.854236,92.6236982 C331.203879,92.6236982 332.366316,91.0230652 334.45992,91.0413234 C334.928546,91.0595816 335.056353,91.10827 335.439775,91.5951546 L335.500636,91.6803594 L336.784794,91.6803594 L337.9168,83.2389986 L336.474405,83.2389986 L336.431802,83.3668058 C334.679018,87.8583157 330.692651,90.7065903 326.420239,90.7065903 C322.312151,90.7005042 319.542995,88.3756305 319.536909,84.9552666 Z M350.918443,90.2744802 L350.918443,91.6803594 L366.693502,91.6803594 L366.693502,90.0797264 L366.498749,90.0797264 C362.524554,90.0188659 361.368203,89.3433135 361.313428,85.1500204 L361.313428,58.31051 C361.368203,54.6162736 362.165476,53.5694718 366.498749,53.5146973 L366.693502,53.5146973 L366.693502,51.9079783 L350.918443,51.9079783 L350.918443,53.5025252 L351.107111,53.5146973 C354.996101,53.7581395 355.604707,54.5310688 355.665568,58.7547922 L355.665568,85.7160237 C355.616879,89.075527 354.624852,89.8423702 351.107111,90.0797264 L350.918443,90.0858125 L350.918443,90.2744802 Z M411.466796,92.6218723 L412.848331,92.6218723 L413.901219,81.977359 L412.373619,81.977359 L412.343189,82.1355965 C411.363333,87.7225966 410.328704,88.9884964 407.924711,88.9945825 L397.109788,89.0006686 L397.109788,57.9313487 C397.158477,54.5657593 398.083557,53.5615599 401.911687,53.5067854 L404.455659,53.5067854 L404.455659,51.9061525 L384.116057,51.9061525 L384.116057,53.5067854 L386.653943,53.5128715 C390.482073,53.5615599 391.407153,54.5657593 391.455842,57.9313487 L391.455842,88.9945825 L380.647005,88.9945825 C378.236926,88.9884964 377.196211,87.7225966 376.222442,82.1355965 L376.192011,81.977359 L374.664411,81.977359 L375.717299,92.6218723 L377.269243,92.6218723 L377.293588,92.4575488 C377.348362,92.159332 377.524858,91.9645782 377.859591,91.8550292 C378.206496,91.733308 378.638606,91.6785335 379.058544,91.6785335 L409.507086,91.6785335 C410.389564,91.6724475 411.205096,91.8854595 411.265956,92.4575488 L411.296387,92.6218723 L411.466796,92.6218723 Z M446.218181,91.6803594 L460.916008,91.6803594 L460.916008,90.0918985 L460.733426,90.0797264 C456.479272,89.7571654 454.744746,88.1261022 452.97979,85.1804507 L442.493514,67.4943697 L442.4996,58.0062072 C442.542202,54.6953923 443.546402,53.5633857 447.368445,53.5146973 L448.384817,53.5146973 L448.384817,51.9140643 L430.583101,51.9140643 L430.583101,53.5146973 L431.982894,53.5146973 C435.859712,53.5633857 436.803051,54.8231995 436.845653,57.8784 L436.845653,66.7396987 L425.616878,84.2858004 C422.488645,89.1485597 421.186229,89.9336611 417.108571,90.0797264 L416.913817,90.0858125 L416.913817,91.6864454 L434.143444,91.6864454 L434.143444,90.0797264 L433.942604,90.0797264 C430.759596,90.0797264 429.712795,89.5624116 429.712795,88.6616752 C429.706709,88.1200161 430.071872,87.3105706 430.75351,86.2759409 L440.704213,70.9086476 L449.474221,85.8255727 C450.113257,86.9210629 450.411474,87.7670248 450.405388,88.3695445 C450.405388,89.5806698 449.18209,90.0675543 446.41902,90.0797264 L446.218181,90.0797264 L446.218181,91.6803594 Z M293.210453,80.2805664 C293.173936,86.0744925 290.696911,90.4442812 281.056597,90.4747115 C279.918505,90.4747115 279.13949,90.4747115 278.10486,90.3712485 L278.10486,70.055991 C278.908219,69.9647002 279.553341,69.946442 280.228894,69.946442 C280.715778,69.946442 281.220921,69.9586141 281.817355,69.9586141 C288.761545,69.9829583 293.186109,72.8190608 293.210453,80.2805664 Z M302.205645,57.5491443 C305.011317,54.2018131 306.386766,53.4349699 310.245326,52.7776758 L310.409649,52.7472455 L310.409649,51.2439895 L310.214895,51.2439895 C310.129691,51.2439895 310.050572,51.2500755 309.971453,51.2500755 C301.408371,51.2257313 299.892943,52.3273076 294.878032,58.0299428 L291.171624,62.6005714 C288.810234,65.5827393 286.534049,68.8509518 285.949787,68.7474888 L285.949787,68.8387796 L285.925443,68.7414027 C284.580424,68.5040465 282.900673,68.3640672 281.190491,68.3640672 C279.894161,68.3579812 279.054285,68.4188417 278.13529,68.4797023 L278.10486,58.0299428 C278.147462,54.3235342 279.443792,53.5627771 282.943275,53.5080026 L284.598682,53.5080026 L284.598682,51.9195418 L266.364856,51.9195418 L266.364856,53.5080026 L267.636842,53.5080026 C271.318907,53.5627771 272.426569,54.3600506 272.475257,58.5411716 L272.481343,85.0702931 C272.426569,88.9471113 271.562349,89.8600198 267.953317,89.9147943 L266.364856,89.9147943 L266.364856,91.5093412 L266.565696,91.5093412 C268.062866,91.5093412 271.909254,91.7588695 274.495828,91.8866767 C277.076316,92.0083978 278.348302,92.0753444 282.444218,92.0753444 C294.14162,92.0631723 299.515608,87.2186711 299.533866,80.6579019 C299.533866,75.7464541 296.630817,72.1678527 291.956725,70.4150684 C292.194081,70.2142285 292.47404,69.8916675 292.881806,69.410869 C294.165964,67.7798058 302.205645,57.5430583 302.205645,57.5491443 Z M489.160728,17.7104252 L489.160728,218.446836 L12.4155558,218.446836 L12.4155558,17.7104252 L489.160728,17.7104252 Z M9.01345009,221.855028 L492.581092,221.855028 L492.581092,14.2718032 L9.01345009,14.2718032 L9.01345009,221.855028 Z" id="Combined-Shape"></path>
                </g>
            </g>
        </g>
    </g>
</svg>