<?xml version="1.0" encoding="UTF-8"?>
<svg width="240px" height="180px" viewBox="0 0 240 180" version="1.1" xmlns="http://www.w3.org/2000/svg" xmlns:xlink="http://www.w3.org/1999/xlink">
    <!-- Generator: Sketch 52.6 (67491) - http://www.bohemiancoding.com/sketch -->
    <title>docker</title>
    <desc>Created with Sketch.</desc>
    <g id="Page-1" stroke="none" stroke-width="1" fill="none" fill-rule="evenodd">
        <g id="docker" fill="#444444">
            <path d="M237.635,74.235 C236.985,73.725 230.91,69.2 218.095,69.2 C214.71,69.215 211.335,69.5 208,70.055 C205.52,53.285 191.905,45.405 191.275,45.04 L187.835,43.08 L185.57,46.3 C182.735,50.63 180.23,55.1 179.015,60.115 C176.72,69.69 178.115,78.68 183.045,86.365 C177.085,89.64 166.93,89.93 165,90 L7.91,90 C3.78,90.005 0.43,93.3 0.405,97.37 C0.22,111.035 2.17,125.135 6.935,137.965 C12.38,152.055 20.485,162.435 31.025,168.785 C42.835,175.92 62.025,180 83.78,180 C93.605,180.03 103.415,179.155 113.075,177.38 C126.505,174.945 139.43,170.315 151.31,163.68 C161.1,158.085 169.91,150.97 177.405,142.605 C189.93,128.615 197.39,113.04 202.94,99.195 C203.685,99.195 204.43,99.195 205.15,99.195 C218.865,99.195 227.295,93.78 231.945,89.245 C235.035,86.35 237.45,82.825 239.015,78.92 L240,76.08 L237.635,74.235 Z" id="Path"></path>
            <path d="M40,85 L25,85 C22.24,85 20,82.76 20,80 L20,65 C20,62.24 22.24,60 25,60 L40,60 C42.76,60 45,62.24 45,65 L45,80 C45,82.76 42.76,85 40,85 Z" id="Path"></path>
            <path d="M70,85 L55,85 C52.24,85 50,82.76 50,80 L50,65 C50,62.24 52.24,60 55,60 L70,60 C72.76,60 75,62.24 75,65 L75,80 C75,82.76 72.76,85 70,85 Z" id="Path"></path>
            <path d="M100,85 L85,85 C82.24,85 80,82.76 80,80 L80,65 C80,62.24 82.24,60 85,60 L100,60 C102.76,60 105,62.24 105,65 L105,80 C105,82.76 102.76,85 100,85 Z" id="Path"></path>
            <path d="M130,85 L115,85 C112.24,85 110,82.76 110,80 L110,65 C110,62.24 112.24,60 115,60 L130,60 C132.76,60 135,62.24 135,65 L135,80 C135,82.76 132.76,85 130,85 Z" id="Path"></path>
            <path d="M70,55 L55,55 C52.24,55 50,52.76 50,50 L50,35 C50,32.24 52.24,30 55,30 L70,30 C72.76,30 75,32.24 75,35 L75,50 C75,52.76 72.76,55 70,55 Z" id="Path"></path>
            <path d="M100,55 L85,55 C82.24,55 80,52.76 80,50 L80,35 C80,32.24 82.24,30 85,30 L100,30 C102.76,30 105,32.24 105,35 L105,50 C105,52.76 102.76,55 100,55 Z" id="Path"></path>
            <path d="M130,55 L115,55 C112.24,55 110,52.76 110,50 L110,35 C110,32.24 112.24,30 115,30 L130,30 C132.76,30 135,32.24 135,35 L135,50 C135,52.76 132.76,55 130,55 Z" id="Path"></path>
            <path d="M130,25 L115,25 C112.24,25 110,22.76 110,20 L110,5 C110,2.24 112.24,0 115,0 L130,0 C132.76,0 135,2.24 135,5 L135,20 C135,22.76 132.76,25 130,25 Z" id="Path"></path>
            <path d="M160,85 L145,85 C142.24,85 140,82.76 140,80 L140,65 C140,62.24 142.24,60 145,60 L160,60 C162.76,60 165,62.24 165,65 L165,80 C165,82.76 162.76,85 160,85 Z" id="Path"></path>
        </g>
    </g>
</svg>