<?xml version="1.0" encoding="UTF-8"?>
<svg width="451px" height="512px" viewBox="0 0 451 512" version="1.1" xmlns="http://www.w3.org/2000/svg" xmlns:xlink="http://www.w3.org/1999/xlink">
    <!-- Generator: Sketch 52.6 (67491) - http://www.bohemiancoding.com/sketch -->
    <title>html</title>
    <desc>Created with Sketch.</desc>
    <g id="Page-1" stroke="none" stroke-width="1" fill="none" fill-rule="evenodd">
        <g id="html">
            <path d="M225,208 L151,208 L146,150 L225,150 L362,150 L363,138 L366,109 L367,94 L225,94 L84,94 L85,109 L99,265 L225,265 L295,265 L288,338 L225,355 L162,338 L158,293 L128,293 L102,293 L109,382 L225,414 L226,414 L226,413.724138 L341,382 L342,372 L355,223 L357,208 L341,208 L225,208 Z M41,460 L0,0 L451,0 L410,460 L225,512 L41,460 Z" id="Combined-Shape" fill="#444444"></path>
            <path d="M226,413.724138 L341,382 L342,372 L355,223 L357,208 L341,208 L226,208 L226,150 L362,150 L363,138 L366,109 L367,94 L226,94 L226,37 L410,37 L375,431 L226,472 L226,413.724138 Z M226,354.730159 L226,265 L295,265 L288,338 L226,354.730159 Z" id="Combined-Shape" fill="#555555"></path>
        </g>
    </g>
</svg>