<?xml version="1.0" encoding="UTF-8"?>
<svg width="227px" height="422px" viewBox="0 0 227 422" version="1.1" xmlns="http://www.w3.org/2000/svg" xmlns:xlink="http://www.w3.org/1999/xlink">
    <!-- Generator: Sketch 52.6 (67491) - http://www.bohemiancoding.com/sketch -->
    <title>java</title>
    <desc>Created with Sketch.</desc>
    <g id="Page-1" stroke="none" stroke-width="1" fill="none" fill-rule="evenodd">
        <g id="java" fill="#444444">
            <path d="M217.282169,332.376232 L215.695588,332.376232 L215.695588,331.488743 L219.966434,331.488743 L219.966434,332.376232 L218.390752,332.376232 L218.390752,336.804334 L217.282169,336.804334 L217.282169,332.376232 Z M225.800505,332.607446 L225.775593,332.607446 L224.203803,336.805112 L223.48447,336.805112 L221.922802,332.607446 L221.903339,332.607446 L221.903339,336.805112 L220.858593,336.805112 L220.858593,331.489521 L222.396129,331.489521 L223.844137,335.253564 L225.287474,331.489521 L226.81956,331.489521 L226.81956,336.805112 L225.799726,336.805112 L225.799726,332.607446 L225.800505,332.607446 Z" id="Shape" fill-rule="nonzero"></path>
            <path d="M75.2660564,223.681431 C75.2660564,223.681431 64.2284984,230.100154 83.1211108,232.272166 C106.00898,234.883252 117.706705,234.508794 142.929292,229.735038 C142.929292,229.735038 149.560546,233.893001 158.82157,237.494337 C102.279191,261.727453 30.8550272,236.090704 75.2660564,223.681431" id="Path"></path>
            <path d="M68.3568783,192.058804 C68.3568783,192.058804 55.9771881,201.222515 74.8838134,203.178104 C99.3333513,205.700441 118.641682,205.906743 152.052521,199.473227 C152.052521,199.473227 156.673691,204.158234 163.9402,206.720274 C95.5770939,226.71057 19.4328906,208.296734 68.3568783,192.058804" id="Path"></path>
            <path d="M126.603391,138.416334 C140.535408,154.456526 122.942889,168.890675 122.942889,168.890675 C122.942889,168.890675 158.318659,150.628647 142.072165,127.76024 C126.898442,106.43404 115.262218,95.837891 178.256017,59.3037141 C178.256017,59.3037141 79.3765308,83.9992576 126.603391,138.416334" id="Path"></path>
            <path d="M201.385221,247.071431 C201.385221,247.071431 209.553232,253.801555 192.389666,259.008156 C159.752654,268.895092 56.5509418,271.880636 27.8819397,259.402076 C17.5761707,254.918701 36.902407,248.696937 42.9817052,247.391394 C49.3218006,246.016565 52.9449347,246.272691 52.9449347,246.272691 C41.4838732,238.198879 -21.1346893,262.126044 21.1378033,268.978392 C136.421041,287.674044 231.288144,260.559704 201.385221,247.071431" id="Path"></path>
            <path d="M80.5738622,159.294118 C80.5738622,159.294118 28.0788999,171.762558 61.9840859,176.290307 C76.299903,178.206972 104.838117,177.773348 131.420742,175.546062 C153.145534,173.713476 174.959853,169.817089 174.959853,169.817089 C174.959853,169.817089 167.299423,173.097683 161.757289,176.881967 C108.449574,190.901954 5.46895508,184.37969 35.1157519,170.038961 C60.1880889,157.919289 80.5738622,159.294118 80.5738622,159.294118" id="Path"></path>
            <path d="M174.74343,211.931546 C228.933185,183.772461 203.877974,156.711837 186.389774,160.357548 C182.103359,161.249708 180.192144,162.022757 180.192144,162.022757 C180.192144,162.022757 181.783396,159.530004 184.822656,158.451004 C219.419927,146.287737 246.027464,194.325014 173.65431,213.35075 C173.65431,213.351528 174.492753,212.601834 174.74343,211.931546" id="Path"></path>
            <path d="M142.072165,0.310621079 C142.072165,0.310621079 172.083299,30.3318759 113.607908,76.4960848 C66.716581,113.527723 102.915225,134.642171 113.588445,158.766296 C86.2172011,134.070753 66.1303713,112.33117 79.606188,92.0979821 C99.3855107,62.3974689 154.180937,47.9975739 142.072165,0.310621079" id="Path"></path>
            <path d="M85.898795,288.23612 C137.914202,291.56576 217.789751,286.388742 219.681503,261.776498 C219.681503,261.776498 216.045134,271.106808 176.69357,278.516561 C132.297332,286.871411 77.5408303,285.895952 45.0641899,280.541437 C45.0649684,280.540658 51.7125709,286.043867 85.898795,288.23612" id="Path"></path>
            <path d="M77.3742316,382.28035 C72.4673527,386.536403 67.2848852,388.925617 62.6341326,388.925617 C55.9958721,388.925617 52.4093274,384.945151 52.4093274,378.560682 C52.4093274,371.654617 56.2519982,366.605273 71.6686128,366.605273 L77.3734531,366.605273 L77.3734531,382.28035 L77.3742316,382.28035 Z M90.9138852,397.556834 L90.9138852,350.269251 C90.9138852,338.189283 84.0241695,330.218233 67.4125591,330.218233 C57.7147977,330.218233 49.2198172,332.612895 42.3153101,335.666947 L44.3082674,344.037367 C49.7445255,342.042075 56.7813775,340.184576 63.6882201,340.184576 C73.2575291,340.184576 77.3742316,344.037367 77.3742316,352.002969 L77.3742316,357.979505 L72.5981405,357.979505 C49.3482696,357.979505 38.8603318,367.004643 38.8603318,380.551303 C38.8603318,392.242022 45.7718454,398.887289 58.7852338,398.887289 C67.1502049,398.887289 73.394545,395.433868 79.23173,390.379853 L80.2912671,397.557613 L90.9138852,397.557613 L90.9138852,397.556834 Z" id="Shape" fill-rule="nonzero"></path>
            <path d="M136.101078,397.556834 L119.213879,397.556834 L98.8903854,331.415564 L113.637491,331.415564 L126.248395,372.053209 L129.05177,384.274864 C135.431569,366.604495 139.943749,348.677221 142.200617,331.415564 L156.546017,331.415564 C152.702568,353.195629 145.786383,377.101775 136.101078,397.556834" id="Path"></path>
            <path d="M200.882311,382.28035 C195.96609,386.536403 190.77428,388.925617 186.123528,388.925617 C179.496945,388.925617 175.901058,384.945151 175.901058,378.560682 C175.901058,371.654617 179.753071,366.605273 195.168128,366.605273 L200.882311,366.605273 L200.882311,382.28035 Z M214.420407,397.556834 L214.420407,350.269251 C214.420407,338.189283 207.513565,330.218233 190.921417,330.218233 C181.216649,330.218233 172.718554,332.612895 165.817161,335.666947 L167.807004,344.037367 C173.245598,342.042075 180.295684,340.184576 187.197078,340.184576 C196.75938,340.184576 200.882311,344.037367 200.882311,352.002969 L200.882311,357.979505 L196.098435,357.979505 C172.841557,357.979505 162.35829,367.004643 162.35829,380.551303 C162.35829,392.242022 169.264354,398.887289 182.275407,398.887289 C190.645049,398.887289 196.887054,395.433868 202.73436,390.379853 L203.797789,397.557613 L214.420407,397.557613 L214.420407,397.556834 Z" id="Shape" fill-rule="nonzero"></path>
            <path d="M24.0143569,408.789017 C20.1545592,414.424571 13.9203396,418.883034 7.09523938,421.405371 L0.410268944,413.538639 C5.6051924,410.873059 10.0605419,406.56796 12.1305705,402.557912 C13.9211181,398.991608 14.6622491,394.39535 14.6622491,383.403724 L14.6622491,307.893218 L29.0473526,307.893218 L29.0473526,382.369098 C29.0465741,397.064044 27.8718192,403.000099 24.0143569,408.789017" id="Path"></path>
        </g>
    </g>
</svg>