<?xml version="1.0" encoding="UTF-8"?>
<svg width="805px" height="248px" viewBox="0 0 805 248" version="1.1" xmlns="http://www.w3.org/2000/svg" xmlns:xlink="http://www.w3.org/1999/xlink">
    <!-- Generator: Sketch 52.6 (67491) - http://www.bohemiancoding.com/sketch -->
    <title>Group 3</title>
    <desc>Created with Sketch.</desc>
    <g id="Page-1" stroke="none" stroke-width="1" fill="none" fill-rule="evenodd">
        <g id="Group-3" fill="#444444">
            <path d="M103.300781,201.525997 L148.544922,201.525997 L148.544922,244.567989 L84.4824219,244.567989 C68.8003773,244.567989 54.6200178,241.781966 41.940918,236.209835 C29.2618181,230.637704 19.2688354,222.279634 11.9616699,211.135372 C4.65450448,199.991111 1.00097656,186.3446 1.00097656,170.195431 C1.00097656,158.850973 3.1864202,148.724528 7.55737305,139.815792 C11.9283259,130.907056 17.9841735,123.499904 25.7250977,117.594112 C33.4660218,111.688321 42.3579413,107.284068 52.401123,104.381222 C62.4443048,101.478375 73.1379641,100.026974 84.4824219,100.026974 L148.544922,100.026974 L148.544922,143.068966 L103.300781,143.068966 C93.1575014,143.068966 85.6502522,143.369256 80.7788086,143.969845 C75.907365,144.570434 71.5698432,145.5714 67.7661133,146.972775 C63.9623833,148.374149 60.5924626,150.809834 57.65625,154.279903 C54.7200374,157.749973 53.0183943,163.889234 52.5512695,172.697872 C52.8849301,181.239582 54.5865732,187.345478 57.65625,191.015743 C60.7259268,194.686009 64.4628686,197.121694 68.8671875,198.322872 C73.2715064,199.52405 77.8092214,200.358189 82.4804688,200.825314 C87.1517161,201.292438 94.0917508,201.525997 103.300781,201.525997 Z M315.507812,173.098263 C315.507812,188.913772 312.204623,202.393454 305.598145,213.537716 C298.991666,224.681977 289.432436,233.056731 276.920166,238.662228 C264.407896,244.267724 249.476812,247.070431 232.126465,247.070431 C214.776118,247.070431 199.878399,244.251042 187.432861,238.612179 C174.987324,232.973316 165.561555,224.631928 159.155273,213.587765 C152.748991,202.543601 149.545898,189.047236 149.545898,173.098263 C149.545898,161.019752 151.381004,150.392824 155.05127,141.217159 C158.721535,132.041495 164.093389,124.31737 171.166992,118.044552 C178.240595,111.771734 186.915639,107.017143 197.192383,103.780636 C207.469127,100.544129 219.113704,98.9258995 232.126465,98.9258995 C249.41008,98.9258995 264.324482,101.778654 276.870117,107.484249 C289.415753,113.189844 298.991666,121.597963 305.598145,132.708858 C312.204623,143.819754 315.507812,157.282754 315.507812,173.098263 Z M200.895996,173.498653 C200.895996,182.774416 202.981343,190.848879 207.1521,197.722286 C211.322856,204.595693 219.547465,208.032345 231.826172,208.032345 C241.302131,208.032345 248.39231,206.230605 253.096924,202.627071 C257.801537,199.023538 260.737706,194.902892 261.905518,190.265011 C263.073329,185.62713 263.85742,180.0384 264.257812,173.498653 C263.85742,164.222891 261.621928,156.131745 257.55127,149.224972 C253.480611,142.318199 244.905664,138.864864 231.826172,138.864864 C211.205952,138.864864 200.895996,150.409345 200.895996,173.498653 Z M320.412598,244.567989 L320.412598,100.026974 L367.458496,100.026974 L399.089355,160.085567 L430.52002,100.026974 L477.565918,100.026974 L477.565918,244.567989 L430.52002,244.567989 L430.52002,184.509396 L400.290527,244.567989 L397.687988,244.567989 L367.458496,184.509396 L367.458496,244.567989 L320.412598,244.567989 Z M485.57373,100.026974 L532.619629,100.026974 L532.619629,244.567989 L485.57373,244.567989 L485.57373,100.026974 Z M639.924316,201.525997 L685.168457,201.525997 L685.168457,244.567989 L621.105957,244.567989 C605.423912,244.567989 591.243553,241.781966 578.564453,236.209835 C565.885353,230.637704 555.892371,222.279634 548.585205,211.135372 C541.27804,199.991111 537.624512,186.3446 537.624512,170.195431 C537.624512,158.850973 539.809955,148.724528 544.180908,139.815792 C548.551861,130.907056 554.607709,123.499904 562.348633,117.594112 C570.089557,111.688321 578.981476,107.284068 589.024658,104.381222 C599.06784,101.478375 609.761499,100.026974 621.105957,100.026974 L685.168457,100.026974 L685.168457,143.068966 L639.924316,143.068966 C629.781037,143.068966 622.273787,143.369256 617.402344,143.969845 C612.5309,144.570434 608.193378,145.5714 604.389648,146.972775 C600.585918,148.374149 597.215998,150.809834 594.279785,154.279903 C591.343573,157.749973 589.641929,163.889234 589.174805,172.697872 C589.508465,181.239582 591.210108,187.345478 594.279785,191.015743 C597.349462,194.686009 601.086404,197.121694 605.490723,198.322872 C609.895042,199.52405 614.432757,200.358189 619.104004,200.825314 C623.775251,201.292438 630.715286,201.525997 639.924316,201.525997 Z M804.885254,143.068966 L769.650879,143.068966 C752.500728,142.535109 749.964946,147.273017 762.043457,157.282833 C783.664659,176.234751 794.274904,194.652535 793.874512,212.536739 C793.474119,230.420943 782.863874,241.09792 762.043457,244.567989 L685.168457,244.567989 L685.168457,201.525997 L715.598145,201.525997 C734.48333,202.059854 736.88565,196.788097 722.805176,185.710567 C699.582403,164.356294 689.7062,144.73735 693.17627,126.853146 C696.646339,108.968942 707.59024,100.026974 726.008301,100.026974 L804.885254,100.026974 L804.885254,143.068966 Z" id="comics"></path>
            <g id="Group-2">
                <path d="M111.875,26.875 L83.5,26.875 C72.7916131,26.541665 71.2082956,29.4999688 78.75,35.75 C92.2500675,47.5833925 98.8750012,59.0832775 98.625,70.25 C98.3749988,81.4167225 91.750065,88.0833225 78.75,90.25 L0,90.25 L0,63.375 L49.75,63.375 C61.5417256,63.708335 63.0417106,60.4167012 54.25,53.5 C39.7499275,40.1666 33.5833225,27.9167225 35.75,16.75 C37.9166775,5.5832775 44.7499425,0 56.25,0 L111.875,0 L111.875,26.875 Z M178.4375,0 L178.4375,26.875 L149.8125,26.875 L149.8125,90.25 L120.4375,90.25 L120.4375,26.875 L91.8125,26.875 L91.8125,0 L178.4375,0 Z M163.5625,90.25 L193.25,0 L238.0625,0 L268.25,90.25 L234.125,90.25 L228.4375,74 L201.625,74 L195.9375,90.25 L163.5625,90.25 Z M215.75,20 L202.8125,55.75 L227.6875,55.75 L215.75,20 Z M267,90.25 L267,0 L325.75,0 C333.000036,0.66667 338.95831,2.5833175 343.625,5.75 C348.29169,8.9166825 351.708323,13.16664 353.875,18.5 C355.541675,26.50004 355.625008,32.666645 354.125,37 C352.624992,41.333355 350.000019,44.9583187 346.25,47.875 C342.499981,50.7916813 337.125035,53.083325 330.125,54.75 L336.875,63.375 L385.125,63.375 L385.125,90.25 L328.25,90.25 L299.625,60.4375 L299.625,90.25 L267,90.25 Z M299.625,22.5 L299.625,39.125 L322.375,39.125 C323.583339,39.125 324.895826,38.6770878 326.3125,37.78125 C327.729174,36.8854122 328.479166,34.6250181 328.5625,31 C328.354166,27.5416494 327.510424,25.2604222 326.03125,24.15625 C324.552076,23.0520778 323.312505,22.5 322.3125,22.5 L299.625,22.5 Z M477.125,52 L467.625,90.25 L438.25,90.25 L410.75,0 L440.125,0 L452.5,39 L463.25,0 L490.25,0 L502.8125,39 L511.1875,0 L540.5625,0 L517.9375,90.25 L488.5625,90.25 L477.125,52 Z M527,90.25 L556.6875,0 L601.5,0 L631.6875,90.25 L597.5625,90.25 L591.875,74 L565.0625,74 L559.375,90.25 L527,90.25 Z M579.1875,20 L566.25,55.75 L591.125,55.75 L579.1875,20 Z M630.4375,90.25 L630.4375,0 L689.1875,0 C696.437536,0.66667 702.39581,2.5833175 707.0625,5.75 C711.72919,8.9166825 715.145823,13.16664 717.3125,18.5 C718.979175,26.50004 719.062508,32.666645 717.5625,37 C716.062492,41.333355 713.437519,44.9583187 709.6875,47.875 C705.937481,50.7916813 700.562535,53.083325 693.5625,54.75 L700.3125,63.375 L748.5625,63.375 L748.5625,90.25 L691.6875,90.25 L663.0625,60.4375 L663.0625,90.25 L630.4375,90.25 Z M663.0625,22.5 L663.0625,39.125 L685.8125,39.125 C687.020839,39.125 688.333326,38.6770878 689.75,37.78125 C691.166674,36.8854122 691.916666,34.6250181 692,31 C691.791666,27.5416494 690.947924,25.2604222 689.46875,24.15625 C687.989576,23.0520778 686.750005,22.5 685.75,22.5 L663.0625,22.5 Z M804.6875,26.875 L776.3125,26.875 C765.604113,26.541665 764.020796,29.4999688 771.5625,35.75 C785.062568,47.5833925 791.687501,59.0832775 791.4375,70.25 C791.187499,81.4167225 784.562565,88.0833225 771.5625,90.25 L692.8125,90.25 L692.8125,63.375 L742.5625,63.375 C754.354226,63.708335 755.854211,60.4167012 747.0625,53.5 C732.562428,40.1666 726.395823,27.9167225 728.5625,16.75 C730.729177,5.5832775 737.562443,0 749.0625,0 L804.6875,0 L804.6875,26.875 Z" id="STaR-waRS"></path>
                <polygon id="Rectangle" fill-rule="nonzero" points="692 63 749 63 749 90.3 692 90.3"></polygon>
                <polygon id="Rectangle" fill-rule="nonzero" points="628 86.5 634 86.5 634 90.25 628 90.25"></polygon>
                <polygon id="Rectangle" fill-rule="nonzero" points="265 86.5 271 86.5 271 90.25 265 90.25"></polygon>
                <polygon id="Rectangle" fill-rule="nonzero" points="91 4.61852778e-14 112 4.61852778e-14 112 26.9 91 26.9"></polygon>
            </g>
        </g>
    </g>
</svg>