<?xml version="1.0" encoding="UTF-8"?>
<svg width="124px" height="122px" viewBox="0 0 124 122" version="1.1" xmlns="http://www.w3.org/2000/svg" xmlns:xlink="http://www.w3.org/1999/xlink">
    <!-- Generator: Sketch 52.6 (67491) - http://www.bohemiancoding.com/sketch -->
    <title>mongo</title>
    <desc>Created with Sketch.</desc>
    <g id="Page-1" stroke="none" stroke-width="1" fill="none" fill-rule="evenodd">
        <g id="mongo" fill="#444444">
            <path d="M80.803,31.23 C78.199,23.122 74.022,15.946 68.136,9.771 C66.648,8.209 64.994,6.778 63.956,4.835 C63.3,3.605 62.675,2.358 62.036,1.12 L61.63,0.099 L61.517,0.501 C61.464,2.521 60.32,3.89 58.896,5.169 C57.292,6.607 55.8,8.169 54.26,9.678 L49.524,15.907 L45.695,22.949 L43.134,29.864 L43.057,29.971 C41.648,34.6 40.953,39.36 40.612,44.166 C40.483,45.973 40.631,47.805 40.732,49.621 C40.877,52.217 41.328,54.768 42.004,57.281 C44.461,66.407 49.448,73.976 56.267,80.408 C57.533,81.603 58.902,82.69 60.223,83.826 L60.808,85.834 L61.352,88.95 L61.612,92.203 C61.609,92.863 61.582,93.526 61.621,94.184 C61.632,94.353 61.852,94.509 61.976,94.671 L63.08,95.059 L64.229,95.506 L64.032,92.615 L64.023,89.767 L64.42,85.429 L64.708,84.485 L65.533,83.024 C66.551,82.206 67.642,81.462 68.569,80.551 C70.246,78.904 71.92,77.234 73.421,75.429 C75.368,73.088 77.044,70.533 78.39,67.793 C79.289,65.96 80.137,64.09 80.838,62.175 C81.456,60.487 81.839,58.712 82.326,56.975 L82.454,56.6 C83.459,51.912 83.628,47.176 83.259,42.41 C82.962,38.569 82.059,34.862 80.803,31.23 Z M60.903,81.505 C61.057,80.734 61.248,79.967 61.387,79.193 C61.248,79.967 61.058,80.734 60.903,81.505 Z M64.32,82.037 L63.674,80.622 L64.32,82.037 L65.269,82.848 L64.32,82.037 Z M104.474,99.964 C103.648,98.381 102.436,97.179 100.834,96.39 C99.492,95.73 98.049,95.44 96.565,95.398 C95.453,95.366 94.337,95.423 93.223,95.437 C92.234,95.449 91.244,95.466 90.255,95.457 C89.092,95.445 87.929,95.41 86.766,95.377 C86.573,95.371 86.436,95.41 86.346,95.606 C86.205,95.911 86.038,96.205 85.865,96.539 L86.059,96.601 C86.636,96.703 87.216,96.79 87.79,96.905 C88.528,97.052 88.86,97.476 88.894,98.098 C88.944,98.984 88.964,99.872 88.961,100.76 C88.946,104.274 88.921,107.788 88.895,111.301 C88.893,111.533 88.889,111.775 88.826,111.993 C88.753,112.245 88.674,112.571 88.486,112.695 C88.161,112.911 87.758,113.057 87.371,113.12 C86.81,113.212 86.716,113.237 86.541,113.789 L86.465,114.065 C86.381,114.366 86.426,114.425 86.74,114.428 C88.542,114.448 90.343,114.487 92.144,114.481 C93.787,114.475 95.43,114.575 97.067,114.266 C98.614,113.975 100.058,113.465 101.376,112.602 C103.086,111.481 104.316,109.983 104.965,108.028 C105.489,106.449 105.606,104.838 105.428,103.187 C105.307,102.048 105.001,100.975 104.474,99.964 Z M101.317,109.625 C100.353,111.419 98.915,112.617 96.86,112.933 C95.573,113.13 94.284,113.073 93.057,112.586 C92.28,112.278 91.991,111.607 91.967,110.814 C91.944,110.037 91.935,109.259 91.934,108.482 C91.93,105.748 91.93,103.014 91.934,100.281 C91.936,99.42 91.951,98.557 91.965,97.695 C91.975,97.089 92.102,96.886 92.693,96.837 C95.289,96.619 97.766,96.899 99.823,98.726 C101.095,99.856 101.819,101.297 102.12,102.952 C102.245,103.642 102.283,104.348 102.361,105.048 C102.298,106.646 102.082,108.201 101.317,109.625 Z M123.106,106.664 C122.594,105.418 121.624,104.637 120.405,104.137 C119.989,103.966 119.56,103.825 119.111,103.659 L119.268,103.559 C119.753,103.248 120.293,102.997 120.711,102.614 C121.727,101.683 122.149,100.512 121.951,99.121 C121.763,97.798 121.103,96.827 119.924,96.197 C118.854,95.627 117.7,95.419 116.506,95.42 C114.44,95.422 112.373,95.453 110.307,95.457 C109.595,95.458 108.883,95.405 108.171,95.395 C108.033,95.393 107.828,95.428 107.769,95.52 C107.606,95.77 107.498,96.058 107.382,96.336 C107.315,96.498 107.381,96.587 107.566,96.611 C108.063,96.679 108.559,96.764 109.057,96.838 C109.745,96.941 110.078,97.299 110.12,97.992 L110.129,98.403 C110.13,100.558 110.137,102.713 110.128,104.868 C110.117,107.019 110.093,109.172 110.067,111.324 C110.064,111.595 110.027,111.867 109.988,112.136 C109.929,112.542 109.712,112.822 109.296,112.91 L108.119,113.142 C107.98,113.17 107.779,113.166 107.722,113.252 C107.506,113.575 107.332,113.928 107.356,114.354 L107.477,114.387 L111.43,114.484 L112.223,114.481 C113.591,114.465 114.961,114.492 116.327,114.422 C117.806,114.348 119.195,113.909 120.479,113.154 C121.846,112.349 122.898,111.288 123.272,109.692 C123.512,108.673 123.513,107.648 123.106,106.664 Z M113.063,97.483 C113.069,97.05 113.26,96.862 113.69,96.851 C114.749,96.822 115.801,96.828 116.823,97.193 C118.145,97.665 118.958,98.805 118.943,100.198 C118.936,100.733 118.944,101.263 118.747,101.777 C118.358,102.789 117.612,103.323 116.554,103.427 C116.002,103.483 115.445,103.489 114.953,103.515 L113.311,103.443 C113.093,103.435 112.998,103.339 112.999,103.115 L113.063,97.483 Z M119.869,110.977 C119.34,112.128 118.376,112.733 117.169,112.943 C116.204,113.111 115.231,113.062 114.277,112.816 C113.571,112.635 113.283,112.068 113.142,111.439 C113.047,111.018 113.063,110.517 113.055,110.079 C113.042,109.403 113.052,108 113.052,108 L113.038,108 C113.038,107 113.041,106.134 113.035,105.175 C113.034,104.968 113.069,104.865 113.322,104.873 C114.22,104.9 115.121,104.915 116.019,104.95 C116.822,104.981 117.574,105.219 118.281,105.6 C119.357,106.18 120.005,107.068 120.183,108.288 C120.319,109.213 120.261,110.123 119.869,110.977 Z M21.282,112.055 L21.301,106.618 C21.304,105.8 21.2,104.998 20.932,104.222 C20.193,102.085 18.155,101.112 16.033,101.879 C15.068,102.228 14.203,102.757 13.377,103.357 C12.896,103.707 12.896,103.707 12.548,103.208 C11.563,101.796 10.156,101.313 8.518,101.834 C7.459,102.17 6.533,102.745 5.656,103.413 C5.574,103.475 5.409,103.544 5.36,103.507 C5.278,103.446 5.221,103.301 5.223,103.192 L5.283,102.226 C5.288,102.023 5.249,101.819 5.229,101.606 C4.833,101.743 4.517,101.88 4.186,101.96 C3.163,102.21 2.133,102.44 1.104,102.675 C0.855,102.732 0.592,102.807 0.568,103.093 C0.543,103.374 0.814,103.421 1.024,103.505 C1.466,103.683 1.905,103.872 2.342,104.064 C2.709,104.226 2.846,104.519 2.844,104.913 C2.837,106.598 2.848,108.281 2.838,109.966 C2.834,110.651 2.802,111.335 2.771,112.02 C2.743,112.627 2.536,112.881 1.948,113.034 C1.636,113.116 1.319,113.171 1.005,113.245 C0.936,113.261 0.818,113.305 0.817,113.339 C0.804,113.636 0.788,113.94 0.838,114.229 C0.848,114.281 1.162,114.281 1.336,114.301 L1.453,114.294 C2.665,114.276 3.877,114.257 5.09,114.244 C5.733,114.237 6.375,114.243 7.073,114.243 L7.148,113.273 C6.748,113.2 6.391,113.145 6.039,113.068 C5.49,112.948 5.256,112.657 5.242,112.103 L5.232,111.31 C5.226,109.253 5.218,107.197 5.218,105.14 C5.218,104.841 5.342,104.604 5.605,104.425 C6.162,104.049 6.75,103.75 7.401,103.583 C8.773,103.232 9.963,103.72 10.491,104.887 C10.658,105.255 10.789,105.662 10.826,106.062 C11.02,108.124 10.936,110.188 10.819,112.25 C10.794,112.695 10.585,112.919 10.146,113.028 L9.114,113.246 C9.031,113.267 8.91,113.211 8.904,113.28 C8.881,113.565 8.894,114.002 8.894,114.002 L9.14,114.002 L12.282,114.105 C13.143,114.103 14.005,114.207 14.865,114.229 C15.019,114.232 15.156,114.255 15.165,114.077 C15.179,113.795 15.167,113.53 15.154,113.248 L14.99,113.219 L14.105,113.02 C13.508,112.879 13.302,112.652 13.3,112.048 C13.293,110.559 13.313,109.071 13.3,107.583 C13.293,106.732 13.26,105.881 13.205,105.032 C13.19,104.806 13.225,104.658 13.405,104.531 C13.935,104.153 14.508,103.862 15.137,103.696 C17.072,103.186 18.656,104.247 18.756,106.242 C18.854,108.166 18.813,110.097 18.798,112.025 C18.793,112.696 18.571,112.899 17.91,113.079 L17.682,113.138 C17.005,113.3 17.011,113.3 17.051,114.019 C17.064,114.244 17.126,114.302 17.366,114.296 C18.745,114.265 20.124,114.257 21.503,114.245 C22.067,114.24 22.631,114.245 23.245,114.245 L23.37,113.309 C22.831,113.166 22.334,113.06 21.854,112.903 C21.43,112.759 21.28,112.503 21.282,112.055 Z M68.771,103.814 C69.339,103.287 69.343,102.591 69.184,101.818 C68.734,102.289 68.23,102.506 67.655,102.547 C66.884,102.602 66.127,102.535 65.409,102.228 C63.467,101.394 61.555,101.453 59.649,102.368 C58.046,103.136 57.06,104.333 56.961,106.148 C56.898,107.311 57.116,108.412 57.892,109.337 C58.357,109.891 58.954,110.25 59.627,110.498 C59.917,110.605 59.939,110.743 59.696,110.928 C59.518,111.065 59.329,111.189 59.139,111.308 C58.733,111.563 58.324,111.815 57.913,112.062 C57.672,112.208 57.59,112.394 57.669,112.679 C57.9,113.517 58.495,114.001 59.239,114.354 L59.51,114.543 L59.273,114.78 C58.544,115.371 57.786,115.929 57.088,116.556 C56.502,117.083 56.313,117.789 56.49,118.568 C56.847,120.123 57.878,121.085 59.341,121.527 C61.898,122.301 64.299,121.857 66.488,120.342 C67.786,119.443 68.717,118.273 69,116.663 C69.317,114.854 68.312,113.284 66.513,112.96 C65.323,112.744 64.105,112.682 62.901,112.544 C62.339,112.48 61.769,112.442 61.222,112.313 C60.757,112.203 60.526,111.824 60.569,111.454 C60.612,111.09 60.999,110.751 61.442,110.716 C62.334,110.644 63.208,110.505 64.03,110.129 C66.208,109.133 67.219,107.389 66.966,105.041 C66.933,104.725 66.861,104.413 66.796,104.045 C67.493,104.162 68.206,104.339 68.771,103.814 Z M62.162,114.831 C63.048,114.857 64.056,114.912 65.03,115.197 C65.887,115.447 66.592,115.885 66.8,116.842 C67.051,117.998 66.495,119.148 65.376,119.766 C64.328,120.344 63.19,120.392 62.036,120.273 C61.048,120.171 60.159,119.829 59.447,119.099 C58.509,118.138 58.504,116.808 59.443,115.85 C60.282,114.994 60.731,114.817 62.162,114.831 Z M64.379,107.869 C63.863,109.52 62.361,109.748 61.184,109.22 C60.181,108.771 59.744,107.887 59.515,106.878 C59.426,106.49 59.405,106.087 59.353,105.69 C59.374,105.121 59.468,104.575 59.713,104.063 C60.464,102.486 62.309,102.58 63.33,103.294 C63.768,103.6 64.073,104.016 64.264,104.509 C64.688,105.613 64.731,106.738 64.379,107.869 Z M55.009,113.132 C54.654,113.075 54.297,113.001 53.952,112.896 C53.344,112.71 53.27,112.596 53.263,111.953 C53.245,110.161 53.233,108.369 53.213,106.578 C53.203,105.772 53.107,104.977 52.86,104.207 C52.21,102.177 50.219,101.087 48.227,101.686 C47.123,102.019 46.175,102.638 45.292,103.365 L44.97,103.612 L44.971,103.281 C44.992,102.9 45.033,102.519 45.03,102.138 C45.028,101.939 44.952,101.739 44.915,101.564 C44.162,101.791 43.487,102.019 42.798,102.193 C42.107,102.367 41.402,102.485 40.703,102.627 C40.356,102.697 40.101,102.907 40.107,103.146 C40.116,103.483 40.395,103.548 40.639,103.649 C41.081,103.83 41.522,104.013 41.959,104.207 C42.271,104.346 42.398,104.604 42.395,104.939 C42.373,107.268 42.359,109.598 42.325,111.928 C42.315,112.664 42.129,112.858 41.405,113.02 L41.089,113.083 C40.419,113.198 40.4,113.225 40.446,113.932 L40.45,114.049 C40.442,114.321 40.561,114.409 40.841,114.406 C42.621,114.385 44.402,114.375 46.182,114.382 C46.945,114.385 47.027,114.325 47.011,113.541 L46.975,113.204 C46.539,113.131 46.122,113.078 45.714,112.988 C45.287,112.893 45.134,112.718 45.094,112.284 C45.057,111.887 45.045,111.484 45.041,111.084 C45.021,109.253 45.005,107.422 44.996,105.592 C44.994,105.131 45.079,104.703 45.503,104.406 C46.146,103.957 46.85,103.697 47.628,103.644 C49.216,103.535 50.423,104.476 50.509,106.059 C50.615,108.012 50.583,109.972 50.608,111.929 C50.61,112.075 50.584,112.222 50.564,112.367 C50.526,112.653 50.386,112.868 50.096,112.942 C49.813,113.016 49.526,113.082 49.237,113.126 C48.806,113.19 48.797,113.187 48.764,113.622 L48.775,113.915 C48.826,114.421 48.827,114.406 49.339,114.401 C51.061,114.387 52.782,114.378 54.503,114.38 C55.223,114.382 55.274,114.348 55.28,113.606 L55.278,113.43 C55.289,113.24 55.204,113.163 55.009,113.132 Z M79.061,101.809 C77.256,101.368 75.544,101.696 73.918,102.537 C72.338,103.354 71.282,104.617 70.88,106.361 C70.474,108.124 70.668,109.844 71.447,111.481 C71.954,112.544 72.734,113.366 73.796,113.9 C76.282,115.152 79.323,114.584 81.273,112.909 C82.812,111.588 83.377,109.829 83.411,107.652 C83.39,107.434 83.369,107.014 83.311,106.598 C82.984,104.228 81.343,102.367 79.061,101.809 Z M80.428,110.964 C79.949,112.85 78.318,113.688 76.478,113.04 C75.539,112.71 74.837,112.079 74.365,111.226 C73.279,109.266 73.07,107.182 73.688,105.044 C74.1,103.62 75.272,102.841 76.666,102.939 C77.912,103.026 78.87,103.624 79.573,104.638 C80.314,105.708 80.6,106.925 80.676,108.203 C80.689,108.408 80.678,108.613 80.678,108.819 L80.766,108.829 C80.656,109.542 80.604,110.269 80.428,110.964 Z M33.664,101.778 C31.765,101.344 29.986,101.773 28.338,102.738 C26.913,103.572 25.992,104.818 25.639,106.446 C25.308,107.967 25.443,109.462 25.982,110.919 C26.31,111.807 26.807,112.588 27.536,113.197 C29.071,114.478 30.865,114.802 32.774,114.445 C34.39,114.142 35.81,113.424 36.842,112.081 C37.808,110.825 38.176,109.383 38.214,107.82 C38.157,107.325 38.143,106.821 38.038,106.338 C37.516,103.927 36.106,102.335 33.664,101.778 Z M35.213,110.958 C34.75,112.834 33.093,113.693 31.266,113.045 C30.093,112.628 29.329,111.769 28.846,110.668 C28.072,108.899 27.914,107.058 28.415,105.192 C28.799,103.765 29.956,102.714 31.727,102.966 C32.814,103.12 33.662,103.675 34.294,104.558 C35.148,105.749 35.429,107.113 35.468,108.546 L35.468,108.839 L35.54,108.85 C35.435,109.554 35.383,110.27 35.213,110.958 Z" id="Shape"></path>
        </g>
    </g>
</svg>