<?xml version="1.0" encoding="UTF-8"?>
<svg width="2260px" height="2490px" viewBox="0 0 2260 2490" version="1.1" xmlns="http://www.w3.org/2000/svg" xmlns:xlink="http://www.w3.org/1999/xlink">
    <!-- Generator: Sketch 52.6 (67491) - http://www.bohemiancoding.com/sketch -->
    <title>nodejs</title>
    <desc>Created with Sketch.</desc>
    <g id="Page-1" stroke="none" stroke-width="1" fill="none" fill-rule="evenodd">
        <g id="nodejs" transform="translate(-5.000000, -5.000000)" fill="#444444">
            <path d="M1033.06281,31.7445312 C1094.79617,-3.59121094 1175.20383,-3.75082031 1236.88398,31.7445312 C1547.19121,207.084297 1857.59598,382.14918 2167.85,557.595352 C2226.20496,590.466016 2265.23832,655.409297 2264.64422,722.64918 L2264.64422,1777.56074 C2265.07871,1847.58492 2222.18812,1914.07996 2160.62324,1946.20578 C1851.33574,2120.57902 1542.20785,2295.16508 1232.97355,2469.53832 C1169.96332,2505.5657 1087.94184,2502.79027 1026.90012,2463.81012 C934.175938,2410.05723 841.292148,2356.57035 748.559102,2302.87066 C729.609922,2291.57387 708.248867,2282.58254 694.868281,2264.20973 C706.697109,2248.26652 727.845352,2246.28027 745.029961,2239.31953 C783.735234,2227.01187 819.283789,2207.25578 854.841211,2188.08492 C863.832539,2181.93109 874.810117,2184.28977 883.429023,2189.79629 C962.719414,2235.25836 1041.3093,2282.04164 1120.8657,2327.06922 C1137.8375,2336.86746 1155.02211,2323.8593 1169.52883,2315.77242 C1473.03492,2144.23668 1776.91344,1973.34824 2080.36633,1801.7593 C2091.60992,1796.35031 2097.82582,1784.41508 2096.9125,1772.09855 C2097.12531,1424.10578 2096.9657,1076.05094 2097.01891,728.058164 C2098.30465,714.083477 2090.21777,701.234922 2077.58203,695.515586 C1769.36746,521.940391 1461.3125,348.09918 1153.15113,174.479648 C1142.22261,166.966418 1127.79936,166.94528 1116.84887,174.426445 C808.6875,348.09918 500.685742,522.1 192.524375,695.666328 C179.932969,701.394531 171.482539,714.030273 172.981094,728.058164 C173.034297,1076.05094 172.981094,1424.10578 172.981094,1772.15176 C171.886676,1784.45994 178.574259,1796.14729 189.740078,1801.44008 C271.974375,1848.07262 354.315078,1894.37707 436.602578,1940.85 C482.960234,1965.80227 539.878711,1980.6282 590.953711,1961.51055 C636.025625,1945.34566 667.619414,1899.35156 666.759297,1851.49535 C667.184922,1505.53316 666.546484,1159.51777 667.078516,813.608789 C665.952383,798.25082 680.521172,785.561875 695.453516,787.007227 C734.965703,786.741211 774.531094,786.475195 814.043281,787.113633 C830.53625,786.741211 841.88625,803.278516 839.846797,818.751758 C839.687187,1166.90414 840.272422,1515.06539 839.580781,1863.21777 C839.687187,1956.00402 801.567148,2056.96582 715.741641,2102.36582 C610.009297,2157.13844 479.324687,2145.52242 374.869219,2093.00207 C284.441641,2047.86809 198.146172,1994.60289 109.323555,1946.25012 C47.5990625,1914.30164 4.92128906,1847.54059 5.35578125,1777.56961 L5.35578125,722.64918 C4.70847656,654.017148 45.2935937,587.894531 105.466328,555.502695 C414.700625,380.987578 723.881719,206.339453 1033.06281,31.7445312 Z" id="Path"></path>
            <path d="M1302.83812,762.489453 C1437.70805,753.808477 1582.09246,757.346484 1703.45766,823.78832 C1797.42324,874.703711 1849.51797,981.562188 1851.17613,1085.95559 C1848.55145,1100.03668 1833.83191,1107.80434 1820.38926,1106.83781 C1781.25836,1106.78461 1742.11859,1107.36984 1702.9877,1106.5718 C1686.38832,1107.21023 1676.74082,1091.90547 1674.65703,1077.23027 C1663.41344,1027.28141 1636.17344,977.811367 1589.15961,953.719219 C1516.98957,917.58543 1433.30992,919.403203 1354.61363,920.156914 C1297.16313,923.207227 1235.38543,928.181719 1186.71344,961.965703 C1149.34711,987.556406 1137.99711,1039.21664 1151.33336,1080.82148 C1163.90703,1110.69504 1198.39152,1120.33367 1226.60691,1129.21859 C1389.14246,1171.72789 1561.37871,1167.49824 1720.81074,1223.44133 C1786.81809,1246.24773 1851.38895,1290.58367 1873.98254,1359.69453 C1903.53688,1452.32117 1890.58191,1563.03687 1824.68098,1637.39711 C1771.23844,1698.58957 1693.40227,1731.89473 1615.77004,1749.98379 C1512.49391,1773.01188 1405.31621,1773.59711 1300.43512,1763.37324 C1201.81426,1752.12965 1099.18543,1726.21973 1023.05176,1659.02418 C957.948867,1602.49586 926.151133,1514.41809 929.307852,1429.40836 C930.061562,1415.05238 944.355469,1405.04133 958.108477,1406.22066 C997.514258,1405.90145 1036.92004,1405.79504 1076.32582,1406.27387 C1092.06508,1405.14773 1103.7343,1418.75 1104.54121,1433.5848 C1111.8123,1481.175 1129.69742,1531.12387 1171.19586,1559.33926 C1251.2843,1611.00836 1351.77613,1607.47035 1443.48059,1608.9157 C1519.45465,1605.54617 1604.73926,1604.52645 1666.73863,1554.31156 C1699.44969,1525.67055 1709.14152,1477.75227 1700.30094,1436.52871 C1690.72437,1401.725 1654.3157,1385.50691 1623.05,1374.90176 C1462.59824,1324.14598 1288.43781,1342.56313 1129.53781,1285.16582 C1065.02902,1262.36828 1002.64836,1219.26488 977.86457,1152.99152 C943.282539,1059.19441 959.128203,943.176133 1031.93668,871.325313 C1102.92738,799.855781 1205.40547,772.332031 1302.83812,762.480586 L1302.83812,762.489453 Z" id="Path"></path>
        </g>
    </g>
</svg>