<?xml version="1.0" encoding="UTF-8"?>
<svg width="408px" height="423px" viewBox="0 0 408 423" version="1.1" xmlns="http://www.w3.org/2000/svg" xmlns:xlink="http://www.w3.org/1999/xlink">
    <!-- Generator: Sketch 52.6 (67491) - http://www.bohemiancoding.com/sketch -->
    <title>postgres</title>
    <desc>Created with Sketch.</desc>
    <g id="Page-1" stroke="none" stroke-width="1" fill="none" fill-rule="evenodd">
        <g id="postgres" transform="translate(6.000000, 7.000000)" stroke="#444444">
            <path d="M197.866,268.484 C196.481,318 198.214,367.861 203.059,379.979 C207.907,392.097 218.282,415.667 253.959,408.024 C283.765,401.634 294.61,389.268 299.316,361.973 C302.782,341.891 309.464,286.119 310.321,274.692" id="Path" stroke-width="12.4651" stroke-linecap="round" stroke-linejoin="round"></path>
            <path d="M155.104,20.256 C155.104,20.256 -6.417,-45.76 1.092,104.365 C2.689,136.303 46.871,346.029 99.565,282.681 C118.821,259.515 136.236,241.346 136.236,241.346" id="Path" stroke-width="12.4651" stroke-linecap="round" stroke-linejoin="round"></path>
            <path d="M242.349,8.207 C236.758,9.96 332.197,-26.682 386.436,42.624 C405.595,67.108 383.393,167.143 330.283,245.953" id="Path" stroke-width="12.4651" stroke-linecap="round" stroke-linejoin="round"></path>
            <path d="M330.282,245.953 C330.282,245.953 333.743,262.989 384.046,252.606 C406.086,248.054 392.822,265.38 370.469,275.761 C352.124,284.275 310.995,286.457 310.323,274.692 C308.594,244.337 331.97,253.559 330.283,245.953 C328.758,239.103 318.304,232.38 311.389,215.615 C305.352,200.982 228.593,88.766 332.676,105.432 C336.489,104.643 305.53,6.43 208.123,4.833 C110.738,3.236 113.933,124.595 113.933,124.595" id="Path" stroke-width="12.4651" stroke-linecap="round" stroke-linejoin="bevel"></path>
            <path d="M170.604,256.334 C157.027,271.5 161.02,274.163 133.881,279.751 C106.422,285.411 122.555,295.484 133.084,298.116 C145.852,301.311 175.391,305.834 195.35,277.887 C201.428,269.378 195.314,255.801 186.965,252.34 C182.931,250.669 177.537,248.575 170.604,256.334 Z" id="Path" stroke-width="12.4651" stroke-linecap="round" stroke-linejoin="round"></path>
            <path d="M169.715,256.069 C168.347,247.152 172.645,236.541 177.251,224.127 C184.173,205.501 200.144,186.872 187.368,127.788 C177.845,83.759 113.972,118.625 113.932,124.595 C113.893,130.563 116.821,154.855 112.865,183.143 C107.703,220.056 136.353,251.275 169.344,248.081" id="Path" stroke-width="12.4651" stroke-linecap="round" stroke-linejoin="round"></path>
            <path d="M154.517,123.7 C154.229,125.739 158.25,131.18 163.493,131.907 C168.727,132.637 173.207,128.385 173.491,126.348 C173.775,124.309 169.759,122.063 164.514,121.333 C159.277,120.602 154.795,121.666 154.518,123.7 L154.517,123.7 Z" id="Path" stroke-width="4.155" fill="#444444"></path>
            <path d="M313.941,119.543 C314.225,121.582 310.209,127.023 304.965,127.75 C299.727,128.48 295.247,124.228 294.96,122.191 C294.683,120.152 298.7,117.906 303.939,117.176 C309.178,116.446 313.657,117.509 313.941,119.544 L313.941,119.543 Z" id="Path" stroke-width="2.0775" fill="#444444"></path>
            <path d="M332.676,105.432 C333.539,121.426 329.231,132.32 328.688,149.346 C327.884,174.094 340.487,202.42 321.497,230.781" id="Path" stroke-width="12.4651" stroke-linecap="round" stroke-linejoin="round"></path>
        </g>
    </g>
</svg>