<?xml version="1.0" encoding="UTF-8"?>
<svg width="515px" height="153px" viewBox="0 0 515 153" version="1.1" xmlns="http://www.w3.org/2000/svg" xmlns:xlink="http://www.w3.org/1999/xlink">
    <!-- Generator: Sketch 52.6 (67491) - http://www.bohemiancoding.com/sketch -->
    <title>UMaine_fullcrest_logo4c_black</title>
    <desc>Created with Sketch.</desc>
    <g id="Page-1" stroke="none" stroke-width="1" fill="none" fill-rule="evenodd">
        <g id="UMaine_fullcrest_logo4c_black" fill="#444444">
            <g id="Text" transform="translate(130.000000, 2.000000)">
                <path d="M22.9867,35.9706 C20.7697,35.9706 18.4487,36.1936 16.2327,36.1936 C12.5387,36.1936 8.7387,36.0816 5.0457,35.9706 L5.0457,38.8586 C8.5277,38.8586 10.8497,39.3036 12.3277,40.6376 C13.8047,41.9696 14.3327,44.4136 14.3327,48.3016 C14.3327,63.5216 13.5937,78.6296 13.1717,93.8496 C12.7497,108.7346 8.1067,110.6236 0.6127,110.6236 L0.6127,113.5116 C5.2567,113.4006 10.0057,113.2896 14.6497,113.2896 C18.9767,113.2896 23.4087,113.5116 27.7357,113.5116 L27.7357,110.6236 C23.5137,110.6236 20.8757,110.2896 19.1877,108.7346 C17.4987,107.1796 16.9707,104.1796 16.9707,98.7376 C16.9707,97.1806 17.0757,93.1826 17.0757,91.7386 L17.9207,51.5236 L18.1327,51.5236 C28.1577,72.5196 38.2887,93.2936 47.2597,114.5116 L49.3697,114.5116 C50.2147,111.6226 52.3247,106.1796 53.4857,103.5136 L78.3917,49.0796 L78.6037,49.0796 L79.3417,102.0686 C79.3417,106.4016 78.4977,108.5126 76.5977,109.6236 C74.8047,110.6236 72.1657,110.6236 68.4717,110.6236 L68.4717,113.5116 C73.6437,113.4006 78.7087,113.2896 83.8807,113.2896 C89.6847,113.2896 95.4887,113.5116 101.2927,113.5116 L101.2927,110.6236 C90.7397,110.6236 90.0007,108.1796 89.7907,99.8486 C89.3687,83.0726 88.4187,64.4106 88.4187,46.8566 C88.4187,43.1916 89.0517,41.3026 90.4227,40.1926 C91.7957,39.0806 94.2227,38.8586 97.8107,38.8586 L97.8107,35.9706 C94.7507,35.9706 91.5847,36.1936 88.5237,36.1936 C85.6747,36.1936 82.7197,36.0816 79.8697,35.9706 C71.1107,57.0776 60.8737,77.5186 51.3757,98.2916 L22.9867,35.9706 Z" id="Fill-1"></path>
                <path d="M143.2641,47.1908 L143.4751,47.1908 L154.7681,79.8518 L133.0281,79.8518 L143.2641,47.1908 Z M148.7521,32.8608 L146.9581,32.8608 C145.4801,35.4148 143.0531,36.6368 140.8371,37.7478 C141.0481,38.6368 141.0481,39.5258 141.0481,40.6378 C141.0481,43.9698 139.6761,48.0798 138.8311,50.6348 L125.3231,90.2928 C123.9511,94.4048 122.6841,98.7378 120.9961,102.7358 C118.3581,108.9568 117.1971,109.8458 110.7591,110.6238 L110.7591,113.5118 C114.9801,113.4008 119.3071,113.2898 123.5291,113.2898 C127.6441,113.2898 131.8671,113.5118 135.9821,113.5118 L135.9821,110.6238 L133.5541,110.6238 C129.8621,110.4008 126.3791,110.6238 126.3791,105.4018 C126.3791,101.9598 127.8551,96.8478 129.2271,92.1828 L131.5491,84.4058 L156.3511,84.4058 L161.6281,100.5138 C162.3651,102.6248 163.2101,105.7348 163.2101,106.9578 C163.2101,110.0678 160.0451,110.6238 157.4051,110.6238 L155.5051,110.6238 L155.5051,113.5118 C160.6771,113.4008 165.7431,113.2898 170.9141,113.2898 C174.9241,113.2898 179.0391,113.5118 183.0511,113.5118 L183.0511,110.6238 C179.6741,110.6238 176.5081,109.8458 174.9241,107.6238 C173.2361,105.1798 170.3861,95.7368 168.9091,91.4058 L148.7521,32.8608 Z" id="Fill-3"></path>
                <path d="M202.175,102.6251 C202.175,110.4001 198.165,110.5131 192.571,110.6241 L192.571,113.5111 C197.848,113.4001 202.808,113.2901 207.874,113.2901 C212.518,113.2901 217.055,113.5111 222.121,113.5111 L222.121,110.6241 C216.527,110.5131 212.518,110.4001 212.518,102.6251 L212.518,46.8571 C212.518,39.0811 216.527,38.9701 222.121,38.8591 L222.121,35.9711 C216.845,36.0821 211.99,36.1931 207.136,36.1931 C202.386,36.1931 197.531,36.0821 192.571,35.9711 L192.571,38.8591 C198.165,38.9701 202.175,39.0811 202.175,46.8571 L202.175,102.6251 Z" id="Fill-5"></path>
                <path d="M305.79,50.302 C305.79,39.415 309.273,38.859 315.709,38.859 L315.709,35.971 C311.593,35.971 307.584,36.193 303.468,36.193 C298.613,36.193 293.653,36.082 288.798,35.971 L288.798,38.859 C299.352,38.97 301.568,42.081 301.568,52.301 L301.568,96.515 C294.392,88.295 284.472,77.296 275.501,66.854 C263.47,52.857 253.656,42.748 249.328,35.971 C246.479,35.971 243.524,36.193 240.674,36.193 C237.402,36.193 234.236,36.082 230.966,35.971 L230.966,38.859 C240.041,38.859 243.946,42.303 243.946,51.857 L243.946,96.515 C243.946,110.624 239.091,110.624 232.653,110.624 L232.653,113.512 C237.297,113.401 242.046,113.29 246.69,113.29 C251.334,113.29 256.083,113.512 260.727,113.512 L260.727,110.624 C249.328,110.624 248.168,107.513 248.168,92.182 L248.168,50.746 L303.362,114.512 L305.79,114.512 L305.79,50.302 Z" id="Fill-7"></path>
                <path d="M345.9951,39.5255 L358.3431,39.5255 C368.8961,39.5255 373.6451,42.6355 375.2281,53.0785 L377.3391,52.5235 L377.3391,35.9705 C367.1021,36.1935 357.0771,36.1935 346.9451,36.1935 C339.8741,36.1935 332.6971,36.1935 325.6271,35.9705 L325.6271,38.8595 C333.9651,39.1925 335.6521,39.6365 335.6521,48.7465 L335.6521,98.0705 C335.6521,108.8455 334.8081,110.6235 325.6271,110.6235 L325.6271,113.5115 C333.4371,113.2895 341.2461,113.2895 349.0551,113.2895 C359.6101,113.2895 370.1621,113.5115 380.7161,113.5115 C381.7721,107.7345 383.3551,102.0685 385.0421,96.5155 L382.5091,96.0715 C378.3941,107.9565 373.7501,109.4015 363.4081,109.9565 L356.8641,109.9565 C346.4171,109.9565 345.9951,106.8475 345.9951,94.5155 L345.9951,75.6295 L357.2861,75.6295 C365.4131,75.6295 368.7901,75.6295 368.7901,86.2945 L370.9011,86.2945 C371.0071,82.7395 370.4791,77.5185 370.4791,73.9645 C370.4791,69.9645 370.6901,63.9655 370.9011,61.5225 L368.7901,61.5225 C368.4741,64.0765 368.4741,71.0755 359.9261,71.0755 L345.9951,71.0755 L345.9951,39.5255 Z" id="Fill-9"></path>
                <path d="M11.708,16.9228 C11.708,19.7268 11.528,19.9378 10.17,20.1498 L8.813,20.2998 C8.572,20.4808 8.572,21.1738 8.813,21.3548 C10.923,21.2948 12.492,21.2648 13.939,21.2648 C15.296,21.2648 16.803,21.2948 18.764,21.3548 C18.975,21.1738 18.975,20.4808 18.764,20.2998 L17.557,20.1498 C16.201,19.9378 16.02,19.7268 16.02,16.9228 L16.02,3.6248 C16.02,2.8418 16.11,2.7508 16.834,2.7508 L18.643,2.7508 C20.904,2.7508 21.326,4.1678 21.839,6.0978 C21.99,6.3388 22.804,6.2788 22.955,6.0078 C22.895,4.2888 23.106,1.8468 23.407,0.8208 C23.347,0.7308 23.136,0.6098 22.955,0.6098 C22.774,0.6098 22.683,0.6398 22.563,0.6998 C22.291,1.3338 21.839,1.3638 19.849,1.3638 L8.632,1.3638 C6.341,1.3638 6.25,1.2428 6.1,0.7308 C5.979,0.6398 5.828,0.6098 5.677,0.6098 C5.526,0.6098 5.376,0.6708 5.255,0.7608 C5.044,1.9358 4.894,3.8068 4.26,5.8868 C4.441,6.2788 5.014,6.3388 5.376,6.1578 C6.28,3.9578 6.914,2.7508 9.115,2.7508 L10.984,2.7508 C11.708,2.7508 11.708,2.9008 11.708,3.6248 L11.708,16.9228 Z" id="Fill-11"></path>
                <path d="M43.8815,11.7062 C45.1475,11.7062 45.1475,11.7362 45.1475,12.5802 L45.1475,16.9232 C45.1475,19.7272 44.9975,19.9382 43.6105,20.2092 L42.9475,20.2992 C42.7055,20.4812 42.7055,21.1742 42.9475,21.3552 C44.3935,21.2952 45.8715,21.2642 47.3795,21.2642 C48.7665,21.2642 50.2435,21.2952 51.7515,21.3552 C51.9925,21.1742 51.9925,20.4812 51.7515,20.2992 L51.0275,20.1792 C49.6415,19.9382 49.4595,19.7272 49.4595,16.9232 L49.4595,5.7062 C49.4595,2.9012 49.6415,2.6912 51.0275,2.4192 L51.6315,2.3292 C51.8715,2.1482 51.8715,1.4542 51.6315,1.2732 C50.2435,1.3342 48.8565,1.3632 47.3795,1.3632 C45.9315,1.3632 44.4545,1.3342 42.7965,1.2732 C42.5545,1.4542 42.5545,2.1482 42.7965,2.3292 L43.6105,2.4492 C44.9975,2.6912 45.1475,2.9012 45.1475,5.7062 L45.1475,9.2032 C45.1475,10.0782 45.1475,10.1082 43.8815,10.1082 L37.6095,10.1082 C36.3735,10.1082 36.3435,10.0782 36.3435,9.2032 L36.3435,5.7062 C36.3435,2.9012 36.5235,2.6912 37.8215,2.4192 L38.4535,2.3292 C38.6955,2.1482 38.6955,1.4542 38.4535,1.2732 C37.1275,1.3342 35.6195,1.3632 34.2625,1.3632 C32.8155,1.3632 31.2475,1.3342 29.7695,1.2732 C29.5285,1.4542 29.5285,2.1482 29.7695,2.3292 L30.4945,2.4192 C31.8505,2.6912 32.0315,2.9012 32.0315,5.7062 L32.0315,16.9232 C32.0315,19.7272 31.8505,19.9382 30.4945,20.2092 L29.7695,20.2992 C29.5285,20.4812 29.5285,21.1742 29.7695,21.3552 C31.3075,21.2952 32.8155,21.2642 34.2625,21.2642 C35.6195,21.2642 37.1275,21.2952 38.8465,21.3552 C39.0875,21.1742 39.0875,20.4812 38.8465,20.2992 L37.8815,20.1792 C36.5235,19.9382 36.3435,19.7272 36.3435,16.9232 L36.3435,12.5802 C36.3435,11.7362 36.3735,11.7062 37.6095,11.7062 L43.8815,11.7062 Z" id="Fill-13"></path>
                <path d="M65.8171,3.9269 C65.8171,2.8109 65.8171,2.7509 66.8111,2.7509 L69.2241,2.7509 C70.7021,2.7509 71.6051,3.1129 72.1791,3.6859 C72.5711,4.1079 72.9931,5.0119 73.3241,6.0679 C73.6261,6.3389 74.3201,6.2789 74.4401,5.9469 C74.2891,3.9269 74.0781,1.7559 74.0491,1.2729 C73.6561,1.3339 71.9381,1.3639 70.0081,1.3639 L63.6151,1.3639 C62.1681,1.3639 60.6911,1.3339 59.2741,1.2729 C58.9721,1.4539 58.9421,2.1479 59.2131,2.3289 L59.9671,2.4789 C61.3241,2.7209 61.5051,2.9319 61.5051,5.6759 L61.5051,16.9229 C61.5051,19.6959 61.3241,19.9079 59.9671,20.0889 L58.5501,20.2999 C58.3091,20.4499 58.3091,21.1739 58.5501,21.3549 C60.8111,21.2949 62.2891,21.2649 63.7361,21.2649 L67.6561,21.2649 C70.1291,21.2649 73.0231,21.2949 74.6211,21.3549 C75.0431,20.5409 75.7671,18.0989 75.8881,16.5309 C75.7671,16.1689 75.0131,16.0479 74.7721,16.3799 C73.1131,19.7869 72.0881,19.8779 69.4651,19.8779 C67.2641,19.8779 66.6911,19.6359 66.2991,19.0929 C65.9371,18.5809 65.8171,17.6169 65.8171,16.2289 L65.8171,12.6409 C65.8171,11.7359 65.8471,11.7059 66.6611,11.7059 L68.7411,11.7059 C70.3091,11.7059 70.6411,11.9469 70.9731,13.3949 L71.1241,14.1489 C71.3341,14.4209 72.0881,14.3899 72.2391,14.1179 C72.1791,13.1539 72.1491,12.0679 72.1491,10.9229 C72.1491,9.7759 72.1791,8.6909 72.2391,7.7259 C72.0881,7.4549 71.3341,7.4549 71.1241,7.6959 L70.9731,8.4499 C70.6411,9.8969 70.3091,10.1089 68.7411,10.1089 L66.6611,10.1089 C65.8471,10.1089 65.8171,10.0479 65.8171,9.2039 L65.8171,3.9269 Z" id="Fill-15"></path>
                <path d="M97.2335,13.2437 C97.2335,16.5307 97.8965,18.7617 99.4645,20.0577 C101.0935,21.3857 103.1445,21.7467 105.4355,21.7467 C107.8775,21.7467 110.0785,20.9937 111.4055,19.5757 C113.0645,17.7357 113.3355,15.1437 113.3355,12.3097 L113.3355,8.9317 C113.3355,6.4907 113.4565,4.1977 113.7875,3.4147 C114.0585,2.7807 114.6325,2.5997 115.4165,2.4187 L115.9585,2.2987 C116.2005,2.0567 116.1395,1.4537 115.9585,1.2727 C114.8125,1.3337 113.6965,1.3637 112.5815,1.3637 C111.3455,1.3637 110.1695,1.3337 108.5415,1.2727 C108.3595,1.4537 108.2995,2.0567 108.5415,2.2987 L109.3555,2.4497 C110.1695,2.5997 110.8325,2.7807 111.1045,3.4147 C111.4355,4.1977 111.5565,6.4907 111.5565,8.9317 L111.5565,12.5807 C111.5565,16.7107 110.3805,20.0887 106.5205,20.0887 C101.9375,20.0887 101.5455,16.1987 101.5455,12.6707 L101.5455,5.7057 C101.5455,2.9007 101.7265,2.6907 103.0835,2.4187 L103.8075,2.2987 C104.0475,2.1177 104.0475,1.4537 103.8075,1.2727 C102.3595,1.3337 100.8825,1.3637 99.4045,1.3637 C97.9575,1.3637 96.4495,1.3337 95.0025,1.2727 C94.6705,1.4537 94.7005,2.1177 94.9415,2.2987 L95.6955,2.4497 C97.0525,2.6907 97.2335,2.9007 97.2335,5.7057 L97.2335,13.2437 Z" id="Fill-17"></path>
                <path d="M141.0812,8.9318 C141.0812,6.4898 141.2012,4.2288 141.5332,3.4148 C141.8042,2.7808 142.3782,2.5998 143.1622,2.4188 L143.7052,2.3288 C143.9452,2.0868 143.8862,1.4538 143.7052,1.2728 C142.5282,1.3338 141.4432,1.3638 140.3282,1.3638 C139.0902,1.3638 137.9152,1.3338 136.2872,1.2728 C136.1062,1.4538 136.0452,2.0868 136.2872,2.3288 L137.1012,2.4498 C137.9152,2.5998 138.5782,2.7808 138.8502,3.4148 C139.1812,4.2288 139.3032,6.4898 139.3032,8.9318 L139.3032,13.0928 C139.3032,13.6358 139.3032,14.1488 139.1812,14.4498 C138.4892,13.7558 137.6432,12.7008 136.2872,11.1328 L133.7542,8.1478 C131.0402,4.9218 129.0802,2.6298 128.7792,1.2728 C128.1462,1.3338 127.2712,1.3638 126.2462,1.3638 C125.0092,1.3638 123.5022,1.3338 122.0852,1.2728 C121.7832,1.3638 121.7532,2.0868 121.9642,2.3288 L122.8082,2.4498 C123.8642,2.6608 124.3162,2.9618 124.5272,3.4748 C124.7382,3.8968 124.7382,4.3788 124.7382,6.0378 L124.7382,13.6958 C124.7382,16.1388 124.6182,18.3998 124.3162,19.2148 C124.0452,19.8478 123.4712,20.0288 122.6572,20.2088 L122.1452,20.2998 C121.9042,20.5408 121.9642,21.1738 122.1452,21.3548 C123.2912,21.2948 124.4072,21.2648 125.5222,21.2648 C126.7292,21.2648 127.9332,21.2948 129.5632,21.3548 C129.7432,21.1738 129.8042,20.5408 129.5632,20.2998 L128.7182,20.1788 C127.9332,20.0288 127.2412,19.8478 126.9692,19.2148 C126.6382,18.3998 126.5182,16.1388 126.5182,13.6958 L126.5182,7.8468 C126.5182,6.7308 126.5182,6.2188 126.6682,5.9168 C127.2112,6.3688 128.2372,7.6048 129.9552,9.7768 L136.9202,18.3998 C138.3372,20.1498 139.3322,21.6868 139.3622,21.6868 C140.0862,21.6868 140.9312,21.3548 141.1422,20.9938 C141.0812,19.9988 141.0812,18.0988 141.0812,16.1388 L141.0812,8.9318 Z" id="Fill-19"></path>
                <path d="M156.8835,5.766 C156.8835,2.931 157.0635,2.721 158.4505,2.479 L159.2945,2.329 C159.5365,2.148 159.5365,1.454 159.2945,1.273 C157.6665,1.334 156.1585,1.363 154.7415,1.363 C153.2945,1.363 151.7865,1.334 150.1585,1.273 C149.9175,1.454 149.9175,2.148 150.1585,2.329 L151.0035,2.479 C152.3895,2.721 152.5705,2.931 152.5705,5.766 L152.5705,16.862 C152.5705,19.696 152.3895,19.908 151.0035,20.149 L150.1585,20.3 C149.9175,20.481 149.9175,21.174 150.1585,21.355 C151.7865,21.295 153.2945,21.264 154.7415,21.264 C156.1585,21.264 157.6365,21.295 159.2645,21.355 C159.5055,21.174 159.5365,20.481 159.2945,20.3 L158.4505,20.149 C157.0635,19.908 156.8835,19.696 156.8835,16.862 L156.8835,5.766 Z" id="Fill-21"></path>
                <path d="M181.2771,8.57 C182.3321,6.128 183.1161,4.5 183.7801,3.504 C184.1711,2.871 184.5941,2.63 185.4381,2.449 L186.2231,2.299 C186.4331,2.117 186.4021,1.394 186.1621,1.273 C185.2861,1.334 184.3831,1.363 183.3571,1.363 C182.2111,1.363 181.0661,1.334 179.6491,1.273 C179.2861,1.424 179.2861,2.057 179.5281,2.299 L180.4021,2.509 C181.1251,2.66 181.2161,2.811 181.2161,3.022 C181.2161,3.203 181.1251,3.535 180.9141,4.108 C180.5531,5.132 179.3171,8.51 178.5331,10.409 L177.4171,13.244 C177.0551,14.149 176.6941,14.963 176.4521,15.475 C176.2411,14.963 175.9391,14.27 175.5171,13.154 L172.8641,6.369 C172.1411,4.561 171.6581,3.293 171.6581,3.052 C171.6581,2.781 171.8691,2.599 172.4121,2.479 L173.3171,2.299 C173.4971,2.028 173.5281,1.454 173.2861,1.273 C171.4471,1.334 170.1511,1.363 168.7641,1.363 C167.1951,1.363 166.2001,1.303 164.6621,1.273 C164.3921,1.424 164.3011,1.967 164.5421,2.299 L165.3871,2.509 C166.8341,2.871 166.7731,2.751 168.0091,5.796 L172.8941,18.069 C173.3171,19.093 173.8301,20.692 174.1611,21.506 C174.3421,21.657 174.6131,21.747 174.9751,21.747 C175.4271,21.747 175.7891,21.657 176.0301,21.506 C176.7241,19.817 177.5381,17.435 179.0751,13.787 L181.2771,8.57 Z" id="Fill-23"></path>
                <path d="M197.6217,3.9269 C197.6217,2.8109 197.6217,2.7509 198.6167,2.7509 L201.0297,2.7509 C202.5067,2.7509 203.4107,3.1129 203.9847,3.6859 C204.3767,4.1079 204.7987,5.0119 205.1297,6.0679 C205.4317,6.3389 206.1257,6.2789 206.2457,5.9469 C206.0957,3.9269 205.8827,1.7559 205.8537,1.2729 C205.4607,1.3339 203.7427,1.3639 201.8127,1.3639 L195.4197,1.3639 C193.9727,1.3639 192.4967,1.3339 191.0777,1.2729 C190.7777,1.4539 190.7467,2.1479 191.0177,2.3289 L191.7717,2.4789 C193.1297,2.7209 193.3087,2.9319 193.3087,5.6759 L193.3087,16.9229 C193.3087,19.6959 193.1297,19.9079 191.7717,20.0889 L190.3557,20.2999 C190.1137,20.4499 190.1137,21.1739 190.3557,21.3549 C192.6167,21.2949 194.0937,21.2649 195.5407,21.2649 L199.4607,21.2649 C201.9347,21.2649 204.8287,21.2949 206.4267,21.3549 C206.8487,20.5409 207.5717,18.0989 207.6927,16.5309 C207.5717,16.1689 206.8187,16.0479 206.5767,16.3799 C204.9187,19.7869 203.8937,19.8779 201.2707,19.8779 C199.0687,19.8779 198.4967,19.6359 198.1047,19.0929 C197.7417,18.5809 197.6217,17.6169 197.6217,16.2289 L197.6217,12.6409 C197.6217,11.7359 197.6517,11.7059 198.4657,11.7059 L200.5467,11.7059 C202.1137,11.7059 202.4467,11.9469 202.7787,13.3949 L202.9287,14.1489 C203.1387,14.4209 203.8937,14.3899 204.0437,14.1179 C203.9847,13.1539 203.9537,12.0679 203.9537,10.9229 C203.9537,9.7759 203.9847,8.6909 204.0437,7.7259 C203.8937,7.4549 203.1387,7.4549 202.9287,7.6959 L202.7787,8.4499 C202.4467,9.8969 202.1137,10.1089 200.5467,10.1089 L198.4657,10.1089 C197.6517,10.1089 197.6217,10.0479 197.6217,9.2039 L197.6217,3.9269 Z" id="Fill-25"></path>
                <path d="M220.4416,4.1979 C220.5026,2.7509 220.5026,2.6599 221.7386,2.6599 C224.0916,2.6599 225.6886,4.4089 225.6886,7.1219 C225.6886,8.9009 225.1166,9.8669 224.6046,10.3799 C224.0306,10.9519 223.3976,11.2239 222.3126,11.2239 C220.5326,11.2239 220.4416,11.1329 220.4416,10.0779 L220.4416,4.1979 Z M216.3116,16.9229 C216.3116,19.6959 216.1306,19.9079 214.7746,20.1499 L213.9596,20.2999 C213.7176,20.4499 213.7176,21.1739 213.9596,21.3549 C215.5276,21.2949 216.8536,21.2639 218.3616,21.2639 C219.8086,21.2639 221.1966,21.2949 222.7946,21.3549 C223.0056,21.1739 223.0056,20.4499 222.7946,20.2999 L221.9796,20.1499 C220.6226,19.9079 220.4416,19.6959 220.4416,16.9229 L220.4416,13.2139 C220.4416,12.6109 220.5026,12.5499 221.5576,12.5499 C222.3126,12.5499 222.7946,12.7919 223.1556,13.6059 C223.8496,15.2039 224.5436,16.6819 225.5086,18.2789 C226.8356,20.4499 228.5846,21.4459 231.3576,21.4459 C232.2926,21.4459 233.2576,21.3859 233.7396,21.1739 C233.8906,20.9929 233.8906,20.5409 233.6186,20.3899 C233.1676,20.3599 232.3826,20.1789 231.5986,19.5459 C230.1516,18.3099 228.9156,16.0479 226.9246,12.0079 C226.7746,11.6759 226.7746,11.4949 227.0766,11.3439 C228.4636,10.6509 230.2716,9.5049 230.2716,6.8219 C230.2716,4.8919 229.3666,3.3839 227.6186,2.3589 C226.4736,1.6649 224.2716,1.2729 221.7086,1.2729 C218.8446,1.2729 216.4926,1.3939 214.2306,1.5449 C213.8696,1.6949 213.8696,2.4489 214.1706,2.5999 L214.9856,2.7209 C216.2506,2.9009 216.3116,3.2329 216.3116,6.2479 L216.3116,16.9229 Z" id="Fill-27"></path>
                <path d="M252.4167,15.6259 C252.4167,12.3089 250.0337,10.5609 248.1647,9.5659 L246.1737,8.5099 C244.6667,7.7259 243.4307,6.4599 243.4307,5.0729 C243.4307,3.5649 244.5167,2.2679 246.5057,2.2679 C248.6777,2.2679 249.9747,4.4689 250.4867,6.0079 C250.7577,6.3079 251.5117,6.2789 251.6617,5.9169 C251.6617,3.8959 251.3607,2.2679 251.1197,1.6049 C250.7577,1.5449 250.4867,1.4849 250.0947,1.3629 C248.8887,1.0019 247.6527,0.8809 246.6567,0.8809 C242.2847,0.8809 239.6617,3.2329 239.6617,6.6399 C239.6907,9.6259 242.0427,11.4339 244.2147,12.5199 C246.0247,13.4249 248.3147,14.8719 248.3147,17.3139 C248.3147,18.8219 247.2897,20.3599 245.0587,20.3599 C242.4957,20.3599 240.4757,17.5859 239.8727,15.6259 C239.6317,15.2939 238.9377,15.3239 238.7267,15.7169 C238.7267,17.7679 239.1177,19.9379 239.6907,20.6009 C240.3257,20.9639 242.0427,21.7469 244.8177,21.7469 C249.3717,21.7469 252.4167,19.3349 252.4167,15.6259" id="Fill-29"></path>
                <path d="M266.1424,5.766 C266.1424,2.931 266.3224,2.721 267.7094,2.479 L268.5534,2.329 C268.7954,2.148 268.7954,1.454 268.5534,1.273 C266.9254,1.334 265.4194,1.363 264.0004,1.363 C262.5534,1.363 261.0454,1.334 259.4174,1.273 C259.1764,1.454 259.1764,2.148 259.4174,2.329 L260.2624,2.479 C261.6484,2.721 261.8294,2.931 261.8294,5.766 L261.8294,16.862 C261.8294,19.696 261.6484,19.908 260.2624,20.149 L259.4174,20.3 C259.1764,20.481 259.1764,21.174 259.4174,21.355 C261.0454,21.295 262.5534,21.264 264.0004,21.264 C265.4194,21.264 266.8954,21.295 268.5234,21.355 C268.7644,21.174 268.7954,20.481 268.5534,20.3 L267.7094,20.149 C266.3224,19.908 266.1424,19.696 266.1424,16.862 L266.1424,5.766 Z" id="Fill-31"></path>
                <path d="M282.334,16.9228 C282.334,19.7268 282.154,19.9378 280.796,20.1498 L279.44,20.2998 C279.198,20.4808 279.198,21.1738 279.44,21.3548 C281.551,21.2948 283.118,21.2648 284.565,21.2648 C285.923,21.2648 287.43,21.2948 289.391,21.3548 C289.602,21.1738 289.602,20.4808 289.391,20.2998 L288.184,20.1498 C286.828,19.9378 286.647,19.7268 286.647,16.9228 L286.647,3.6248 C286.647,2.8418 286.736,2.7508 287.461,2.7508 L289.27,2.7508 C291.531,2.7508 291.953,4.1678 292.466,6.0978 C292.617,6.3388 293.43,6.2788 293.581,6.0078 C293.521,4.2888 293.733,1.8468 294.035,0.8208 C293.974,0.7308 293.763,0.6098 293.581,0.6098 C293.4,0.6098 293.31,0.6398 293.189,0.6998 C292.917,1.3338 292.466,1.3638 290.475,1.3638 L279.259,1.3638 C276.967,1.3638 276.877,1.2428 276.726,0.7308 C276.606,0.6398 276.454,0.6098 276.304,0.6098 C276.152,0.6098 276.002,0.6708 275.882,0.7608 C275.671,1.9358 275.52,3.8068 274.887,5.8868 C275.068,6.2788 275.64,6.3388 276.002,6.1578 C276.907,3.9578 277.54,2.7508 279.742,2.7508 L281.61,2.7508 C282.334,2.7508 282.334,2.9008 282.334,3.6248 L282.334,16.9228 Z" id="Fill-33"></path>
                <path d="M310.8339,14.8118 C310.8339,13.0928 311.1359,12.3398 311.9179,10.9228 L313.8179,7.4848 C315.2649,4.8618 316.0199,3.7758 316.4719,3.2028 C316.8029,2.7808 317.3769,2.5998 317.9189,2.4788 L318.7029,2.3288 C318.9449,2.1178 318.9449,1.3938 318.5829,1.2728 C317.7089,1.3338 316.7729,1.3638 315.6279,1.3638 C314.5419,1.3638 313.4559,1.3338 312.2509,1.2728 C311.9499,1.4238 311.9789,2.1778 312.2219,2.3288 L312.9139,2.4498 C313.6369,2.5698 313.9389,2.6908 313.9389,2.8718 C313.9389,3.2328 313.5169,4.2288 312.3719,6.3688 C311.5579,7.9078 310.7139,9.6548 309.8389,11.1328 C309.4759,10.3798 308.9039,9.1728 308.4509,8.1778 L307.0339,4.9518 C306.4009,3.5348 306.2509,3.0818 306.2509,2.8418 C306.2509,2.8108 306.4309,2.6908 306.9739,2.5698 L307.9989,2.3288 C308.2709,2.0868 308.2099,1.3938 307.9379,1.2728 C306.9129,1.3338 305.3759,1.3638 303.5369,1.3638 C301.7569,1.3638 300.6429,1.3338 299.2849,1.2728 C298.9239,1.3638 298.8929,2.0868 299.1649,2.3288 L300.1899,2.5098 C301.2439,2.7208 301.5159,3.1728 302.1189,4.4088 L305.7069,11.8268 C306.4919,13.4248 306.5209,13.9078 306.5209,15.4148 L306.5209,16.9228 C306.5209,19.7268 306.3399,19.9378 304.9839,20.1498 L303.9589,20.2998 C303.7179,20.4808 303.7179,21.1738 303.9589,21.3548 C305.7379,21.2948 307.2449,21.2648 308.6929,21.2648 C310.1399,21.2648 311.6179,21.2948 313.5779,21.3548 C313.7889,21.1738 313.7889,20.4808 313.5779,20.2998 L312.3719,20.1498 C311.0149,19.9378 310.8339,19.7268 310.8339,16.9228 L310.8339,14.8118 Z" id="Fill-35"></path>
                <path d="M352.8331,11.6162 C352.8331,16.5012 351.2951,20.3592 347.3451,20.3592 C342.4311,20.3592 341.1341,14.4502 341.1341,10.7712 C341.1341,5.7352 343.1231,2.2682 346.8331,2.2682 C350.5721,2.2682 352.8331,6.4602 352.8331,11.6162 M347.0731,0.8812 C340.7711,0.8812 336.3091,5.4952 336.3091,11.4642 C336.3091,17.7672 340.7101,21.7462 346.7721,21.7462 C353.2551,21.7462 357.6581,17.7972 357.6581,11.2242 C357.6581,5.1022 353.3461,0.8812 347.0731,0.8812" id="Fill-37"></path>
                <path d="M371.7809,3.987 C371.7809,2.811 371.7809,2.751 372.7759,2.751 L375.1279,2.751 C376.6659,2.751 377.5719,3.113 378.0839,3.746 C378.3859,4.138 378.6269,4.861 378.9579,6.098 C379.3189,6.339 379.9829,6.308 380.1029,5.977 C380.0439,3.957 380.0439,1.785 380.0439,1.273 C379.6219,1.334 377.9029,1.363 375.9739,1.363 L369.6399,1.363 C368.1929,1.363 366.6849,1.334 365.3899,1.273 C365.0569,1.394 365.0569,2.148 365.3289,2.329 L365.9319,2.419 C367.2889,2.691 367.4699,2.901 367.4699,5.706 L367.4699,16.923 C367.4699,19.727 367.2889,19.938 365.9319,20.149 L364.9369,20.3 C364.6959,20.481 364.6959,21.174 364.9369,21.355 C366.7459,21.295 368.2539,21.264 369.6399,21.264 C371.0869,21.264 372.5649,21.295 374.4339,21.355 C374.6469,21.174 374.6469,20.481 374.4339,20.3 L373.3189,20.149 C371.9619,19.938 371.7809,19.727 371.7809,16.923 L371.7809,12.851 C371.7809,12.038 371.8119,11.947 372.6249,11.947 L374.9479,11.947 C376.5449,11.947 376.8469,12.189 377.1799,13.636 L377.3299,14.359 C377.5409,14.63 378.2949,14.601 378.4749,14.33 C378.4159,13.425 378.3859,12.309 378.3859,11.194 C378.3859,10.047 378.4159,8.932 378.4749,7.967 C378.2949,7.696 377.5409,7.665 377.3299,7.937 L377.1799,8.661 C376.8469,10.138 376.5449,10.349 374.9479,10.349 L372.6249,10.349 C371.8119,10.349 371.7809,10.259 371.7809,9.445 L371.7809,3.987 Z" id="Fill-39"></path>
            </g>
            <g id="BG">
                <path d="M38.0353,119.5679 L38.0353,130.9482 C45.0024476,126.652174 50.4098585,123.381412 55.4168557,119.5679 L56.2643,119.5679 L111.6153,119.5679 C111.6153,119.5679 74.7893,131.9189 56.5973,152.5029 C56.5513,152.5539 56.3103,152.5539 56.2643,152.5029 C38.0723,131.9189 1.2463,119.5679 1.2463,119.5679 L38.0353,119.5679 Z" id="Combined-Shape"></path>
                <path d="M74.5934542,29.776 C66.7646761,48.7558152 43.9230267,62.5242 38.0353,62.5242 L38.0353,114.854 L1.245,114.854 L1.245,29.776 L74.5934542,29.776 Z M74.8253,29.776 L111.615,29.776 L111.615,114.854 L61.0645357,114.854 C63.0461351,113.039302 65.0350284,111.035239 67.1093,108.7362 C71.4873,103.8862 74.8253,100.9542 74.8253,95.0152 L74.8253,29.776 Z M78.2741,112.5536 C86.8491,106.6376 91.9881,103.2496 98.2631,95.4696 C101.2721,91.7386 103.5681,89.4816 103.5681,84.9166 L103.5681,34.2946 C98.3431,49.1216 82.3631,59.9256 78.2741,59.9256 L78.2741,112.5536 Z M9.2931,112.5536 C17.8681,106.6376 23.0071,103.2496 29.2821,95.4696 C32.2911,91.7386 34.5861,89.4836 34.5861,84.9176 L34.5861,34.2986 C29.3611,49.1236 13.3811,59.9286 9.2931,59.9286 L9.2931,112.5536 Z" id="Combined-Shape"></path>
                <path d="M0.958,25.465 L0.958,0.459 L111.328,0.459 L111.328,25.465 L0.958,25.465 Z M17.7489,21.8706 C15.0179,21.8706 14.7709,21.1256 14.7709,19.2776 L14.7709,3.5536 L14.3009,3.5536 L7.3499,6.5606 L7.3499,7.2776 C8.2879,6.9186 9.2249,6.5876 9.6119,6.5876 C10.6879,6.5876 10.6879,7.8016 10.6879,8.4906 L10.6879,19.1116 C10.6879,20.8226 10.6049,21.8976 7.4049,21.8706 L7.4049,22.5326 L17.7489,22.5326 L17.7489,21.8706 Z M38.0876,18.2018 C38.0876,16.1878 38.6676,15.3328 39.4946,14.0918 C41.3706,15.3328 43.1636,16.5188 43.1636,18.7808 C43.1636,19.4988 43.1636,22.0088 40.7086,22.0088 C38.9156,22.0088 38.0876,20.1878 38.0876,18.2018 Z M41.3156,3.5538 C36.9016,3.5538 35.0526,5.8978 35.0526,8.4638 C35.0526,10.7528 36.8186,12.4368 38.8876,13.5948 C37.0396,14.1738 34.7496,15.2498 34.7496,18.2568 C34.7496,21.2908 37.5356,22.8908 40.5156,22.8908 C44.4606,22.8908 46.9986,20.7398 46.9986,17.2918 C46.9986,14.7258 45.2326,12.7948 42.8606,11.3878 C44.3776,10.8908 46.6126,9.8978 46.6126,7.5538 C46.6126,5.9808 45.5086,3.5538 41.3156,3.5538 Z M38.6116,6.5878 C38.6116,5.4568 39.5216,4.3538 40.8736,4.3538 C42.9156,4.3538 43.3296,6.3118 43.3296,7.7188 C43.3296,9.3738 42.8326,10.0368 42.1986,10.8908 C41.9226,10.7528 38.6116,9.1538 38.6116,6.5878 Z M71.3089,18.229 C71.3089,20.408 71.3089,22.146 69.6269,22.146 C67.9159,22.146 67.5029,20.436 67.5029,15.002 C67.5029,14.091 67.7229,12.546 67.7499,12.519 C68.0539,12.187 68.5229,12.16 68.9639,12.16 C70.8679,12.16 71.3089,14.256 71.3089,18.229 Z M75.3649,3.553 C67.0879,4.381 63.1709,9.677 63.1709,14.698 C63.1709,21.319 67.0059,22.891 69.4889,22.891 C74.4539,22.891 75.5019,18.202 75.5019,16.712 C75.5019,11.968 72.4119,10.919 70.5089,10.919 C69.1849,10.919 68.6889,11.111 68.0259,11.387 C69.2399,6.312 72.6059,4.823 75.3649,4.271 L75.3649,3.553 Z M94.9305,7.3879 L102.5985,7.3879 L103.7855,3.8849 L94.9035,3.8849 L92.2265,13.4019 C94.2135,13.5399 96.3095,13.6769 98.1585,14.5049 C99.6195,15.1389 101.1095,16.5189 101.1095,18.2019 C101.1095,20.4639 99.2885,21.0709 98.3515,21.0709 C96.6125,21.0709 95.0405,18.6709 93.1375,18.6709 C91.9505,18.6709 91.4265,19.5529 91.4265,20.3249 C91.4265,21.8979 93.2475,22.7539 95.3715,22.7539 C100.3925,22.7539 103.2615,19.7189 103.2615,16.1049 C103.2615,13.4019 101.6335,11.6639 100.3925,10.9739 C98.5435,9.9259 96.8335,9.7599 94.3235,9.6219 L94.9305,7.3879 Z" id="Combined-Shape"></path>
            </g>
        </g>
    </g>
</svg>